<mxfile host="app.diagrams.net" modified="2022-02-18T01:07:02.110Z" agent="5.0 (Windows NT 10.0; Win64; x64) AppleWebKit/537.36 (KHTML, like Gecko) Chrome/98.0.4758.102 Safari/537.36" etag="RcbiB76GFDbIQSHA3x9H" version="16.5.6" type="github">
  <diagram id="hIoT4OHfCP8BXWIc4_R8" name="Page-1">
    <mxGraphModel dx="687" dy="374" grid="0" gridSize="10" guides="1" tooltips="1" connect="1" arrows="1" fold="1" page="1" pageScale="1" pageWidth="1700" pageHeight="1100" math="0" shadow="0">
      <root>
        <mxCell id="0" />
        <mxCell id="1" parent="0" />
        <mxCell id="FVQ36FpUcOlVYUAiSAkq-2" value="MCU" style="shape=umlLifeline;perimeter=lifelinePerimeter;whiteSpace=wrap;html=1;container=1;collapsible=0;recursiveResize=0;outlineConnect=0;strokeColor=default;" parent="1" vertex="1">
          <mxGeometry x="289" y="128" width="101" height="579" as="geometry" />
        </mxCell>
        <mxCell id="FVQ36FpUcOlVYUAiSAkq-4" value="" style="shape=umlLifeline;participant=umlActor;perimeter=lifelinePerimeter;whiteSpace=wrap;html=1;container=1;collapsible=0;recursiveResize=0;verticalAlign=top;spacingTop=36;outlineConnect=0;strokeColor=default;" parent="1" vertex="1">
          <mxGeometry x="72" y="128" width="20" height="585" as="geometry" />
        </mxCell>
        <mxCell id="FVQ36FpUcOlVYUAiSAkq-5" value="" style="endArrow=classic;html=1;rounded=0;" parent="1" edge="1">
          <mxGeometry width="50" height="50" relative="1" as="geometry">
            <mxPoint x="83" y="219" as="sourcePoint" />
            <mxPoint x="337" y="268" as="targetPoint" />
          </mxGeometry>
        </mxCell>
        <mxCell id="FVQ36FpUcOlVYUAiSAkq-33" value="" style="endArrow=classic;html=1;rounded=0;" parent="1" edge="1">
          <mxGeometry width="50" height="50" relative="1" as="geometry">
            <mxPoint x="337" y="286" as="sourcePoint" />
            <mxPoint x="86" y="356" as="targetPoint" />
          </mxGeometry>
        </mxCell>
        <mxCell id="FVQ36FpUcOlVYUAiSAkq-37" value="" style="shape=image;verticalLabelPosition=bottom;labelBackgroundColor=default;verticalAlign=top;aspect=fixed;imageAspect=0;image=data:image/png,iVBORw0KGgoAAAANSUhEUgAAAfgAAACNCAYAAABbsGi5AAAgAElEQVR4nO2d/2tU17r/3/1wfv789OlMuNX0nkZ6A8YcmxusBnOKCM2FHUOV4ilFw0lDOidpe7CGSnoxvbYJp0GaKm1NHEOwWCk90iYSs6EpBLEJptUx6pgDnmL6xS+HzHj/h/n8sL+t/X3vmdmTuH2/ILQza6+115dnPc+znrXW+EShUCiAEEIIIbHi/6x2BQghhBBSfmjgCSGEkBhCA08IIYTEkNAGPjPchqo64W84G0W91gBZHK87hIncatcDyE8eCtbPORmddW2oqksj41XWIzRua7W+er3q2tA56SIki2nTXDm+GLT0HCa6LfOsrg1V3TLyDuWay8/iuENalU2Wfd4BCPLk0s6o0yPEb06J42vrF7dn15iMurE69bXIm0d/2vCUd285to2jm93yfIeC2fbZdWyp6dbnyjEfQhh4RXG0YhArS1P63zQWXCtKKkkOE0fSkCvwJm3SVFIhB0abqFEqr8U06vtv+9ej3TwaQ+2r6TDeRs/OEP2Sk9G50yxPcn+XofCiTl9NcjLetY7vXBr1EcpUvOdUDhPdXeiZE76KuD99OX3Ywel1JzPchtbT4jcyWgUnpdR0ncW05bnSCGjgc5joPoxbA2NY6a03pTT2ptBYvvqQIslPDpsnUITc/dnHuK0i+d+WK/eODsXZHd+dtDyRw8SYYrqkgTHFEe4AgNvoORtOqfWdMZzplVEJCTGxOYWs4GwfaBATazEyq6WNYaRZ/fr0WZtSc3pH5qxqfNU2ZgdqAQBDY4pSijp9tdmkjtvK0hRWzkjKl6ejW8zEek4tnld1k4TppSmszKYgAY6y6ImnvPvMlY5B+3g6zUend+RkjJ4GjDk1iD4AmEvjy8UypOtkcby9vEu0YAY+l4E8J6HbpsisWMODYhhCDXkvGmE5xVsV84jPK6GX44tC+nAW5pCMxQOzhFkMb9ihLJ+QZefkPVuam3ethPtkNb9WriV0ZPJWLf1k9eRM7Uhj3qfX9RVHh6QITkCcwsz6d2KdtPp0f4XPuw1PVO7vEsbMGiqzj2WgcLUYtu2WcdejztZxzAy3GStrwUP3yuOMPcyt1df+Dqe25HB3DgBqITUpc6Zxh6pU7txDXhhfsdzQocvAJLFnVFUquA35sp9WzeHuHeX/+nYoDn2i6QVFKc/dx93I053r5Cpfi2lUdcvIiOPsGYL1mVNJCQecdF3zOlR75UO555Rddg1ZK9+ccgpPu8u7Onc88tj6RHeItymLwWQjpGYAuI27D4R2aP0j1DeSiE5DSncoAzltD+4rzmjzC9ieBIB6bO9Qkm79lis9XSUzfBhDqEVfR23JTdQIZuAf3IfsK9xZHK9TV/mq95MdWLaEIW6jZwz4UPXi0N+FqroFbNdXGTJGLUZ0qF1LH0Tf6cOoqhsGjqjbAx1mDyxzEYqHqHppcv950+AZZal5j2h1U0JI8otG3bt/TmMoUOeonL6k1uso9iSt5Y1h5M5hQ1gXFwDd2xxEn+jJLaZR1S60Y3YdZM9wcBbHd6YhQ8J077YQ9T1sCjNr4dHE7n2qd3kJ85rhvKh4lX1dO/B/3epQZwnBCSGozLA1zQVr2HYujVZL2+0rndvo2em+nxU6T05GZ91h29gPtYdQNrl7uAUAqEG1k08sKJihMRl53cOXMG1ZeQy1e+xRz6VRH2BPT8FQKvLP1jlmfYfhoFQ/5djAiNOdsmRwV5xPVl0xl8YoetU5k4J0WpxvYeeUiLGqkl5sNK8KrZR1TlmMq4q2zVPOOeW0QvfbTgqTR5t/0jNOk0FwPlU9qEV3pIEx8yrdR94954oF3aHEMu6Kjzq8Q2/rhvWO419qOqA4cq2nAWmgF68+41n1UJTvFP3iAoaaU/hQ8HwTu/ehTxBqoBYjR1QFpnpx0sBLaog/ie0v1tqUT98ZbQtAVVAd+7BHfUXjDklZEanPmrYLGrahzzJ4RllA474UJG214BChaOwdFFbDSewZdQrFCgj1speXxJ4uCUMXVWekISUIrtIuzZPLXJSFPgGQlPDhgJtHp2ydDKEWI7Mht0qEUNS0qviV+mmGQFvpZTGvGp/tDUo/aM8r4ecUGhcXFIOol6mGhE1jb36nNbwGAPnLl1RP1143jcZeIQynhbrUcW7sNUK9SkjuKPYkvfMEqYNojKtt73Buix+J3b1qH6VRrypgUT6JBdOq2kFXiLonKaG76DklIDp7HYPe81+tQ9nmlP6MsdWiyJ0lAlOGOZXYfVSYH9p2zm3cfeA+p7zyhKceB9Sw+VC7Gs2w2JJYo53pCSJjIfldoKeeWqcbQ1cP5LdlYMM2S3oS1c3qoNvqnUT1BmDT08EbVP1MLSR7QQa2gzu1GAlSsBqh+DBwTQKUBxlynWU/pXkd8qhHwuHQiTQAaKHRTTsC9om+t6UcoOrRE2S01i1jZPao4XRYEbzJ6mcUxaHRuC8F6XQa8ncZ5J++ryq4ba7GR/dQ59Kor0vb0vXy9PRax7rpnr6wUrLWzX5YxZ8weZzqkHi6xlSH4KiOh+MYKE5fz5wqI80pvOqgoPvOeDgQzSlkrXuNrmgGw76Ssr9DMyBucxcVSjdjG8cO10cFQs4plfzkIX317DkGImWcU0YUyDq3LeWVYU6JbQ1KMXkUh8xlHBpewkizrOvEvi4HufaR98DjBMHx0aJsmmPi8A49An3nnqq/XSgq/X/18zo4fRhVgnzL/V2o+nnQdu4tDMFW8MlGSM0y5j1ClImna0yraYMQYbhSyMno3Hkf3baVWgAEB8YoT5tgRfDUOkiWwxrGwQ/FuN/tEm4i6IpKcXrEfRkgogM4+ljlMP+dJYSmroAwdwnvjskAajGyL4CQ2dqsKpykhHGLp29sj9iRv8vY6qZ8VEPZ2oEZ7bCOFyHzKMpPrEMRh4yEPUZltSUcutMVrfEdAGAujXcjO0GtRXoAIMhZGiOcr0WdjENx29AYebqdzHAbRp8Rt/+C7lMWMaf0U/TKobDAEZoo5pTpsOSUcaizXHMKWXzZf1uYu0H0Zrg8+vkTbb9bOHS3Xetb/TuFoXa/LacSEG7BmCI7LhjnQ9SIpHBoTmpKlpj+/yJooEHAEL0aYm63721khtWBaNiGPouSyk8OowfawYKIsZ4T0MLGQUiuxyaY9/R0hQPA75CdvbxGSHBT2DncnROdHmNlBSgGxnR2QBcGBxpSZgdCn2gSppc8Vu+AsNekRRKMA2GANilvQ56DcDjEjHYg6K6+xyjuXxn9Zdz/FKIWDvtRuiKw1c2CeritaqfHtUDtQNDDEHkgTmajLfpKzmlV4YgSQga0PrL3sb6H2jGon+q1nhkpDfVanKUfnbYBxL1Lbd/RUMpKv2krZ+1QXNTpZtRVuB7tsxopb0LNKYirOxmtroeGHSjjnMpoDoFpHI2DaGWfU3q6/fyJjvVqWZA8gLpdCuj9qZ0U15y5nIzOdtXpmdUcFvt5rJLQ5r/4fqdtACcdJjjsPTsFHaKNYUnpyhaNqMc151VyuLUWluB78A0prCwNYlN/l+nk5OgzL+l75Acs6fXfvRAihFgiDS9hBMLgXESIE+X2us/vCBEBsKEcHLH2lXLopx6vDkCYtAumUGNi91HlcKKW7wjQHXi1EoKOQdNeXN8Zi0PQ8JJ+tcpq2Br3WVfBSv8F7q/mFLJOgiueblXraPqsKz1AUQb2d+oHmjSe9M9jIilh3NYWZRUVZq9dGUdx3IwQqnagRl/FNaTUsXC5G1sWQq5GG1LCdSIFUwg06nQTxgJDmTPDuLsh+JwIO6eKjpiVdU4p+9/W/XJXip1TqMerwue+M8KVShXbnAqQx4yDfujQQs/aIWGo55iS2HNE6YsofxdBGhizX6VzJYk9o5Y2mkL5paZHxxP81+SII/oPtUiYXuLhL0JKhnOKVJhgh+zI44PlF9iC7FERQjzgnCKrBP+xGeKKNDBW9msbhDzOcE6RSsIQPSGEEBJDuIInhBBCYggNPCGEEBJDaOAJIYSQGEIDTwghhMQQGnhCCCEkhtDAE0IIITGEBp4QQgiJITTwhBBCSAyhgSeEEEJiCA08IYQQEkNo4AkhhJAYEuhfk/v+h5tR14MQQgghAfjj1j8Eei7wPxf7n/X/UXRl1grXsv+MRTseRzh2hJBSiIsOuZb9Z+BnGaInhBBCYggNPCGEEBJDaOAJIYSQGEIDTwghhMQQGnhCCCEkhtDAE0IIITGEBp4QQgiJITTwhBBCSAyhgSeEEEJiCA08IYQQEkNo4AkhhJAYEvi36MORx9SBN/H2Ze3zszg2PYg2zKCndRwzDjla+j/D+/gEWwd+j6+vdOI5a1k172H5rbpoquvC9U/3YuzfP8PIrkRF32tH6YN7fz6HNzavclUeEa5/uhcvfyF+02KRq/A8vHAYW399JSI5XMKJLV9h/fQg2lZb3AghDjoEOHjqHN7AOGped7JiwMFTn2H95w72Kq/Yvo2nKqvDIzDwSzix5QPg1DksH1e/ys9g6l8ANrdg5EqL8t2NcdR8vg4/HG/Bk3rev+LY7JsYu7DLMKo3LuBtdOKHChv3VSU/g57W++gq0SA97rT0G87ZwwuHsXXLeMlGnhDy+CDqEINOLF/pBODi9P93J75t/QpTfzKc9et/Hwf6P6v4Aq38Ifr8A/wDLWgSG5JoQVughiXQ9t+dwMAnmMoDwBJOvD6Dg38WnQBCwvPkrr/iWNMvuJdf7ZoQQmJNogXv9wNv/20GDwHgxjhe/qIFXasQCS6/gU88hY2YweUbxeZvQdf+n/D235fw8MJX+Hj/e2s0LL2EE1v2okb967mgWY48pg7sxYkbYvph1WGB6Rktr/Ks+syNcdS0jmMGM3h5y17UfLrk8k5rmcSbPO5dNv5f7P+aLeO4DiiRE+3/9Udn0OPa12YZqLHmvTEupIkyYq9Dz4UHZWwrIWQ1eXLXKzh4eRznbuQx9fkMDp5anchhBIfs6vDGdCf+8bqDwgvIc2+9h4NffKDsx6/J0LywDXHlHJavvIeNetRB4ePXf0TTFSX96/0/Gd6cup/+7c7P1Lzn0DT3AT7WMm7uxPJ0J1rQgq+vnDOFftzLJH48vPAVPm5qxrYEgPx13NP7/zMca5rB2IU8kHgO/9Vkdk4f/jiHmf2vOOyLKzLwj35jHH/o/wUvHzDG5PoclDG8cg7Lp1owM3BBnQ92Gej6ddyQAULImmBm4E13B96TOrxxqgUfv67sx6/WIjWaU/SJFoxcOYflU3BYhYZhjYZUb/yIj5s6sVcftDrs7Qe+/dGorOixPfenTrRcvo/7AJC/jm8vm8M1z731Hg4GeK1rmcQRcXJunW02znskWvCG3v8JbNv5LGZ+zQNIoO3PLfj4c8MZW5j9CQebHZxMVQbeF8ZR8drnsKCKwXNvCV775udxUJPnEmSAEFI5WgQHfrnY8zvLD1ZtIRbRKXqVzZ1YvrILUwfeRM+F4KfRr3+qrIx+wCfY+vcltK2xVfzDe78Al2ewdcu4OWG/YiQ8+dd9zDStw/uR1Y5oOB+QUbCdkN2v/nfz8zh4+Sss5FvQhuv4Fp1438H7fnjvF6DmecvZkATWN/2Ee/+CIgZ5662RZ3EMoAwQEnuWcOL1X3Bs+jPgb2/i3I2WVVnFR2vgAWgrpLd/DWD8AP1AwtdXEngSr+Dglg9wonltXQ97cv3vgf1u16UChBzUlbduHPIP8A8A68tWQ+KFdv1x+Ypwwv5XLbUOTft/wtiPeWzDHLDzr44HPJ9c/3tg9gEeos6S/izW/xuEmxDnMAJAuwYHAPi3dXr0hTJASPy4/ukH+Hj/e1hOJIA/t6Dm9XE0rcINnghO0c/ghOUw0cLsT2j59yCrd/XUvB6K1vYxitvLj4zNz+PgFx/gRDEHCTc/j4NQ93xVrv/d+bcBSBTkcW8Z2Lg+oX9emP3J9MRzf+oEZj/B/wz83v3k6+bncfDyOP5HGMeHFz7B21D3+dVV+jot8caPxh67ehCVMkBIDNEWqdoCcHMnvt4/g5eL3qounvKv4BNPAQNvombA+MorVGqQx9QB1esRV+ubd+FY05t4+dPnK/5DN4C6j2tri3KQsKd1L2r0FPXHfHz9GC2vUe7BU+/h4BdfGY8kWtC1fy9e3jID7H8Py2/xl0/Kh7LPXvP6XtXgPouD+5+1PPIc/gvjeHv/K+rq24k6vHHlPZzYIshHU6exz795F47hTWMbZ3+LsMduz2uTAULIquOs/z30cX4GPa/P4OCpc6bV+nN/6kRLa+Wj0U8UCoWC30Pf/3AT/1n/H5WoT6Rcy/5zbbaDP2zjS2XHjr8cSEjcWLP6PyTXsv/EH7f+IdCz/C36VSePqb+NY2b/8zTuawQl1C7ekiCEkEePChyyI2asv9MPNQy/tm4KPJbop95b8PUV/noiIeTRhga+4iTQdvwc2la7GsROQvi3Eggh5BGHIXpCCCEkhtDAE0IIITGEBp4QQgiJITTwhBBCSAyhgSeEEEJiCA08IYQQEkNo4AkhhJAYQgNPCCGExJDAv0VPCCGEkNUn6G/RB/4lu6AFrmW+/+FmLNrxOMKxI4SUQlx0SJgFN0P0hBBCSAyhgSeEEEJiCA08IYQQEkNo4AkhhJAYQgNPCCGExBAaeEIIISSG0MATQgghMYQGnhBCCIkhNPCEEEJIDKGBJ4QQQmIIDTwhhBASQyIy8DlMdLehqk7565zMlSGfOa2qW0Y+iqoHrk8J+RbTRjvq0shYcucnD/m3MyejM5I+CN/PmeFDmPDsGkuZdW2oGs6Wsc7+74xEBn3bUVwdMsOWd9S14fiiy/vrtL53SnOoX05Gp/UZcYw9ZdOvPVkct9XZIJBcB6pH6fkywxHVwat/TeWZx8dpzJ3q5y4bQGl6J6isqs9FIPePh/43z5HI21EIwKWFG0Ee07n60a5C8qOb6qebhWMbdxWOXSsx37WTpjLMzwZjTbRjZbrw2sZ3Ct+sKB9zE+8Ukn+ZLuS0zNdOFpIbTxauOpYlfLdxlzlfuQjRz1rdr06cLHxzbbrwmlBvMzcLx4Q2F8OaGLuQ7SilDq9NOL1kpfDNX9zKcEpTvhPlSZE/l3HykU3v9ijv0uttKSuIXAethytB861MF17zmz8l1cGlf6+ddC3DacyVeW6WN3fZKE3vBJbVaycV3eOhe6n/g7bDMmcCEqYdEazgs5g/XYuRffXq53q8OlCLoYt+KzaffA0pHGgwnm7cl4J0eiG4Zx+aaNqRv3wJcsc+7EkqqYnd+9A3dwnzqpOXuShDGngJjWpuazszw21oxSBWzkihWpMZtq+oHAnRz4ndR7FyBBjtl9EzBny4lNLrbacG1clQVS6BiGQQQPB2FFuHcpLEntEpTHfIGA2w+vCWTZ/25DKQ5yR071YzJyV0d9yGfFl5r59cB69HsfU3yJxNY1OH9/wptg7lpLF3CtkBoOdsEJkpRe8EldUcJsaW0ddRW3Q9is4XE/1vbkcS21+shfxzdEJVfgO/uICh5hewXVCCiaYX1MFQwhO2kNJw1iefAw/uQ25eh+qyNyBIO9RQmRCmUsKPaWQ88+Uw/91t9O2oNxJRj+26IlSEQ2oSMicbITXLmFf7rLF3Ciu9Yv6I8evnB/chd0jom7uPu27P5O7hVjS1cyaSsUO4dhQ7DyKgcYcE+buMTyjQRzZ9+kYxINtMDp7xXn+5DlqP/OQhhy2FQ5jI+c0t4/nWOym8uqP4vnCvg1eZxeGpA0VK0TsBdW9+chg9G/bh1WeKrcfjrv+tZPFlPwRnoPxU+JBdPQ7MpnCrXd3/WTyPHqSQDW2wcpgYkyG92IhEBLUMQmPvGEbuHFaFVR2oWa8V7KOIXz/nMDEGTPem8OrAss8qUUZrRffP3Clt7MrRjnLNg4A8tQ6SyQET2hBqb3H1Sew+iukNabw7mYMmn31njuorU2+yON6+jJEjUkl6o7Q6hCS5HpuwjLvCEMn9XcWdTyiFnIx3+2swXZKMUv8D4jmKBWxfikhuVH4XXdEuJCV0d7RhdHIdNvUvY2Q2FXKQcpjo7kLPhkGs7K5YzNeBJPZ0Sagak1G9IY1bA2M4kATwYBWrZGUxjap22fh8ug1DAAAJ057hdCBYPyexZzSl/O/uoxh3KyopYXzJCIlmhttQ3w1kR0tTtMVT5NiVsx0+80Du70JVv/bJPF5D7do4AmhOFfF+p/F/dIx8474UsPM8JrCsyGeDfx4AyAwfLts89a6DjNY6Y95JA2MY1+bQXBr1dWk9re/MlCn0HARTeRUhh4kjaWw6M4VGoDTnnPpfjcIC2oG70QjHs3IGXginNPYOYlOdMNkC5kNORudORdCCTuqyI9anIYXpDW1ovZNCttenIWo+tzD2pqeTcFeytah+qoi6NqSwsqQY4MxwG+Z3BFQmEfdzY+8g+urOYj4nReq92ihx7KwU1Y6A88BLiYc2Cmo488MQWUQU2XTBL0y6Yb2HAg8n13o9khI+HDiE+v4aTC/5r/42PZ1EfvJQsLEuSx08HOiwDlnuHm6hxhTyDUUgveOdNzPcFcqR8ioLeLz1vxklotG58zwyu6OJ/pY/RG8LB6r7c8JEz0+exa0OCeg/b4SX/PLlZHTuvI/upfAeb1TtQE7G6B0JfUjjy8Ug+ZKo3gDc+s18bWL+tKbokqhuvo27oheYy0Ceq+ABtYr1c4RtimTs3HBpR7HzoOyoIeQuP6PiI5s+7Uk8XQPcuWda3WUuypCeSSKcXPvNEeXzl/016DMdHvTKp+xBK6tnNTzaLqufnfbOi61D+cmcTQPC4URXStE7nnmzmD8N4PRhfVugvv+2+tlhe4D6vwgdEiHlPpZfKPhfE9CuZ+Qm3jFddfDK53U9JCjlvSYhXJmyXI2J+pqc/lyIa3JXPyr1ilYJXJu2XfVZ3SsuRY5dyHaUMg/Kc01Oeaepjo/8NTmxnZZri2GutvnNn5LqUI5rcuoVR8vzq35NrmCX11D1eMz1/9WPRNlQxzhCXRiJgTfu3yp/ZiGzKwWjgS75CsLdb8tfEKNV9nY4DExu4h1Bgbm3o1AoGHdJXe7iKmXt8r5vGtLAB6Uc/WxDbK/PHVo31sTYhW5HcfOgFANvHjeHO/vaHXDTn6B0PGXTR641h8Ll3YHk2qceVz/a5eAQWx2JAL8TEWT+FFOHEgx8kDnn9JwhK6XoHb+xNfAz8NT/7u0wzYEK6MInCoVCwW+V//0PN/HHrX+oREAhUuLSjscRjh0hpBTiokPCtIO/RU8IIYTEEBp4QgghJIbQwBNCCCExhAaeEEIIiSE08IQQQkgMoYEnhBBCYggNPCGEEBJDaOAJIYSQGEIDTwghhMQQGnhCCCEkhtDAE0IIITEk8G/RE0IIIWT1Cfpb9L8rd4Frmbj8YwOPIxw7QkgpxEWHhFlwM0RPCCGExBAaeEIIISSG0MATQgghMYQGnhBCCIkhNPCEEEJIDKGBJ4QQQmIIDTwhhBASQ2jgCSGEkBhCA08IIYTEEBp4QgghJIbQwBNCCCExJCIDn8NEdxuq6pS/zslcGfKZ06q6ZeSjqHrg+pSQbzFttKMujYwld37ykEs7LX1QsX54FKmADNa1oWo4aySbxtWcnhlus6UdX3Qp01qu27vrDmFCr14Wx21lG7jLVKl5A/ZzTkanpexwfaK1NWB/qe9znStFz0H//tJZTFvGyC+vOc0uA6SyRKFDLGMctf4uBODSwo0gj+lc/WhXIfnRTfXTzcKxjbsKx66VmO/aSVMZ5meDsSbasTJdeG3jO4VvVpSPuYl3Csm/TBdyWuZrJwvJjScLVx3LWil88xexDsrn1yZWQrXrUWRNjF3hZuGYMHY2rp00j6WlXOdxso6p8Z0oB87PmdP08i0yFkSmissbvJ+vfrSrkLSkhesTrzSH/lqZLrxm6j/x8dLnoGt/2eokpnnnzU2cdH+WlMya0CEmO1bcGIdpRwQr+CzmT9diZF+9+rkerw7UYuiinzfqk68hhQMNxtON+1KQTi/YPO/yEU078pcvQe7Yhz1JJTWxex/65i5hXnXyMhdlSAMvoVHN7d3OJLa/WAv556Ce5eNCRDIIAKhBdbL8NTaTxJ7RKUx3yBgNsmrIZSDPSejerVYsKaG74zbky0peT5kqJW/Qfs7JGL0joa+5mL4IQrj+KmkO+vSXzuJ59GyQ0Cd+55M3sTul1wlIYk+XBPm7DCN0q0Il7Fj0+rv8Bn5xAUPNL2C7oAQTTS+oE0QJTxhhKTWUMZz1yefAg/uQm9ehuuwNCNIONbwohNCUkF4aGc98Ocx/dxt9O+qNRNRjuz7JFeGQmoTMyUZIzTLmHcOAWXzZD0GYCICIxg5A7h5uVaoNABp3BFPwisHaphskc15vmSolb7A5m8PEkTQ2db0U3Vy11duL0uagd39pZHG8fRkj+7aZ3hwsr/D8b8vAhvVI+DWclJ+odIiJ6PV3hQ/Z1ePAbAq32tU9r8Xz6EEK2d6wDcxhYkyG9GLjqgl/Y+8YRu4cVp0VdaBmU6bJGxVD7doezmHcGugVvH4ShNLGTkZrpfbPnloHae4+7gpfGWP/aJy/yE8Oo2fDoCn6Fhm2/hLGKtQeamlkhssxL7P4st/qiJC1Qik6xDh7soDtS0cj1d+/i65oF5ISujvaMDq5Dpv6lzEymwpppHOY6O5Cz4ZBrOxeTcumhNCqxmRUb0jj1sAYDiQBPIj+zX1npnSFqXiSg1gJ7SQ9zhQ5dkkJ40uS/jEz3Ib6biA7KhkyPJdGfV1af0YcK7m/C1X9WoqE6aXwDqFYnsaaNfI5Ge/212B6qR6As3H16pOh9jYMaUnNKXM/B8KpjyM28otptN5JIdubLOFdWRyvO4xbA2MYr4RjRIqgeP3f2DuFlV5AO3A3OjCG8YhsWeUMvBBOb+wdxCZVgA/4tUsMw+dkdO5MY9OZKaysluCL9WlIYXpDmzCh/fPddUne9LSXQqhF9VPOKfP5RcYAAALNSURBVI29g+irW0Cmt74i0YNHmhLHzorS92cxn5MML9zDEElhJ7K6DfVh8BxmPMO7qkz9VkJeN2XWvA7VyOK4Ole95NKrT5ycGU9K7K9Ac9Crv3IyOtuLWLSIfb2YRlX7MkZmp/x1I6k8ZdUhSkS7c+d5ZHZHE/0tf4jeIayYv3wJsiDE+cmzuNUhAf3njX0Jv3w5GZ0776N7KeSkj7Ad+uEhpPHlYpB8SVRvAG79Zr42MX9aM+BJVDffxl1RceYykOc8DnZVeF/4kSCSsXMjqkN3yjZUX5f/qjXxdA1w555pJZ+5KEN6Jgk/mSolr2d/LS5gCOKWQhd65tTPkVz/Ctpfpc1Br/7KX74EGbfRs9PYQhtSP3dO5nz6GopxH1uHbMRhWxKAiuqQCCn3sfxCwf+agHYlJTfxTuArN+5XaoJT3msSwpUpy5Wcyl2TK+664KPImhi7a9Om61C2vi/bNTnlveZxfbSvybnJbnmuyTn016pfk9PqFfSanFebSTlYCzrk6kf2q69RXveOxMAbd0Atd19XpguvbbTf47ZOHlu+gnGP1voXZkKUrR0OA5ObeEdQCu7tKBQKqgJR0x0MglKWmu6g5E194GJQ4saaGDtx3GxjUyjJwJvl2utetZv8q0bOJb+7TJWa10fWLc+Vy8D79peqa8zPCcq16DlYKPj1l/k5a7pbXufx9S6fhGEt6BCTXDnKVnnb8UShUCj4rfK//+Em/rj1D5UIKERKXNrxOMKxI4SUQlx0SJh28LfoCSGEkBhCA08IIYTEEBp4QgghJIbQwBNCCCExhAaeEEIIiSE08IQQQkgMoYEnhBBCYggNPCGEEBJDaOAJIYSQGEIDTwghhMQQGnhCCCEkhgT+LXpCCCGErD5Bf4s+kIEnhBBCyKMFQ/SEEEJIDKGBJ4QQQmIIDTwhhBASQ2jgCSGEkBhCA08IIYTEkP8PoxiRsQf5P0cAAAAASUVORK5CYII=;rotation=11.8;" parent="1" vertex="1">
          <mxGeometry x="118" y="188" width="185.87" height="52" as="geometry" />
        </mxCell>
        <mxCell id="FVQ36FpUcOlVYUAiSAkq-38" value="" style="shape=image;verticalLabelPosition=bottom;labelBackgroundColor=default;verticalAlign=top;aspect=fixed;imageAspect=0;image=data:image/png,iVBORw0KGgoAAAANSUhEUgAAAhsAAACPCAYAAABTTxnBAAAgAElEQVR4nO3d/08c17038Hev7u/3p+yia5vcBpSLZLx1uKsktqCWhWQqDUYBVbmVha0SRDfQ5BExCiIV5LrBqpFlYnTTgDcIUREraqMELLIjFT9CflwQzpc1sddUohG4DcbV7vqP2OeH+XZmdr7tlwFM3i8pUtiZM3vmnDNnPnPOmfWPcrlcDkREREQB+ZfdzgARERHtbww2iIiIKFAMNoiIiChQDDaIiIgoUAw2iIiIKFC2wUZytAUVteJ//ZjN7HTWnlKrcVR0y8ju5vfXtqCiNo6k63aXfawyMjprLW1CO0fT8dT/RlMA7NpRi23Z2O03tqp/OWa7jc875ywN0fV8SkkrSmHMlKcCWMqnmGPo5WMtu7yyF8/BfO5ivbh9h6mM7Ordppyyc/0256iUWV79W87DmjavjspKKZOi6nGPyc71u9anUnc+r29NufuGQvsNm/tMSX2DpQ1a693U9hz7bPU7vK4dt7pwUoa+QTwHt2vHfT+Ha9VUJn72cec4siENTyK9No/02jxSw0BPY4ENl3ZBCmPnNjG+OI/0WgxR6+aMjE59+zxSw5to9t1YJCTU9pBem0d6QkJI29QQQ0rc1hcxUgntKL02j0R1HBGbTsW6X2+d8nlytAs91RfVzy/iyFCXcVF6nE8pac0i6BXy5NtqHBXnZNNHI+f8B+5aB9E8bbc1hTHLsQHZvT6nB+07pNW4/Xc83ob1G8yUjjgytO66l5PsXH9eWnmoK+CAY3ckR4MOpEoUVN9QSL8xU4WexvxyKqpvQAaz3YN4oKVdjOGBeO2txhEZqtLzlqiOI2IXMKzeQM+S+9lH+8x9ni8l9g2KDJZvGtePfDPpGDD5289iKY6IVxvws4/K1zRKqLUdA9jE1h6+VghA5hEeoAqVYfvN2ZXbkDva0aZuD7W2Y2DpNpZ3sF6jfWrwet3Pk0AKy9M1GG/XLuQIzgzXYOSWktb9fEpJWw4ZzE4qnYnWWSY6AGDd57lrajDQUWO/qeOi0QkvxiABgH4OYbRNGB10alg5hvzQ5qkmL2gxM3f2QhCrd8Q1+k3KuBkoAZop0OxQ972g3HC2Hiod4MCMVx4paHuhb0BdDOnFGDB0w8eDrfv1jUwS8pKE7lb1hMISujvWIa8oJ5S8JUMafkVvy9H2GKTpO/kjo5Obztdf0crUN2jXX4eEAUC49ovcT7iOtWsRS9vYKngfe0Wu2bAM0YoRoWXoTIs0tWE/09CVNZK0Dq2ZtqcwVtuP2VXx+OJoi3mYxxQdm45rjm7thwvthlvFz6xD1E6jPmqexYrNm2ZxybdDvhzPpTEOGTKabYfMleh24KQYgUdQr16A2bl+c75W44FNn4WOn7C5sG2s3sFIwwnUC8GTkdb9fEpKm8faHvzUWQZb6o1YOq5kInpSUjZtPEJWaJPaca3TJaHWy0ivXcaZ5+wKJ4Je26cp+2BTu7FLz5k3JkcHMeIW0AA48qx99Jq8pXWYffpNypE2eiLc0CqfU77zwfeWJ9nnPA5mN1UpfmbpR5yuqfypCJvr3qnvyOPUJyifN08rozbOx7AMU7tOmcWx7JF+bMW6rR+zc3GH6bS90zcgHIXUIGPZa0rB9frWgqdjptHd6ElJfapXAhXtunT63uzcKHqq2x2uP3E/sR3tTN8ACNffc6+gXg1W7Povv/vZspRh0fvAZ7CRHB3EiN5JZDDb3QX5lPa0M4nxjUHjJnwhjiMz8/rQVr14oOlBvIM+Uzq9MlbjqBCG8fK2AwDW0TMJXNK2N8ho1tcHCENma5PofhbCcWEM5c1UoeeC17BPGPWnhCgZUKJDxHCmDkAmiS3x/BtkTBQ1RJrCWO0gIJTXkaFRh4tYKXdj2FAbdlQ7NfWpQNKGLQsc1gu1XkaiOo535jLQIu+BmcveN5FihA/hiGWkTOmIC5wv3iWObU2UeYQHAJxu/qiL6U8GI5MyshkZE9MAICFhGob2Q7nuZMB84QuBv3Kjv4ipViMz2bl+NE8rwYJdh5r9flPJ3zm7eeUUlqcBoAbSs0mHBwAhf5MyAPFJVG1zHUbdR4bWIQ1PmvJoq+6Y5albba9dSrklb4nXuwTZ15OyjUL6Dsc+QRlhSnRoT7EO19TqHVM/MLAUxydaWVvzsXgQsmn6ydqPTKLyZtwyBbaOnofH8qY5/djRvgFhVFabA9Bd6RsyMt4ZqkKiwLLaub5BuP6Oh/VgJX+KxO9+ALCOnsYW07WY31b87GPPMdgQK3j5pNBArcNTCKOtSzLdmI2GEkFUnOc2dXZKOu2klWEt8QnJvF1hDMFq27HxSN9uDL+GEa1TDmQdLkPdKxiH2lHVxezXNiD/6Tt5S4Z0Kqp8d1hCr3Ae9adqihv6Xb2DkQY1gAGgDAXCPupUy93U+OtewbifpwCfou3KEObs3Ch6qi9a1iioIyZ2EftSHJESFzo5DtXvUXZtrVCh1j6MN0Apv0bl5jAwU+i5pzBW26UMkzbEkHK78KcHjbpZjSvrJSwBiJf8eeV19JwTb2w260a0YVzLk6jdWhHZNO/uxDIKpV4b9Wp7jfYJZVh3rOgpYNe+w6rUPqEuJlxvEdR3GP1oXj7CEi4NCyNRef1IGG0X1Gk1nTnQK1TRfYPrNn92vm/QHpqL+64d6RtW72AEMK6pumP2UyR+97M7j6Euz4WvfvbR/KvTBv0JYzWOinNx1GuV/HgbMmTItZZ53oaDyCKCtolJoLsLFUNQ5pTdOr8DB9ULIoOtDeDIyXD+dnU+yOtJL9o3j8RoCypqoXS6ExJC6nHlaTU/goHHANzaQVhCd0cLlldjiNalsDwtoXvNSJActSzc6/DIoI3s95vAkoxIbdy8oSOTn7nH25AbDuKSOZOorAbk7zNAkY0aEIbJwxIuDferC6es9SYh4XSh6+Xtk7q2pL7YLDccRCXgOE/oNOxfclqVfVtzotzooraHVQLmniX1WjLdMHwQFpnZjgiEJUytSaZ9R87FUb/2CrbUOWNMD6JCaMfyUBcqHirXbaj1MtKt2hZ1ZG1Jucm3tRppBmbUdRpafizXrD6MqwXrAIy1IjUYX1SfkjMyOhvjGJmUccajPUXbY8CFJLKtErByGxjuM4/oNIoBUA3G3crRVuF9R2l9gla+xifSsJGPvL5RkP1+E6g+VuBomD8l9w2u2+x4n68r9fp2VH3IpZxqUHlAWHha6IJw7FzfoF1TyoOeeP/Qrs9wQfsp8q9FeXoQYyfFxfF+9rHnPY1SF0Oiw5iuwIGDkKyriE2rjI2FaQkMukc9+mr3/KEznVfjEUT71IUrp26rK2SV4w7MWPLq882C6El1xGb1DkaE4enkaAsmnhPf1iluAVHo2SrzIj+btzl0QuBl5ecGaV/Gytxl5QHj70+GqjDQUey0kD/J63FAfFJzYnPO2ZXbkKsPIeR1PqWk9SG/rVmEo5AaAGN+VFgUpt90jc8AAEvaULUf4s16vqDRieJo88xae4uo879ezMO4xuG0oeR1bD1WP9P6Az8LzsJRSLiN5UwGyzdhHDsjo7NxG91rwpSEr/PL+4KC+o7S+gQl0Njqsi6mNfJh7Ru1NTiA2o8II7wAfLxJJNo7fYNputqN6/VtXybJW7K6HiiMygah3QHq6FgVKsNqe50e1EdjIkPr6t/+pnCC7xu0a8qeMRvgd7+d4WvNRrTvIga0IdhwFBKcOsUUxoTgQlsAppu+LgzBKp2lNs8aPSlBNq1XUIayYHoacpLB7KhRqaFnq4y8n5Qwcs7tNydcGlDdMQxM38HYLVlYPKVG3voN3vxakZnSqI1pEcvK/7pjRrl6URcwNYvB22oczdPG8LEXZSjUKOPs3HVhkZXyqhhmYujtc1s7Ugp1sdxGDJf83BzDErrFQBcpfDJkLGRzPZ9S0nqdg0Nbs2Qe9afUtyuGulChTXUIN93kqPpZx0WkZ9S5VL/rC7ThUWEO1bSI0fobB1q76ziGqOVNFfHmKM7Bmn/jYFD9PmG6Qp3/1dd06KMsrzgP9+rFo3W4+em1dSfur4uGUX8KkK/fgAzh2OoIoP6AopdTvtCzVYAwVZqdGzWNLLj2HSaF9AkO6ZfMN3bxJlH5XI25Xehz+KoDByGJazysNyofdr9vUBdantsUpspdeFzfypSXcJ/KyJjQF4WqU/9C3Savx9UFpflvUaWGa9SHQq8Rmh3qG/Q2bXmt2PpGmt/9dEJfoo8MWu8vfvax5ziNYhZB74yEinP9qFy8jLaJi9iqNQ8vKkOpYVRudClDSIA6jCQ8pXecAC60oEK9oKXhSUxpmayLIT0TR0VjC3ogbPf1xBZGJcRhIgmJNbXB1sWQGu5HpLbF2N33sH8E9R2DaN6IIdVnfFdbl4SKcy1qRbqt5FfmTuVGrawkJGYkYNI4fu9iDJ2NLajQ0wjDVNZjaVNUWvkWOkQZljA1s22UsVAOydEu9CCGlPba4kwVKhr7gcXLaPN7fBvyUH47sRuetO6n1X20bxLjwjnrQ/Ye5wOgpLTOXNqaRaj1MlIQf0vCqFttcaY+lx6OKCOI0zKauw965kVbvFkQr2lNL9YyqoshPQPT7wVYr1k9n3nD10rAU5k39aDlMYOtjRpI7c7Xf+j4CWBIWZBu5OkVjKPLqB/tdT87dTEkOlrQXKsFSRcx3jBoPC377ju8+4Roewxo7ELFkN31razViuh9n4QBYdRIb0daPhpiSAzXQH6ofb2EqUUI/UgNxmdikJa2nc483y70DXlD+x0Xkc6boimyb0DYcp+ylLu1bku9NtTvDL5v+DeMwByUG18fhdQQh7y0jp7rt4ENP/ul0NYHB37uL/7vQT/K5XI5H/uVLDvXj8jD9jJUKBHtexkZndcPYYr9BdG+4HNkg4hoB4UlTDk+cRHR04b/EBsREREFasemUYiIiOiHiSMbREREFCgGG0RERBQoBhtEREQUKAYbREREFCgGG0RERBQoBhtEREQUKAYbREREFCgGG0RERBQoBhtEREQUKAYbREREFCgGG0RERBSovH/19S9f3t+NfBAR0T7005d/sttZoD3A9p+Y/6/If+50Psrubupv++I8yBvrmvaT/dSe76b+tttZoD2C0yhEREQUKAYbREREFCgGG0RERBQoBhtEREQUKAYbREREFCgGG0RERBQoBhtEREQUKAYbREREFCgGG0RERBQoBhtEREQUKAYbREREFKgyBBtZzPe+iqoXtf8GMZ8FkF1Az4vi58Z/PV9k8eSLQVS9OIVv7Y71wVrp2SrQtx8o+dp9Shl8eG+387GP3ZvKa5Mll/e9KVT1LuBJWTKYb++0T9pz7Pra3gU8ecr6YNrfbP8hNv/W8OGL7wEffYrNMfWj7ALm/wngaBPGv25SPrs3hao/HMSXY014Rk/7f3B18Q1MfnEa46dD6n5f4C104ss3a0vL1tMku4Ce5m10fd2JF3Y7Lz8kxzuN9phdQE/zq/jwo0/x66O7nTGiYjThM5s+hH0w7RWljWxkH+OvaMJxsYMONaHFV4cdQstvOoHh/1VGQrCGD3+1gPO/FC8Goh0QasJvh57HXx9x5IB+SNgH084pLdgIHcBhLGCl2CHoUBO6zn6Ht/60hidf/BHvn313jz5ZruFDyxCkQpvyELer00g68zSTsq+6z70pVDVPYQEL+PmL1qFLt2NSuW3/4zv9/5XhZesUi930lvKZ/fSGw/SiztymrFMwpjz0LuBRGc+VSPfU9MH0tCtxzUYtfp3oxF9/9arN3J8/L7z5Ls5//B5eHv4xPtuTQ3fCVNHXn2Lz63dxWH8SULz/q69w/Gtl+2dnv8Nbv9NuHFnM976BPzf+Xk37KY4vvYf3tYRHO7GZ6EQTmvDZ159iUzh/52NS2WUXMPnx8/jZSyEAWdz5RwO+VMv+y6Hn8f4fFvAEIRxrfB7vLwkBYfZb/HmlCV3aELSxAfO9b+Ctqnf1et/86Md4q1m4Ru59ZWpT51em8KkayDz5YhAvLxp52PzlNt76OPhioKeZ+sCS90Dkbe/3wbQflL5ANNSE8a8/xeZHsHk6L8TfsSdHse99hfePd+JVPdqvxatDwJ+/MjJ7/iNjrvSF/+5E08o2tgHbm9ELb76L8z6+1vGYVB4rU3hZ65ybl/CzxEW0hAAghJY3jWHkZ15q0Mv+mdO/wPmP/6gHmk++WsLC2Zfy19qo9W7quI+extXjwijg0U7hCbIWx89CncbJ4s7id+ah7KOd+OxseU+f9hv1gUX9bzwvAPZjj/bBtC+UuEBUcLQTm1+fxnzvG+j54ve+G/u3H7yHvw79Hl/if/Hyn9bQssci6yeP/g6sLODlF6fMG85mAXic4z+3sXD8IH4bWO6oaOICUat7U6j61YLwQRO6AChBwXeY/CqLltPAnUXg6m9s2qttvYdwqAr486MscFQZQZnvfQNvrQjfMgQAWTxaeR6HflPa6RH5tdf7YNofyhdsAIA61PzWP3zciAHg3hR+/nETPvs6hGfwC5x/8T182LC33gh45tCPgbO/ME1xGHw8BmhPxXqSx/grgENlyyGVlbZq/+tPhTdVjDGlFxqasPCHb/HkJeDPaMBv7Zr5vx80RkMsmw4fMgKNR7803uL69oNXMQkACOHQ8e/w6J8QLqEsHm0C+I/ynSYRgKeiD6b9ocS3URbwoWluUBkCbvoPP6Ma6spnfbqgFr/+qAnv/6q4tR+BOfoSzn/8XnG/w3D0JZzHAiaFMvr2T1NYcElCu+vJo78DVQf0IOHJV0vm+jp6GlexhP/53RQOO63aD72Anx1fwM/FKUW1U1fe3FJHL/5d27iGFX1NhjICoqwT0dJ+YRoBISqPp6QPpn2htJGN0AFg+A1UDRsfNQ35mULJYr73Pbx/9l1sihH00dO4evwN/PyDlxxGEoK1YHsuyiLYnuZXUaVveR5X9Tl+N1pa47jnP3oX5z/+o7FLqAldZ1/Fz19cAM6+i803i5lrpXJ55rTydFel3vybzjahybRHCMcagbeGm9A1ZnMAdZ+Wsd8DvW+g6kXtM/F3EJR1Py83v4q31G3nhTUZL7z5KT774FVj6u7su/js7II68kFkZ0HpQ3T2v7th2Jt9MO1fP8rlcjnxg798eR//FfnP3cpP2dxN/W1vngd/xKvsdrqun3wxiJf/4TS1RlSaPdt3FeFu6m/46cs/2e1s0B7AfxtlR2Ux/7sp+zcY6OmQXcD/DANX/5uBBhGRX2VeIEpm+W8cKFMlvFE9fYy6PP/Rpz6m0IiISMNgI1AhtIx9ipbdzgaVAeuSiKhYnEYhIiKiQDHYICIiokAx2CAiIqJAMdggIiKiQDHYICIiokAx2CAiIqJAMdggIiKiQDHYICIiokDZ/tsoRERE5cB/G4UAh18Q3Q+N4y9f3t8X50HeWNe0n+yn9syHV9JwGoWIiIgCxWCDiIiIAsVgg4iIiALFYIOIiIgCxWCDiIiIAsVgg4iIiALFYIOIiIgCxWCDiIiIAsVgg4iIiALFYIOIiIgCxWCDiIiIAlWGYCOD2e4WVNQq/3XOZcqQzrytoltGtvSMlpCfEtKtxo3zqI0jaUmdnev3Ps+MjM7AykDJf/75quc1mgrk++zOOTkaxPfZ81XuNpKjzu3SdEyH+i4tDymMmY5v/De2qu6SkdFp97lD+rx6N6Xvx2zG/rhu9ZQcdT6f7Fy/xzVizbP9MQquO8t35H2P13af51fIPmXl0c8Uk87anr3qhchVzuL2nXvWj1x9c+V0LnzlvvrX/dzVw6dzV++WmO7uNdMxzPv6syfOI53IvXb47dznaeXPzOzbufDriVxGS3z3Wi58+FruG9tjCZ8dPm1OV0aZ2bfty/buNeV7Cyx3T651m859/rq/chcVWtd+yt2Otf6s6b65cjr32mw60DzYHkfPk3v7U/42vtM+T8L+gszsNeFzl+sjnci9ZttelTThw9YySuc+vyLsa82zbR6LKDdTOeUfx3O7mL/Xr+Wuvu6SRz/7uCi4PXv1M0Wls9SLU3l4KPhcaN8qcWQjheXpGoy3R9S/IzgzXIORW15Ppx7p6mLorTP2jrbHIE3f8R+tFyyY88iu3Ibc0Y62sLI11NqOgaXbWFYf7JK3ZEjDryCqpraeZ3K0Bc24iPSMVNDZJEf9PoWk8MkQhPxrMpid3MRAR035v9O1bsOoP+Wn3EvjVe5Oth6uQzoVRUhLd1ICNh6Znl6PPBsONA9mGcxOyhjokpQ8ZR7hASTUa+UbjkJqWMfWYyFJw0FUuh1r5rLeXkWh1pjweQT1HcCD7/NH/5LX4zjSYW2vKYzVDgIz80h0WFOE0dYn6WWKsITujnXIK/Yji+UpNwB1xzCATWw5DWA6bM+u3AZOvYIzp4Ce6/bt1M8+5eTVzxSXzlIvXuVF5KG0YGP1DkYaTqBe6JxCx0+oF78yZGvcgIRhedd0Nh5vQ3bsJMvAIz/W4X1leDGOpGu6DJZvrmPgpHgjj6Be70iVQEU6LiQORyE1yFhWyyzaN490nzUQKCOb/ANAdm4UPdXtOPNccF+ts9StazsoC/dyd6xrKMGFPHTDCAZvyULwkcHWRvB5MFm9gR7EcKbOfIwJbZoik4S8JAQfj7chO2Upk4QsHstNRsbEtITuVkvDWY2jeSOGMyetCSLoXZs3BZkuB8fWhlPQ5l5u2bl+89TFatw8FSTIzl3HiHCj9bc9g+WbgHQ87NJO/exTTu79jHOZePVPZl7lReQlwAWiEfQuxvDgnNpJqh1jquCbp/LEJT5R7rRo3yTGNwbVwEkdDViM6U9XT6vs95tA9SFzuWZkvDNUhUSQQY7xZfl1Gz6EI7v4BOVa13UxpGeAZnUOe+K5SUxZbrgj52zWO5QzDzrLqAYAIIy2iUlIN7uUPDRuo3vNkm4pjojduovH25CrD2Fr1GldhrDW5gJwyXpcpDB2bhPjF6TSrtPVG+gRA6QChFovI1EdxztzGdiO1AjnHrFr417bM0nIUINzy4NBQfvsIM8ycSOs03kHfcE++NC+96+BHj0sobujBRNzB3FkaBPji7ECO6IMZru70FN9EWnrU9SOCqOtS0LFpIzK6jgeDE+iNwzgsWfCnbMaR8U54bl1ugUjAAAJibwbg0F6TizXDGYvxHFkZh5RwHtxW5HfqX+Xbd2GUakN/e9KlTvUNZQn58jDdqTXYvrfFd0nkJqQEEIYbRPzaNMOsxpHRWM/sOizY/eZB506EnHJdFNOYaz2OioX55EOa3+3YHlGHVWoi+l518q/YvSicROZHsTyzDzSfcb2zjktoBLOT70JHZkxRiuSo4OlXxercVSc28T44uWiA/loewxovIFZbCptSyyfhphaV9o59EMS68dje/J6HDg1qfZhypRf5FYKvXXGTdjPPjvNtUzchCVMrSlTYsroWpWP65rIXjDBhjAsHu27iCO1g/Ydpks6ZGR0Nio3Pt8XR7mJ+amLIVHdguaNGFJ9Hieiptty2KwMETs99tag8kAReRVuJMnRFiyf9DtsbUiOdhXWGRX7nXuhbvMI5W5b19oIg3HTCLX2YfzmKJYzUn5AURdDoqMFEysZtPkOlL3yYFDWBfSZgndtqDstrK3onZFQYXuzC6PtQgxy4x0k+yLKDaRBnEZRAp6eySSyrZbRirCEqZltVEzKODMhAXP9/q4LF8lR9VzXCn0gAUzlFpZwabhfGZlYc7nBhyVcGr6Nd5zqJ297CsvTgIwuVAyJO17HbLsWkPjZZ+foU1F+y8SaThBqvYzEwxZMzL2SN5pH5Edp0ygHDkJa2jbdVLMrtyELQ/PZuet40CEBwly3Z7qMjM7GbXT7nuctkY/zQEbGxIaEAcTxyaqfdGFUVlsX0SlzzkrHKDzB69+RhLxUhcodvJblh1r+lI4S04P6MHpkaF39u4BX6bz4qtsiAy5ffJS7XV0XyX7tQal5MNYFlEwLqA8cRGHLkMW8rJunZ87J6t/+ppKSo8qUVHrCawrGzzWTwidDVRjoENauONh6uO5/++odjDTEkFqbR1r4LyGucfCzT9l59TPK3/ll4icdURlZX08p6yujwutk1lcs3dIV9Aqhg/K++no/d1V7Rczy+mDQr77q+xXw6us3V3y+PupxXMfXYkv4Ts+69Xo900Z5X331W9fW+ryf+1w8L69XBYvMQy7n8Jn++duOr6hmZhNCGuU1Y6Mu3P62vAapHtexHl3aVV79F1rfruUmvjotlKFdnqxl5bHdsd0K6fzs40d5X311KRO3dOlE7mpeey78VV6++kqakoMNrTGH1XfozTda8Qak7mfpGPLS5YTflrD8V8jvL5TtPPLyrV6UeofnfB65XM74vQqH38pQjnXa/TctCuys/LN0PnZ5K/PvbHjW7d1rgf+mSi7nVO5edW3Nv3iTNH5HIn9befPgWkba71zY/KaF6ftsgwVzWxa3W+vNNWAsONiwaRNeQbDNNfPNldM2wbzavsXr0O5addvu+tsfakD3f33s47P/KuoG7dDPuJaJS7r89rxDvxlC+9aPcrlcThzp+MuX9/HTl3+yWwMtZbNfziNo+qLHPbHSXFmUuNVV2PQZ65r2k/3UnvfTuVBp+G+j/MCFWvswvjFYwM+zB0dboLoj63SIiGjHBPvqKz0FLK9s7qJo3zzSu50JIiIqO45sEBERUaAYbBAREVGgGGwQERFRoBhsEBERUaAYbBAREVGgGGwQERFRoBhsEBERUaAYbBAREVGgGGwQERFRoGz/bRQiIqJy4L+NQoDDz5Xvh8bBfwDoh4N1TfvJfmrPfHglDadRiIiIKFAMNoiIiChQDDaIiIgoUAw2iIiIKFAMNoiIiChQDDaIiIgoUAw2iIiIKFAMNoiIiChQDDaIiIgoUAw2iIiIKFAMNoiIiChQZQg2MpjtbkFFrfJf51ymDOnM2yq6ZWRLz2gJ+Skh3WrcOI/aOJKW1Nm5ftvzNH1eu9Nlsf85lbuX5NQ0bT4AAAe5SURBVKhzXeTXmVbfKYzZ1WVtC8ZWtdTmfVyvh9oWVIymLDkzp3c6rtu5JkddtmdkdOZtsxzblCebPJvSe20XrMZRUduPWbdL0s8++5lHP1NMOmt7NtoUURFyFrfv3LN+5OqbK6dz4Sv31b/u564ePp27erfEdHevmY5h3tefPXEe6UTutcNv5z5PK39mZt/OhV9P5DJa4rvXcuHD13Lf2B7LKp37/HV/efqhKbSuCyt3g7X+rOm+uXI699ps2n8e9GMpdWuktba/+7mrQjvKk07kXnNqr6Zryfo9+ccwtU/hvMI22zKz14Q8WY9tba+Fbhc/fzt39crbLmXrZ5+nR8Ht2aufKSpdOvf5Fee+yq+Cz4X2rRJHNlJYnq7BeHtE/TuCM8M1GLllfeoqMF1dDL11xt7R9hik6Tv+o/WCBXMe2ZXbkDva0RZWtoZa2zGwdBvL6tNX8pYMafgVRNXUrue5egM9iOFMnd1GKkRB5S7YergO6VQUIS3dSQnYeGR6Gj/ybNhHDjKYnZQx0CWpx8pga6kG0nEtbQT1HcCD78XH9CpUOhw6eT0ODE+arhmd6VoKo/5UDeSH+Y//yetxHOmQ8j8fbUEzLiI9k78t1BrT2zYQRluXBPlm0mHkxPm7XbdnkpBxAmfaTwBDN+zryM8++5hXP1NcujDa+iS9raPuGAawia0f6sgRlay0YGP1DkYaTqBe6ARDx0+oHbcyxGoMvanDpqMpj3Q2Hm9DbjiIypIyW+x5qMPLwhCxMrwYR9I1XQbLN9cxcDJibEQE9R3rkFcy0AIV4wYDIByF1CBjOW+40npzouK5l7tjXUMJLmThZpa8JQvBRwZbGz6zkBc4Ku2i57r2vZY8Zh7hgev5SOhu9RPkpPDJEITgWMtPHM0bMZw5mZ8i2jePdF8kf4ON7PebQPUhhzbq8N0e27Mrt4FTUYQcrw1/++xf7v1Mdq7fPD2lTzd59U9m2bnrGBECE6JCBbhANILexRgenFPnAdUONuWz4zIoN1rxiXKnRfsmMb4xqAZOaqe4GNOfjAPHUY0d41rXdTGkZ4BmdQ574rlJTFlu8iPntDlup/UD9oFjtG8eCQyqaa+jcvGypWOX9e813Twyj/Cg4SDgsgbFWGdyB/Vr1uOmMHZuE+MXSg1kU/hkyHrzEstjEA+G+/JuVu7bM1i+CTXoUkY+8kcb/ezzwxVqvYxEdRzvzGWgt70ZaxtwkJHRqbapd9DnO+gkshPs2yhhCd0dMibm5CI7tAxmu7vQU30xr1PfWcoQ8cikjNlR+04zSMlbHNXYOc51nZ3rR8WtY0ivzSO9No9LGBVu7GG0Tczr29IzVehptAk4MknIeYGjMuq3fFJL3wdcEBaJhiVMrRnHTlTHEREDiqU4JtBn3i6MzkT7tLTHsGxZfJosS3tOYax2EA9spnIGZox8dz/sylvY6rp99QZ6YIwc2o5++tnnBy7aHgOGbmB2bhQ91Rftp9vsCO3uEkYLW3hKZBFMsCFMeUT7LuLIUNxfhyZOlWRkdNZ2YavL/zBu2Yn5qYshUR1Hz0YMl7wCH48pH/d5/RpUHhD/VobJ6zmqETCh3G3rOn+YP9Tah3E4zI3XxZCwGZLWh/zFD/NGrsJouxADHNY/RPsuWubkzdMozmtQlNFGbV1Ddq4fzX7as5vVuDoSM+/5QBDtu4gBl0DAuj15SwaW4ohoIzaNcciQMSEGSz72+aHS+5mwhEvDm+gZqkLCR19q1z+FWi8j0cFypeKVFmwcOAhpaRtbwkfZlduQhXnb7Nx1POiQzAu3vNJlZHQ2bqN7bd5/FB7weSAjY2JDwgDi+GTVT7owKquti/yUuXjlphZGZcM6th4LmzNJyEuWhYCrdzDScWznpmz2PR/lblfXRTJ33OKQf6nU/IYP4UhR6ZU5e9ON+px24/b5CulqHBWTB5HKm5px+kq3tSfW7eri60VhtGhtHukZcRGqn332O69+Rvn7k6EqDJiCBT/piMrI+npKWV8ZFV7vy8y+nfeaoFO6gl4hdFDeV1+FVw/Tidxrjq9Nlv/V13KUxX5X3ldf/da1tT7v5z4X68nuVUHL8QzW9mZ5DfRuwvTaq90rt05/f3NF/D7luI6v+Zpex/Xa5vUqdv52cz49tjvmRagfP/s8hcr76qtYzpZycUuXTuSu5rXnwsuUr76SpuRgQ+/ADiv/mW+0+R2otbPJS5cT3uu3/FfIb0yU7TxsOujM7NvCjcT5PHK5nHqR2v9OgXEsdXveTUD5/YCntdPcKcV0aPbl7lXX1rYp3siVgMF+m+ruNZff87CkF/cT25BtO7HkKy//7mlN31NgsJF/nWrt1Wa7V3rH3x2xOdcr/8/HPoX9Ns9eUdQN2qGf+ebKaZsHHKFPceyfrO25uH6IwQZpfpTL5XLiSMdfvryPn778k90aaCmb/XIe5I11TfvJfmrP++lcqDT8t1GIiIgoUAw2iIiIKFAMNoiIiChQDDaIiIgoUAw2iIiIKFAMNoiIiChQDDaIiIgoUAw2iIiIKFAMNoiIiChQDDaIiIgoUAw2iIiIKFC2/zYKERFROfDfRiHAJtggIiIiKidOoxAREVGgGGwQERFRoBhsEBERUaAYbBAREVGgGGwQERFRoP4/j/9WzBOMtrkAAAAASUVORK5CYII=;rotation=-15;" parent="1" vertex="1">
          <mxGeometry x="87" y="278" width="184.95" height="49.07" as="geometry" />
        </mxCell>
        <mxCell id="dgqjnI3ROZZF7E0MbiFd-1" value="" style="shape=umlLifeline;participant=umlActor;perimeter=lifelinePerimeter;whiteSpace=wrap;html=1;container=1;collapsible=0;recursiveResize=0;verticalAlign=top;spacingTop=36;outlineConnect=0;strokeColor=default;" parent="1" vertex="1">
          <mxGeometry x="543" y="128" width="20" height="585" as="geometry" />
        </mxCell>
        <mxCell id="dgqjnI3ROZZF7E0MbiFd-2" value="MCU" style="shape=umlLifeline;perimeter=lifelinePerimeter;whiteSpace=wrap;html=1;container=1;collapsible=0;recursiveResize=0;outlineConnect=0;strokeColor=default;" parent="1" vertex="1">
          <mxGeometry x="832" y="128" width="101" height="579" as="geometry" />
        </mxCell>
        <mxCell id="dgqjnI3ROZZF7E0MbiFd-3" value="" style="endArrow=classic;html=1;rounded=0;" parent="1" edge="1">
          <mxGeometry width="50" height="50" relative="1" as="geometry">
            <mxPoint x="554" y="186" as="sourcePoint" />
            <mxPoint x="879" y="273" as="targetPoint" />
          </mxGeometry>
        </mxCell>
        <mxCell id="dgqjnI3ROZZF7E0MbiFd-5" value="" style="endArrow=classic;html=1;rounded=0;" parent="1" edge="1">
          <mxGeometry width="50" height="50" relative="1" as="geometry">
            <mxPoint x="879" y="276" as="sourcePoint" />
            <mxPoint x="556" y="330" as="targetPoint" />
          </mxGeometry>
        </mxCell>
        <mxCell id="dgqjnI3ROZZF7E0MbiFd-6" value="" style="shape=image;verticalLabelPosition=bottom;labelBackgroundColor=default;verticalAlign=top;aspect=fixed;imageAspect=0;image=data:image/png,iVBORw0KGgoAAAANSUhEUgAAAQkAAABpCAYAAAAp69aKAAARhUlEQVR4nO2d/09Ux7vH3725/4K75irYFuMlge5FLlFL5JrGxG2yQC7G0KYRU9wgheoNQjR8GuDzqZB+iBEhHxVcyMYGm8YSXZplN3GbkMZiUJGvKybWuP0C2Oyuf8S5P5xvc86eM7sLZ5cFn1eyye7MmTnPPDPzzPPMnAPvCIIggCAIwoR/22wBCILIbchIEATBhYwEQRBckhiJGHxN1dhZLH8uwhfLjmBbjdk+SUd9YfF7X3izRdoUZvuq4R6nQbKd+HfzrDAGijuAUT+iQ1JSLAjfawD2bIi2hZj3oPJVI8LLLtgAAH5EN1kkgrAKc08itopncOFwKZNmd+F4qWmJt5b4nxFgb55kIAhie2FuJOx5+ABBPJw3zo6PX9S51GJoMsBeP+9hQhU2TxfGNAURZ+tVyngwq1QWxgBTl+rSmqUbYCqPtg7tfeV2sdeoYddsXzUcnS+AWx1KnYm60ZWdD8KtuQd0116Eb9yjhC/J2mmsM1lura4HdP2pLWtQrxw+mehXU74piBUm720Ou7YVAo9oQDhdVCXYi24KT3VZMd8FwX5lib1YuPdFldA/J/2cu6ktFw0I9+bU6077okrJp76AEJPr/EL8rr/H0ytsmajwdC7KTU/AVJ4lob9IK49WDlFetuzTK1Wmcib+FutX9GJQnxbxeq1u9XUsCf1FF4R7UUHqI6auuSXpu3wf6TpBvlb9HfNd0MmhvY+Yr+9TXXlGD2K+qsunV/TtILYi/I1LuwveZT+io0BlcTqrQgy+kSDaRxtRxtR1vBTA/I9oRiP+WaNubJTVuGBDDA9/eoH2BpfitttqTqL91iNlxQ3+Jq9idpSVquXN0lOT5xF6K7Ty2GpOon3qAR4yiyZbtuxkI1xTa5pV0xSp/s+UMM2O4/9ohItbqBCDJx2cOhz4rBsITssCRrAify11qG0E0D56GcflptldaKp/IZWT9M3qBA581l2I3p+Zfq7vQYt839L/xWDFC6y8hlqe6S+UNiJQrxYta/Mj2sa0g9iSpHYEWtqI6PIIBl91pLhzHcPKVCHydyXmmMfvMaxMAb2nWLe/A73SBChr8yOAjoTwxCx9Y/LYka9Mho1hxX5F/M8IMOWBgwkLHJ0vRONod8E7eQTBo8bhhJ789wulb8Y6se0pAF6tmuiRxVynxPYijeck7Dh8rJBZtfnXmk0y80FoR35FIQYn/Ygusx91JSxrE9PCxx7AoTMURukbk8fCCaCv//UagmkUt+0pAOp7dHphVmnZ41vuAU7xDcXKby+kbxxDmJJRMyofw8qrFBtFbBk4pxtBDGi8BtG9dL0vzljbngKACQXi431onpKvFQ1K7ylmcy4WhG8eQOmHaJ/y4G9M3bPjQcRhx+FjQPM/jCZ5DL4+Nd22pyBJup705ImP96EZR3DYgqNeW/kRuKY8+J7dtB1Jx0RIMt7qMJ788x4m3Y78Cm127wijz3kPKm+50FRjh6FOEMbAqSDaP0olRLAjf6++/h+ZMUAbl9sF8+ck7HlAZwN2dqpJru4ReOXYvbQRgfpqVBYHpbweDFZ0KHG6reYywrgIR3G1lFKIwUkXAAdalnswUMzUXd8jPldQcxmB36rhKPaoN63vQbTNgXx4mHQXAtIzCWbpetKSp6IR4SHjetLG7oJ3dA07T1WjV77vqLinkToOtEw2wn20GjuVtEIMTl7G8V278YxJd3WPwMscU7cfA/5WXC15LmIZeQ8iUSdA+6hf3YNIQlmbH4E+pr/qexCoD2KIX4zYYrwjCPQWaNaZ92DnyG7rDJEhMfiaGrDSkPqkJwgj6N2NrCO69K5jZfTwFbEl4DyWTViD+Hh7L5OiCdsIIsehcIMgCC4UbhAEwYWMBEEQXMhIEATBhYwEQRBcyEgQBMGFjARBEFzISBAEwYWMBEEQXMhIEATBhYwEQRBcyEgQBMHF9AWvXx4vZVMOgiA2mf859F+G6dy3QP/b8Z8ZESabzIV/3Rbt2Aikg8yxXXQ7F/7VNI/CDYIguJCRIAiCCxkJgiC4kJEgCIILGQmCILiQkSAIggsZCYIguJCRIAiCCxkJgiC4kJEgCIILGQmCILhYaCTi8LfUouCA/OmAPw4gHkLzATZd/TRPxPFmogMFB7xYMKrr2rJ14qXIwjVRrs1H1MGNxU249aI3oa82LMeiFwUtIbyxRMBEcqff+CxcS5wHNxZhqHM132Q+SHMr02PEon/zt4wbBy4Bw2OIDEhJ8RD8fwEocWJwximmLXpR8O1uPB5wYodS9v/QP3kWIxNVGKyS/jvm4gTOw43H54qtEW8rEA+huXINDTNu7N9sWQCg3K32UzyE5spa3Bgew5clmy3Y1sfZeV0d6wpuRGbcAIA3Ex049MeniLDj/ys37lfegf+THlRLRRd+8AKd1zPeJ9Z4EvHXeA4nyllhbU5UpyS8DdVfuYHuf4meB5Zx40wIrZ+zhoTYVGxOfN25D89Xc3+l3rbYnPi6Ezj/jeSNLXpx4rYTDQnGxnqsMRK2XShCCNPrdXtsTjTUvcT5H5bxZuIOrtZ15eiKtYwbunBJRA4N2Hwp3FLQhmPitdI1i14UVHoRQggnDujdSl6d2WPtj5fSN31YKYeKRuGRmGYcBpiEpzI691tfhximSvktIaxa2NZcZUfVp2id9mJsMQ7/tyG0DmfH67RoT6IYXwbceH6GHTTpsf9cF1pvX8Kh7vdwNyfDDCakmhlDZKYLRYr3I3L1zBOUz4j5d+teqlYfcfhbzuL+0etS2TGUT13CVblgiRuRgBtOOHF3ZkzjZprXmUXiIYzc3oePD9qA+AJWlXZcR395CCMTcQA2fHh0H65OMQYuvoD700arnaiP8wVdij4iw+/hfKU6dhamIOpiZgyRYSdC3RNK3puJDhyarMBjOf/zNZy/nXk1WEWo+6yBkU2FYnw57MTVM6LusrWQWrdxaXNicGYMkWEYrIbp8Dty0qtdfIKr5W7UKh1TjNpO4P4TVVjWsu//xA3n9BrWAMPJsv9cF1pTuK1pnZlm2otD8kCunMLHASkWtjnxpdIO0TCE/hB1sKPqU7TevqMYzjdPphCqO5i42kn60CwGJVXoL1e90f3nmFWy5CBalXERx6PJl9pwtMSNu3WWtj6jODvVxSKy3j2oyOusLRYWbVwylLgRmamCv+UsmieMNmiMWbh2Cc87r+Mx/oVDPyyjOse8iTervwPTIRw64NVm1ImrKJe/1hAq342vMyZdBmA3LnUsXKvFCXblViZoMcrrXmLkSRzVVcCjSaD/K4N+NNSHDXkFwP3VOFBikzZLvQgp+fvQDwCIY3V6H/K+2lDrtijLuHHmd/QHrgPfnMXYojMr3oT1RgKAvMKc/yOFCQQomzB3Z2zYgU/ReuASblTk1k76jrz3gDrdjrNCCq6P5AEoky7+Gs8B5FkmYXZYuFaLkXevIzIj9qu4E6/m769wIvTtAt4cBO6jAl8bdf9/7FY8Ir0RKsqzMSc9YxgEIIZ6d6QrbMgrf4nVv8AMrThWIwDetaqVucnCtUu4WteFiM0GfO5EwRkvyrNwGmbR6UYINzQbS6JL6Hw3FS9COs1Q3Go57lrf3kbGKDmI1tuX1ncmXXIQrZBjd5GFH9hVcqsgTsaiPJvy+9HkS+0lJVXoxxT+/o0XRWYnVLb9+Lg8hBNsSCotFOUlUDyN3UreE3X/RvI4rn7L7M0sTuD8tAXNy2XkhVRepErcuFun02GGsMaTsO0Cus+ioFtNMj4L1hOHv0WyjqzXUFKF/vKzOHHtoMnKnVlChm0RN2ebK2tRoOTsQ39APbc2Ry6r1ts63IXW23fUS2xONNTV4sSBEFDXhci5zB9tpY8N1Z87UXCmVpq0+9Baty/hmg+PAue7nWgYSKxBqWfgOtByFgUH5DQn7sqrYkkV+nFWDe3qnJr9m/3nxnD3Wi2T34W7dSGMWNDCbGA8vjj9HQ+h+UwIrcNjGq9h/yduOCsz73W/IwiCYJTxy+OlbfNXgHOyHVl8eCrbOjB8GGibkrPjK03mwr+a/kl9endjU4jD/43XeOd/qxMP4e/dQP8n299AvC1kaOOS0CI9F8DGzXVd22ylVdvYOjyWQghGbBXISGQFG6oHxlC92WJklLehjW8nFG4QBMGFjARBEFzISBAEwYWMBEEQXMhIEATBhYwEQRBcyEgQBMGFjARBEFy4724QBPH2YPbuBveJS7NCW4lfHi9ti3ZsBNJB5tguuuU5BRRuEATBhYwEQRBcyEgQBMGFjARBEFzISBAEwYWMBEEQXMhIEATBhYwEQRBcyEgQBMGFjARBEFzISBAEwcVCIxGDr6kaO4vFj3s8ZkE5bd7OpmAq/3Vzg2SiHQDmPWo7ij2Y1ZWOj180bacmr/gifKmKtAF48vCY7eP0VywId7GaPzCfCRmS9V8YA2nIYD2ZGF/aNlk+TwQTHjxaNMsy5OmVKsF+ZUn6tST0F1UJ/XMbLDd3U1OH9trUyIl2RAPC6aILwr2o+DPmuyDYvwgIMbnw3E3BXnRTeGpWF9tm3bWpkK4O+PKYo29XOjqxSgZ+/0WFe19UCad90dRkSIGcGF+aeaJrY4rw2mGRkVgS+nXKjvkupNCpaZaLBoTTGZ0gmWlHYh3a659e0XUqt53iIEhlYMmsZyCnLg+n3NxN1Wgk1MFvx/pkSNJ/BnUk3CdNcmF86UmtTi28dlgTbsw/Qm/FERy2q0m28iNw3XqEWckVUt06yW3qCycpZ8DrNQQrdiPfEqHTbYfkSveFlTzRHfZgllsuhoc/vUD7Rw7mRg4crn+B4HQMQBgPbxXCVc4UtpfBVRHEQ0NXOIaVqULk77KmyYnw5THVAYCyj1wIdv6o9N3sz0G4jpXBxtQxJLvJsVkEp1w4XGqhDEn6Lz79AMH6D1HG3KnsIxeCP81mIYxFluZJGN93AoMnHQk56yULG5cOtEw24tkpKQ6f/xHNaES4Ld1GxOAbYQbdJlDWNoLBVx1SR0qdMdmoGXSZJj7+XcKAySZcHZQ2IjoKVEqx8dD7I/DWyILacXxoBK6fGsS4+egampbXp7tc6Afr2dg8UfeCHuHw8mUct3B8ZOff/NldaKqvxtD4bnzQGcHgZGOaEz0GX1MDmvf2IFqzSbMDAGDH8QYXdo4Ekb/Xg2fdI2ixA3idnbvHxy/C0VmAwLJr0wylqQ5k+X47iehyo/J7Z9MRhIdcsCGMgeLvkD/pR9QOyJttD0f9aDH0JtYhQ5b6IWNsYJ6UtfkRbQNkvQ51swZ6Y2TWk2BCg7K2HnzQ6cGz7rbkVo4NKWJBuIsbsNLgRzRt78MiWHlKGxHY60Hzq0b8M1knJAmNPtjDK8+GFKLrKU/AzVkxGXkMdZDo5tpq2jCIB3gYkzyg+pNM3zvQMupC789hpE4yGUxIFqLuzdtEowtr5omC6JGACfs2ijVGYtduuKbWsMIkxacfIMgoPz7+HZ7Vu7TCJysXC8J9dA1Ny+tZbTLTDsSCGHrlQjs8+H4+lXJ25O8Fnv2pPbJ6eEse8HbkV7zACrsKxmYRnCpAvh2QvajsGclk8sBYB7kgQ5L+s+0pAF6tavYfZn8OwvV+lrzTTM2TTLOe3U4jkh3RyLvc+p1XXrmN7jwLgtVHVMwus26nPGNHoOwJwTqx9gg0VR3o2plw3Jjk+M8SGbbYEei650niqZGVpxuWGQlFuCLxo50giR2lNsKknCAppijxk8njP3N5EpUf811gBrJ5OwRBkAa9lG8w6cW6pPyE5yIM9JDGIEhfB2byJNOBvs90R5bSWJDzky0A65MhST9IE0zM35iBEITcmCcaPaU5NlJpB/dP6m+XvwK8HdqxEUgHmWO76JbXDnp3gyAILmQkCILgQkaCIAguZCQIguBCRoIgCC5kJAiC4EJGgiAILmQkCILgQkaCIAguZCQIguBCRoIgCC7cdzcIgnh7MHt3w9RIEARBABRuEASRBDISBEFwISNBEAQXMhIEQXD5f9aN7nj93K1gAAAAAElFTkSuQmCC;rotation=-10;" parent="1" vertex="1">
          <mxGeometry x="619" y="264" width="106.01" height="42" as="geometry" />
        </mxCell>
        <mxCell id="dgqjnI3ROZZF7E0MbiFd-8" value="" style="endArrow=classic;html=1;rounded=0;" parent="1" edge="1">
          <mxGeometry width="50" height="50" relative="1" as="geometry">
            <mxPoint x="879.8399999999999" y="355.22" as="sourcePoint" />
            <mxPoint x="556.8399999999999" y="409.22" as="targetPoint" />
          </mxGeometry>
        </mxCell>
        <mxCell id="dgqjnI3ROZZF7E0MbiFd-17" value="" style="shape=umlLifeline;participant=umlActor;perimeter=lifelinePerimeter;whiteSpace=wrap;html=1;container=1;collapsible=0;recursiveResize=0;verticalAlign=top;spacingTop=36;outlineConnect=0;strokeColor=default;" parent="1" vertex="1">
          <mxGeometry x="1021" y="128" width="20" height="585" as="geometry" />
        </mxCell>
        <mxCell id="dgqjnI3ROZZF7E0MbiFd-18" value="MCU" style="shape=umlLifeline;perimeter=lifelinePerimeter;whiteSpace=wrap;html=1;container=1;collapsible=0;recursiveResize=0;outlineConnect=0;strokeColor=default;" parent="1" vertex="1">
          <mxGeometry x="1310" y="128" width="101" height="579" as="geometry" />
        </mxCell>
        <mxCell id="dgqjnI3ROZZF7E0MbiFd-19" value="" style="endArrow=classic;html=1;rounded=0;" parent="1" edge="1">
          <mxGeometry width="50" height="50" relative="1" as="geometry">
            <mxPoint x="1032" y="186" as="sourcePoint" />
            <mxPoint x="1357" y="273" as="targetPoint" />
          </mxGeometry>
        </mxCell>
        <mxCell id="dgqjnI3ROZZF7E0MbiFd-21" value="" style="endArrow=classic;html=1;rounded=0;" parent="1" edge="1">
          <mxGeometry width="50" height="50" relative="1" as="geometry">
            <mxPoint x="1357" y="276" as="sourcePoint" />
            <mxPoint x="1034" y="330" as="targetPoint" />
          </mxGeometry>
        </mxCell>
        <mxCell id="dgqjnI3ROZZF7E0MbiFd-22" value="" style="shape=image;verticalLabelPosition=bottom;labelBackgroundColor=default;verticalAlign=top;aspect=fixed;imageAspect=0;image=data:image/png,iVBORw0KGgoAAAANSUhEUgAAAQkAAABpCAYAAAAp69aKAAARhUlEQVR4nO2d/09Ux7vH3725/4K75irYFuMlge5FLlFL5JrGxG2yQC7G0KYRU9wgheoNQjR8GuDzqZB+iBEhHxVcyMYGm8YSXZplN3GbkMZiUJGvKybWuP0C2Oyuf8S5P5xvc86eM7sLZ5cFn1eyye7MmTnPPDPzzPPMnAPvCIIggCAIwoR/22wBCILIbchIEATBhYwEQRBckhiJGHxN1dhZLH8uwhfLjmBbjdk+SUd9YfF7X3izRdoUZvuq4R6nQbKd+HfzrDAGijuAUT+iQ1JSLAjfawD2bIi2hZj3oPJVI8LLLtgAAH5EN1kkgrAKc08itopncOFwKZNmd+F4qWmJt5b4nxFgb55kIAhie2FuJOx5+ABBPJw3zo6PX9S51GJoMsBeP+9hQhU2TxfGNAURZ+tVyngwq1QWxgBTl+rSmqUbYCqPtg7tfeV2sdeoYddsXzUcnS+AWx1KnYm60ZWdD8KtuQd0116Eb9yjhC/J2mmsM1lura4HdP2pLWtQrxw+mehXU74piBUm720Ou7YVAo9oQDhdVCXYi24KT3VZMd8FwX5lib1YuPdFldA/J/2cu6ktFw0I9+bU6077okrJp76AEJPr/EL8rr/H0ytsmajwdC7KTU/AVJ4lob9IK49WDlFetuzTK1Wmcib+FutX9GJQnxbxeq1u9XUsCf1FF4R7UUHqI6auuSXpu3wf6TpBvlb9HfNd0MmhvY+Yr+9TXXlGD2K+qsunV/TtILYi/I1LuwveZT+io0BlcTqrQgy+kSDaRxtRxtR1vBTA/I9oRiP+WaNubJTVuGBDDA9/eoH2BpfitttqTqL91iNlxQ3+Jq9idpSVquXN0lOT5xF6K7Ty2GpOon3qAR4yiyZbtuxkI1xTa5pV0xSp/s+UMM2O4/9ohItbqBCDJx2cOhz4rBsITssCRrAify11qG0E0D56GcflptldaKp/IZWT9M3qBA581l2I3p+Zfq7vQYt839L/xWDFC6y8hlqe6S+UNiJQrxYta/Mj2sa0g9iSpHYEWtqI6PIIBl91pLhzHcPKVCHydyXmmMfvMaxMAb2nWLe/A73SBChr8yOAjoTwxCx9Y/LYka9Mho1hxX5F/M8IMOWBgwkLHJ0vRONod8E7eQTBo8bhhJ789wulb8Y6se0pAF6tmuiRxVynxPYijeck7Dh8rJBZtfnXmk0y80FoR35FIQYn/Ygusx91JSxrE9PCxx7AoTMURukbk8fCCaCv//UagmkUt+0pAOp7dHphVmnZ41vuAU7xDcXKby+kbxxDmJJRMyofw8qrFBtFbBk4pxtBDGi8BtG9dL0vzljbngKACQXi431onpKvFQ1K7ylmcy4WhG8eQOmHaJ/y4G9M3bPjQcRhx+FjQPM/jCZ5DL4+Nd22pyBJup705ImP96EZR3DYgqNeW/kRuKY8+J7dtB1Jx0RIMt7qMJ788x4m3Y78Cm127wijz3kPKm+50FRjh6FOEMbAqSDaP0olRLAjf6++/h+ZMUAbl9sF8+ck7HlAZwN2dqpJru4ReOXYvbQRgfpqVBYHpbweDFZ0KHG6reYywrgIR3G1lFKIwUkXAAdalnswUMzUXd8jPldQcxmB36rhKPaoN63vQbTNgXx4mHQXAtIzCWbpetKSp6IR4SHjetLG7oJ3dA07T1WjV77vqLinkToOtEw2wn20GjuVtEIMTl7G8V278YxJd3WPwMscU7cfA/5WXC15LmIZeQ8iUSdA+6hf3YNIQlmbH4E+pr/qexCoD2KIX4zYYrwjCPQWaNaZ92DnyG7rDJEhMfiaGrDSkPqkJwgj6N2NrCO69K5jZfTwFbEl4DyWTViD+Hh7L5OiCdsIIsehcIMgCC4UbhAEwYWMBEEQXMhIEATBhYwEQRBcyEgQBMGFjARBEFzISBAEwYWMBEEQXMhIEATBhYwEQRBcyEgQBMHF9AWvXx4vZVMOgiA2mf859F+G6dy3QP/b8Z8ZESabzIV/3Rbt2Aikg8yxXXQ7F/7VNI/CDYIguJCRIAiCCxkJgiC4kJEgCIILGQmCILiQkSAIggsZCYIguJCRIAiCCxkJgiC4kJEgCIILGQmCILhYaCTi8LfUouCA/OmAPw4gHkLzATZd/TRPxPFmogMFB7xYMKrr2rJ14qXIwjVRrs1H1MGNxU249aI3oa82LMeiFwUtIbyxRMBEcqff+CxcS5wHNxZhqHM132Q+SHMr02PEon/zt4wbBy4Bw2OIDEhJ8RD8fwEocWJwximmLXpR8O1uPB5wYodS9v/QP3kWIxNVGKyS/jvm4gTOw43H54qtEW8rEA+huXINDTNu7N9sWQCg3K32UzyE5spa3Bgew5clmy3Y1sfZeV0d6wpuRGbcAIA3Ex049MeniLDj/ys37lfegf+THlRLRRd+8AKd1zPeJ9Z4EvHXeA4nyllhbU5UpyS8DdVfuYHuf4meB5Zx40wIrZ+zhoTYVGxOfN25D89Xc3+l3rbYnPi6Ezj/jeSNLXpx4rYTDQnGxnqsMRK2XShCCNPrdXtsTjTUvcT5H5bxZuIOrtZ15eiKtYwbunBJRA4N2Hwp3FLQhmPitdI1i14UVHoRQggnDujdSl6d2WPtj5fSN31YKYeKRuGRmGYcBpiEpzI691tfhximSvktIaxa2NZcZUfVp2id9mJsMQ7/tyG0DmfH67RoT6IYXwbceH6GHTTpsf9cF1pvX8Kh7vdwNyfDDCakmhlDZKYLRYr3I3L1zBOUz4j5d+teqlYfcfhbzuL+0etS2TGUT13CVblgiRuRgBtOOHF3ZkzjZprXmUXiIYzc3oePD9qA+AJWlXZcR395CCMTcQA2fHh0H65OMQYuvoD700arnaiP8wVdij4iw+/hfKU6dhamIOpiZgyRYSdC3RNK3puJDhyarMBjOf/zNZy/nXk1WEWo+6yBkU2FYnw57MTVM6LusrWQWrdxaXNicGYMkWEYrIbp8Dty0qtdfIKr5W7UKh1TjNpO4P4TVVjWsu//xA3n9BrWAMPJsv9cF1pTuK1pnZlm2otD8kCunMLHASkWtjnxpdIO0TCE/hB1sKPqU7TevqMYzjdPphCqO5i42kn60CwGJVXoL1e90f3nmFWy5CBalXERx6PJl9pwtMSNu3WWtj6jODvVxSKy3j2oyOusLRYWbVwylLgRmamCv+UsmieMNmiMWbh2Cc87r+Mx/oVDPyyjOse8iTervwPTIRw64NVm1ImrKJe/1hAq342vMyZdBmA3LnUsXKvFCXblViZoMcrrXmLkSRzVVcCjSaD/K4N+NNSHDXkFwP3VOFBikzZLvQgp+fvQDwCIY3V6H/K+2lDrtijLuHHmd/QHrgPfnMXYojMr3oT1RgKAvMKc/yOFCQQomzB3Z2zYgU/ReuASblTk1k76jrz3gDrdjrNCCq6P5AEoky7+Gs8B5FkmYXZYuFaLkXevIzIj9qu4E6/m769wIvTtAt4cBO6jAl8bdf9/7FY8Ir0RKsqzMSc9YxgEIIZ6d6QrbMgrf4nVv8AMrThWIwDetaqVucnCtUu4WteFiM0GfO5EwRkvyrNwGmbR6UYINzQbS6JL6Hw3FS9COs1Q3Go57lrf3kbGKDmI1tuX1ncmXXIQrZBjd5GFH9hVcqsgTsaiPJvy+9HkS+0lJVXoxxT+/o0XRWYnVLb9+Lg8hBNsSCotFOUlUDyN3UreE3X/RvI4rn7L7M0sTuD8tAXNy2XkhVRepErcuFun02GGsMaTsO0Cus+ioFtNMj4L1hOHv0WyjqzXUFKF/vKzOHHtoMnKnVlChm0RN2ebK2tRoOTsQ39APbc2Ry6r1ts63IXW23fUS2xONNTV4sSBEFDXhci5zB9tpY8N1Z87UXCmVpq0+9Baty/hmg+PAue7nWgYSKxBqWfgOtByFgUH5DQn7sqrYkkV+nFWDe3qnJr9m/3nxnD3Wi2T34W7dSGMWNDCbGA8vjj9HQ+h+UwIrcNjGq9h/yduOCsz73W/IwiCYJTxy+OlbfNXgHOyHVl8eCrbOjB8GGibkrPjK03mwr+a/kl9endjU4jD/43XeOd/qxMP4e/dQP8n299AvC1kaOOS0CI9F8DGzXVd22ylVdvYOjyWQghGbBXISGQFG6oHxlC92WJklLehjW8nFG4QBMGFjARBEFzISBAEwYWMBEEQXMhIEATBhYwEQRBcyEgQBMGFjARBEFy4724QBPH2YPbuBveJS7NCW4lfHi9ti3ZsBNJB5tguuuU5BRRuEATBhYwEQRBcyEgQBMGFjARBEFzISBAEwYWMBEEQXMhIEATBhYwEQRBcyEgQBMGFjARBEFzISBAEwcVCIxGDr6kaO4vFj3s8ZkE5bd7OpmAq/3Vzg2SiHQDmPWo7ij2Y1ZWOj180bacmr/gifKmKtAF48vCY7eP0VywId7GaPzCfCRmS9V8YA2nIYD2ZGF/aNlk+TwQTHjxaNMsy5OmVKsF+ZUn6tST0F1UJ/XMbLDd3U1OH9trUyIl2RAPC6aILwr2o+DPmuyDYvwgIMbnw3E3BXnRTeGpWF9tm3bWpkK4O+PKYo29XOjqxSgZ+/0WFe19UCad90dRkSIGcGF+aeaJrY4rw2mGRkVgS+nXKjvkupNCpaZaLBoTTGZ0gmWlHYh3a659e0XUqt53iIEhlYMmsZyCnLg+n3NxN1Wgk1MFvx/pkSNJ/BnUk3CdNcmF86UmtTi28dlgTbsw/Qm/FERy2q0m28iNw3XqEWckVUt06yW3qCycpZ8DrNQQrdiPfEqHTbYfkSveFlTzRHfZgllsuhoc/vUD7Rw7mRg4crn+B4HQMQBgPbxXCVc4UtpfBVRHEQ0NXOIaVqULk77KmyYnw5THVAYCyj1wIdv6o9N3sz0G4jpXBxtQxJLvJsVkEp1w4XGqhDEn6Lz79AMH6D1HG3KnsIxeCP81mIYxFluZJGN93AoMnHQk56yULG5cOtEw24tkpKQ6f/xHNaES4Ld1GxOAbYQbdJlDWNoLBVx1SR0qdMdmoGXSZJj7+XcKAySZcHZQ2IjoKVEqx8dD7I/DWyILacXxoBK6fGsS4+egampbXp7tc6Afr2dg8UfeCHuHw8mUct3B8ZOff/NldaKqvxtD4bnzQGcHgZGOaEz0GX1MDmvf2IFqzSbMDAGDH8QYXdo4Ekb/Xg2fdI2ixA3idnbvHxy/C0VmAwLJr0wylqQ5k+X47iehyo/J7Z9MRhIdcsCGMgeLvkD/pR9QOyJttD0f9aDH0JtYhQ5b6IWNsYJ6UtfkRbQNkvQ51swZ6Y2TWk2BCg7K2HnzQ6cGz7rbkVo4NKWJBuIsbsNLgRzRt78MiWHlKGxHY60Hzq0b8M1knJAmNPtjDK8+GFKLrKU/AzVkxGXkMdZDo5tpq2jCIB3gYkzyg+pNM3zvQMupC789hpE4yGUxIFqLuzdtEowtr5omC6JGACfs2ijVGYtduuKbWsMIkxacfIMgoPz7+HZ7Vu7TCJysXC8J9dA1Ny+tZbTLTDsSCGHrlQjs8+H4+lXJ25O8Fnv2pPbJ6eEse8HbkV7zACrsKxmYRnCpAvh2QvajsGclk8sBYB7kgQ5L+s+0pAF6tavYfZn8OwvV+lrzTTM2TTLOe3U4jkh3RyLvc+p1XXrmN7jwLgtVHVMwus26nPGNHoOwJwTqx9gg0VR3o2plw3Jjk+M8SGbbYEei650niqZGVpxuWGQlFuCLxo50giR2lNsKknCAppijxk8njP3N5EpUf811gBrJ5OwRBkAa9lG8w6cW6pPyE5yIM9JDGIEhfB2byJNOBvs90R5bSWJDzky0A65MhST9IE0zM35iBEITcmCcaPaU5NlJpB/dP6m+XvwK8HdqxEUgHmWO76JbXDnp3gyAILmQkCILgQkaCIAguZCQIguBCRoIgCC5kJAiC4EJGgiAILmQkCILgQkaCIAguZCQIguBCRoIgCC7cdzcIgnh7MHt3w9RIEARBABRuEASRBDISBEFwISNBEAQXMhIEQXD5f9aN7nj93K1gAAAAAElFTkSuQmCC;rotation=-10;" parent="1" vertex="1">
          <mxGeometry x="1097" y="264" width="106.01" height="42" as="geometry" />
        </mxCell>
        <mxCell id="dgqjnI3ROZZF7E0MbiFd-23" value="" style="endArrow=classic;html=1;rounded=0;" parent="1" edge="1">
          <mxGeometry width="50" height="50" relative="1" as="geometry">
            <mxPoint x="1358" y="360.28" as="sourcePoint" />
            <mxPoint x="1035" y="414.28" as="targetPoint" />
          </mxGeometry>
        </mxCell>
        <mxCell id="dgqjnI3ROZZF7E0MbiFd-34" value="Triggered&lt;br&gt;and&lt;br&gt;done collecting data" style="shape=callout;whiteSpace=wrap;html=1;perimeter=calloutPerimeter;fontSize=8;position2=0;" parent="1" vertex="1">
          <mxGeometry x="1364" y="290" width="76" height="69" as="geometry" />
        </mxCell>
        <mxCell id="oT10BM8QOoswX7G8rz1d-1" value="" style="shape=image;verticalLabelPosition=bottom;labelBackgroundColor=default;verticalAlign=top;aspect=fixed;imageAspect=0;image=data:image/png,iVBORw0KGgoAAAANSUhEUgAABV0AAACtCAYAAACjtN+YAAAgAElEQVR4nO3df2wb553v+08ugiItUuTWSEQVcZTE9k2EWlZSVUhjHztuju/aQGkLkbboOSd1jFUFR5Xb3uuNUEPZlQqfSj02gqjRPd1KYQTDB67jsxvUUqCKxdp7vKkj104TWoll+azT4x+NYm9IOuuDoMVu0H94/5ghOUNyfpAcipL8fgECRM48w2eeeWaeme8888xtqVQqJQAAAAAAAABAIP6PamcAAAAAAAAAAJYSgq4AAAAAAAAAECDXoGtssEW1DZa/wZkAfzqhsS5juR3jCeO3Al3+0pQc30M5AQAAAAAAAAvY7YW/ntFQQ6/2tw8oPtuY+TY2GFFMjWoO4IeT44PatWpA8ZH08icUD2C5AAAAAAAAAFBNBYKuCY119ep8/6jirSHblObuzsB+eO7KRYVXhLxnBAAAAAAAAIBFJH94gURM0amwulq9AqIzGrIOPdAQUcw2bY/GpqPqyJtuDCuw9aAU7dup2oY9GksUeGx+OpJddldUMc/H6rPDFaTTJAt9b/5eWvp3s0MpGPlMju/JpOkYT5Q8f/7vW8ppOpJdN6chHKzl0BDRqbxp1nIHAAAAAAAAUG35Qdfr1xTdsFx1rsmM4QfO948qPjuh+OyEZvova2sm0ClJF7VrVNo3O6H47KiGN0S1dXBGUkhtIxOabJfC/aOKz76gttz47nREtTukSXPZ8b3SSN9Fl/wkNNa1U9HN2fxMbs5+v2vVQOb7+KGV2rUpJ1B5sFennjTTtUe1taFFz6vbnD+saN/rpc+fiGkuky+jHEasQdmpiEbSaU90KnywV0PTDuVwYrmiruUAAAAAAAAAoNpcX6TlaPqM9m/o1D5Lb9ia1u3qmTqpU5l4Yr2G94ZVI0kKqW1nWLr0oSUo6yz2RlTh/qeyY8eGwtrXX++Sn9e1S/b8NLeGVWP22p3szo5Lq6anNLwhqlPTlvTtA9rdZKZ7MizJ0tO3aa16dFlziRLnD4W1O5OvkNZvrlf0imVh1nIMhdXVLp3/IOGvHJo6FZ/tDGSMXQAAAAAAAADByA+63rtc4alrmnNJlPzgsrTqPjOgmhZS3YaLmrtebpYSmrskrbnf/3ivhfMjh167IdWtygY289y7XGHPnr7FzZ8diqBFjb57qhZfDgAAAAAAAACqLz/oGmpWOLcnaI6a+1c69FqtV929wWQsNyg6d8U5WOmYH5cA8nwFM2ODLRpZYR2GwaXHrk3h4LBbOQAAAAAAAACovgLDCxhDAezfkftCKCk2aI6F2rRWPVMRPW97wdSgdmmj1pcdyzQfwbeNixrVyEGXJAXyExuPKmkGkLfmvKBr68Gw1jeVm08/cnurJnTquP+gad0Kj3LgRVoAAAAAAADAgnN7wW+bOhWfXauhhp2q7ct+He4f1QFJUqN2zw7Yp2/o1MxIOP8R/xLUtL6gySst2toQzSx7sr9e0StOKQrkp31AcYXUNjIqde1UbUNmLTQ5b+OgGgHs2h0t2i9JqldPu9+erkY5zGiPGhtajC88ywEAAAAAAABAtd2WSqVS1c6EH+nH9A+0MsYpAAAAAAAAgIWrwPACC9B0RFsP1iu8joArAAAAAAAAgIWt8PAC1TYdUe2OqOWLeg2feEFtxFwBAAAAAAAALHCLZngBAAAAAAAAAFgMFsfwAgAAAAAAAACwSBB0BQAAAAAAAIAAEXQFAAAAAAAAgAARdAUAAAAAAACAABF0BQAAAAAAAIAAEXQFAAAAAAAAgAARdAUAAAAAAACAABF0BQAAAAAAAIAAEXQFAAAAAAAAgAARdAUAAAAAAACAABF0BQAAAAAAAIAA3Z77xZtvnatGPgAAAAAAAABg0Xni8UfyvssLukrSVxofrnhmKu3szPtLYj1uZWxDAAAAAACApWmpxH3Ozrxf8HuGFwAAAAAAAACAABF0BQAAAAAAAIAAEXQFAAAAAAAAgAARdAUAAAAAAACAABF0BQAAAAAAAIAAEXQFAAAAAAAAgAARdAUAAAAAAACAABF0BQAAAAAAAIAAEXQFAAAAAAAAgAARdAUAAAAAAACAABF0BQAAAAAAAIAABRB0TWpi9ze18rH0X68mkpKSx7TrMev32b9dv0zqxi97tfKxA3q30LJ+Olt+tor07k+NfFWfUQY/e6/a+VhkCtS38rfnrH6Wrs8VcOOXvVWp6wAAAAAAAItOoVjj7mO6sUBjkLeXl3xWP3vsR9Irr+nykPlV8pgm/lnSo1s0/PYW47v3Dmjlf1uut4a26J5M2v9HL534nkZ/uU3D22rM+X6pv1SH3vp+Q3nZWkySx7Rr6zXtfLtDX652Xha9LfpFphxn9bPHvqdd+pts/QIAAAAAAMAiZo39ZC3EGGR5PV2T13VBW7TuUct3NVvU8qhjCuuMavmrDqn/v5o9CWf1s2eP6bm/sBYKUKoGffeVLTr2+4XQexkAAAAAAADVUZ0YZHlB15p7tVrHdLrUR+FrtmjnM7/TX/7drG788m/1k2d+qO/6CtjOt1n9rOBj6+mhAKzTcx9Htw+/YMxrzvPeAa3cekDHdEzfeCy3S7PbMuHHjQ+vZj+8d6Dg0AOFhpV496fO3cuNLulOQxjkDrWR03XdlocDOhPMagIAAAAAAMBNFWKQZY7p2qDvTnbowrMFAkw+ffn7P9RzP/+RHu9/UL9YkMMKWIZQePs1XX77h1qdiYwbfvLsb7XubWP6L575nf7yvxzTDUlGEO57+vtNf2OmfU3rpn6kn6QTPtqhy5Md2qIt+sXbr+myZf2dlwl/ZvVa/+/03AajTN+dklHGb7+my69s0bH+X+pdSV/esEXHTrxrKdtZnf75Q3rpP+TXxRu/7DXq6dvWuvC97Pi7yXf1YWZb/41eWndMo+mg7HsHtPJZSx4ml+vv+39X4TIAAAAAAABYSsyOiyW8z2e+Y5Dlv0irZouG335Nl19Rgd6axbiqDxdib873fqufrOvQNzPR7wZ9s0/6+99mM/vcK9mxJL78Hzq05fQ1XZOk5Lv6+9NbtNMypuiXv/9DPefjZx2XCRfWHc8IlKfvWnz5+5bxPh79qp5L17dHt+klHdBr6cDpe7/VT9Zt0Nq8YWCTOnPid7btYtSFh/STKbPO12zRdzPbukZrNz2UGd7g3alj2tK3LZu2Zov+c99DAa47AAAAAADAUrfF0hnutRLf4zM/McgyX6Rl8WiHLr+9TRO7v6ddv/T/8qJ3f/ojXej7G72l/6rH/25WLQust+uND69Kp4/p8ccO2Cc8k5TksY7/fE3H1i3Xf65Y7mBXeDBlSeYLyw7oWOaLh/SSpHRw9C+nZvXdRxv07tQxPfcXrxUY0yOpD08/pPv+yv7tPfc9KJ24rhtq0D0yhib4xs8tMzxjpr0srd7AC70AAAAAAACqYb5jkMEFXSVlAli/9xGQlKT3DugbP9+iX7xdo3v0H/XcYz/Szza8tqDGdb3nvgelZ/6j7dH/LB9hcbOHaiaIl7yuC5LuCyyH8JQ8pl1br2nn269pWJIxZMTfZibf89UN2tL/W737fen0z7do3fcLLaRG9637nT78Z+VX7ZX3ZgKuow/8jS6/bcxw45e9evz3ZtqV0t9/mJQezSa+9nuGFwAAAAAAAKi4KsQgyxteIHlMP8t5kdCZE7/Tlgf89Ogz3xSWeVzbeNv8T54tbWzYinn0q3ru5z/KjttZbFpZxvWU9O7fWXtbYl6YPY6Xpz+/99vsuLqSOZjyMY3u/ltdsA4BYGPcULDXT7MOb2hQpjfrfem6b+wLacsfeCgzjqwx+ZhGrT1iAQAAAAAAUAHViUGW19O15l6p/3ta2Z/9akufn6EFkprY/SP95Jkf6rI1ovzoNr207nv6xk+/6tCztLKOFVwX42Vhu7Z+UyszUx7SS5MDavGMLafTZpf73Cs/1HM/z/ayNAJ+39Q3HjsmPfNDXf4+j6AH7tFteknfyw4R8cyWvHF1v7xhi479/Kpe+ivn8r9n24DeUq8ef+ybme+ey4wbW6OWv9iilc9+0wzoPqTnnnnIOe26Dv2i7yEd+30A6wcAAAAAAHBLOGbE0DJchpqUVM0Y5G2pVCpl/eLNt87pK40PV+TH5tPZmfcX5npkHnV3qxCQ5nkbvndAK//bcr01tKXAeK4AAAAAAAAI0oKN3RXp7Mz7euLxR/K+L294ARQpqYn/ckDHnvkqAdcFxexm/hcEXAEAAAAAAFC+gF+kBbukJnZ/T3952vLVMz+sytAJKOzdn35T3/i5OZTEAnqBGwAAAAAAABYvgq4VVaOWodfUUu1swNGXv/+aLn+/2rkAAAAAAADAUsLwAgAAAAAAAAAQIIKuAAAAAAAAABAggq4AAAAAAAAAECCCrgAAAAAAAAAQIIKuAAAAAAAAABAggq4AAAAAAAAAECCCrgAAAAAAAAAQIIKuAAAAAAAAABCg21KpVMr6xZtvnatWXgAAAAAAAABgUXni8Ufyvrvd74yLzZtvnVsS63ErYxsCAAAAAAAsTUsl7uPUgZXhBQAAAAAAAAAgQARdAQAAAAAAACBABF0BAAAAAAAAIEAEXQEAAAAAAAAgQARdAQAAAAAAACBABF0BAAAAAAAAIEAEXQEAAAAAAAAgQARdAQAAAAAAACBABF0BAAAAAAAAIEAEXQEAAAAAAAAgQARdAQAAAAAAACBAAQRdExrralFtg/HXMZ4IIJ19Wm1XVMnyM1pGfspINx3JrkdDRLGc1MnxPR7rmVMWReWtQhJRdQzOuM9jW+8W1Tbs0Vils+1R1qWlm9HQQir7oExH5mm/KpdR/4emq52PpSE5vsdju89oaD721YXCth8Y+/riqGvsF9UQG1w8bUBssEW1Xu00nCWi6ijzWLiY6oujAMoBt5BFX19usXOgCvI+36yCzPVeRDHPulrZc8Lk+J4Kt9EBnidOR4q7rs4RG6zOPuXVBld+G1TZfB2Py6wf5f92sLEfW2wuwGNA2UHX2OBO7Vo1oPjshOKzA1rTt9NX5lzTTb+uuZ0T5rQJTa6KqLHCO0VF1iMRVceOyxo+YazHTP9lbbU2QNMRNfat1KTTeiai6mjYqejm0UxZxGdHFb4Sq1IjZjZA1+/TGrkfzJIfXJbaByz5fkFtoQpmzausS0qX0FhXr873jxZdLwCbRFQd1WqQLGpaX1B8JKyaKudjYWrU7tkJ7W6qdj4WEy5Qq8FPMK+5e0Lx7sZ5ytESFArrQKXPW6rM1wXnLVAOFbdA2v+y+VkP6ourJXEjRv7WY+Gdb85oKHO916lmz7rKOaEhXW6dai4yZTrwrhUrpetL5Di4mMzX8bip04ifzHcAu0Kxn1NXNmomHb86FNb+HcHU2zKDrjM6dbBew9vTJ/aNerq/Xvvf8Cp0j3RNnbaDXPP2ToUPnqngjlqZ9UiePqlo+/ZMZa9p3a6eqZM6ZbZTsTeiCvc/lTmI2ddzRkObIlpzaEIHWq17S0ht3T4aselIBe7eGA3Q+jd6tf9gr049mZs3u/CK+Tvr8irr0tIlNDdVr/C69Ho0an27dP6D4k6YYoP0SFscEhrrCuiEoCL7XzVQJktBYL0MElF1LLSeKwvVdCSgi+uExroIbN+6gjsGcy5yK6DNhok2yC7xoc5rpepu4RsCpZwLJscPa7/lOrkYNa0vKL5XGumLateotG+2uMDtkmuzFus+6SPfNes2VjhWl68ysZ+cOFvTWvXosuYCKOvygq7TZ7R/w0att+yI2ULP7ZZvPiY/OOORroDr1xTdsFx1ZWW21PXIf0zP6HYcUcw1XUKnjl9Uz5PWniaNWt9+UdHTCaUDttmAnqRQs8Ibojo1nc5Tp56u9B028/HamLUrtetJVkJzl+rV017vGnycu3Ix+Ly65Mm1rPO61xt1s2P8gsc2Mv7fdXgmky5vm7kxu66PrBi13USwd1u3nBznDMlgPcCle6TEBu3prMsqNH/S93b1O4xC+nEV6/y5ZZvTEOQ9wr1HY9NRddh+y7q8QhcM9mE27I1wzhAc1vU0f3ts0JIukf1t+7JCahtZq1OeZeXGXI/R5ZpJ9zKbjqh2U0RRRbU1s2yzHMfNvJjl4/VIQ3b7u9Udl4Y4b1iJ3OFRPsxJUKEykVy2g70uWvNb2f3A/ihW/m/l7xe5y3Xt/eG4vsrb92158PmIi+NxRVJzd7e0t5yhesx6sumautI9VxJRdTT0ar8uatemnDo8GDXrVbouOm9Tt/Uv67hk2c8K7xe5Q/fk7ze5w//M5f6s237X1Kl9GixraB3j93dqbme6p4KR560HpWjfzuyyCxzn8nsx5hyzp3N7neQeY/OP5a5tV+5xNpdL/c+t54X2YcuCCuynufVNAdQp+/oXfTwoor44nmNKCuQYXOBcJDbYosa+i9LBXkv5mOs8HrHsQ7n1oMh6Uui46LjfFG4Xc9nawZynx2zDWuU9OVbgEcLB7Pld/rorr95m18PlvCO37HPa/0LtRLYOpMvT6RzL67erfR5TZn1IX484Hrvyt4FXfXHf573Ogcqpz1YFjt2zBXr+Wa5XfJ2/LOA2KP98s4ptUMH6a11+obpU4XPCPIXrqdPxIvud/2Hwij8XzL2+9roGLOD6NUXbw+qZupbfJjpxuH52u06Wim2DIzplm+jQBrjsY0710bGNqsg+6fabljqeN+yjW/tZwrHEGsOaF+6xn7zhTaYjZv694nN25dx0yJPKcfLMe7lfOTv7cir0nclUwvpdfDL17dUvp97J/d86r1c6m3jq6He2pb49Fvefr6DXw8zDS2dTqVTqXOql1T9IHY17pbOmyXrnxfS6WJaTTZxJkxj7QSr04jn/61BonfykP/tyKrTaUr7xydS3V+fn2zp/Nv+FtpfhnRe3pUKrs3+Oy3Phfxt6lXXKtq2yZesjnW1dcreXk3Opl1Zvy68bqVR+PT97LvP/Oy9av385FbLMlxj7ga0c03myrV+B+bPrkbMf2equkd9sORSqmynbcqy/9c6L23KWlZO2wG9lPpv1LZSzr+Xm21b28cnUtzOfC8+fWRezfmfXLXebn0u9U6hu5u4XPhjbxKHc8o5v5nrZ6kg8dfTF7OfE2A9s0995cZttn06MTWaPratz6k6hupc3Lf/Y6roOgZaJy3Y4+3JOXczOV9n9wJ6n3N8ylp1dl9zt414+7utr237xydTRs2Yax/pQIK/fyZm30PE/vb8V0bbklYNN/v5uzJ9/DHDaps7rX85xyTzOWOa37z/m/NZyKFR33Lav7/0u/5jpyWM75bZR+ce53DqQW5a5efI+FrjWsQK/n7NCjvXfqC/Wsimwz9vKodB+WqDNKbtO2aeVfTxwrS8O55i5ij4Gu5yLpAqVrTl/3ndO7a13PSmlHBzbr7z5U6nE2XPZ6wpbueXktcA1RqF9xLbutnMNY56jY/EC5VD4XNK+HLdjhbWM08cup/PBIn67KucxBfabYupD3rHPbZ/1UV98pK9cfc5nP3bnbztrnfR1/rKA2yD364z5boNSBeqvV12q5DmhVxvtEmuwrYd3/S5YJr7PBXPbI69rwLwfSh39jjFvYuwHPo5F7m2W53VyAMcat/NC27Zwup53aqPyyiXAfdLxN53OJ3K+D+hYkndcKFJRsTsfMZzs/9Z5fcR+MrGJ0tbHaT0CeJGWi1BYXe1RjYxHjfFA9hY7tktCY13GmKluj7FXXkhtO8PaPxrV2GCvzvd3L9Dxiix3nnZEMz0YvHpIaUOn9qXLNxRWl9sj9E2d5rZo1G6XxwSau7Nj8sZPdOr8jio/ItD0lIYV0ZHxqJ7vW6lJX2PdGXf0Tj2ZXhfjDqHbXUTjTtNh1Z2YcBnLyNJNvakxO7xEt6U8C3Vnbx/I3PFrfjIsKayu9HZzmD+73xh1OHq8wHjAeb2qG/V0vwre8UnrOdRpHxajmDuYqs8eC0LNCm+QZZiNkNZvrlf0iv23ew5Z7uiFwurK9GKOKTplKYf0vmodGqRAj/Fs/W5Uc6He5E2dis9OqOvKTu87kpY7ssWOXdyz01pH7I801KzbmC3XRFQjB8O2elvTGlaz8ocpMeq69+MV+WUnNXcPqMdp/gqUScHtYBtepsCQHpXaDwqx/JaantLwhouauy5l7rBat19Tpybb3ReXv74JjY1GbfuTQmG1NZl5daoPNvl5qWndrp5CT46EwjowO6GZFYe92wWzh1fjle2KFzuuWe5dYcdt6rL+ZR2XjN+w5qP5ybB06UNju5t139YOND2l4cxdeu/t63+/C6ltZELxE8s14tn7zNKjeLbIMVndnozJK8uQ2vZ2Kpz5Wa9jgY865uPJnEL1/9Txi/bt73t4JwtbfQu2Ttl/p/TjgXt98XmOWcQx2N+5SCHWIbNylFBPStlv7O1iAZbjYE1To2oyy7WWW5HHekm56x47HJFsy2xUW2vI33mHm/T5aOY9FrlPzdXbx0+0HpuK+e2qnMdYlVAfQmHt66+35Mt7n3WtL27p56k+O8vu95mxBHN7YLmcv9AGFd8GefE89gR8TpjhVk+b1toemTYejV5rbPdS27RizgULDMng/xowpLYRY96a1hdcYzl+2izn6+QAjjWS8toAz32s8PV8oTbKrgL7pOdvZsVyzjOCOpbUrci/fq+m5u2dUt/rGhsf1K5VA/6vY8z9Iz47YfbwDWbIntsDWEY+y1AAzd0DWtNgvIxot1cjbh1CIBFVhzmmabxag1hb89PUqclVLdp6qVMz3R4rYqZzCkKtuT8kyalS1qvuXqlGK6XjHyop9x3Hzhz0WzJOoN5YuzBepBEKa1//STW+MaPdTfObH6OspXQDn65TXmPKrLk/JE1HtEudmsk5SYjujSnZ6tQgTGhmxR41bmpRtH80v4EJhXXghNSxqUW7JPUcsgQzzDofzcxcr2GnDN67XOENKm7IjXuXZ09wLJIfXJamompsiNgntCckVfruQkh1q6zbyZ+6FWZDef2aoooq2hC1z7BhucO+E1LbyKjUtVO1fTJe9lZwH5nRUEOv9iusSa8xiJo6FT+xXB2bdqr2eKdmynlxwHTEuGGSEVaXlBliZV9egoTmLknRg+b6WPRcl/vmc1ymkyDLxG07mDfbprJzh/sdfifA/aA4xnjPdXv9zu+0vh7LcaoPeXmR9k+1aL/t+3oNJ6TmkH1eo2zrNXxiwv3COhTWgdn7NNTQq9qDPra5K6dt6rz+5R6X6lbUK+w0X8G6bxyLoh8kpCav7Vvcfpcc36PGvosK948q7noD2TihrRts0daGqL19KEPyg8vSqrXOxyXPY4FHHfPMQXH1v+b+7PlP8SpXp0r5zcx0r/ri6xzT/zHY81ykFL7qSXD7TUFNnYofMgKERnDyBbWFjOWueTJnAfcuzwQDim+THZYplXDekcu4uZw+J469EVXPzgmXdMaxaa7o367SeUyGv/pQsIxN5e6zrunvXwj1ea16pg7rVCKsNsUUVaf2uR3zM+cvtEEGv21QpRV7TmjnXs+NQOrzpxNqa5VOHZeG9zb6SOe2nYs4F5wnvtosx+vk8o81Tmkc97Emh+v5gm1U/tID3Sd9/mb6d7dqwPKblTqWVE8mphAKa1//HvOl9d7nk4ViETWtL2jySotGxp8q+zyqvKBrgROa5OmTiq7argPpz+OHdb49LPW9rlir2eh7pUtE1WFG9OflQOpjPZSIauRSWD2K6Mh02KjwrumsF3DpjWSMCVq3XZJCqkvfIcvU+5iiUyvVFZIUsjTEC7NOF61yL9byKmtD7HBEa9qNu8pPj4RV45Xuemm5qWl9QfHW9F07KZzbeITCOjAbVrpn8tChCe2+N1vnD5j5GGo4XFoGnFy/pqjyT2pq7l8ptW9fGAF6n+auXJRWyAy6dWpfURcIRgPWpvQ4ataAn/UiZUJx34s0t6nZW0QbSrhomY4YY6jNTmTHzNx0zZjmePFo1OGenSWcGBdaZuJDnVduELNSZVJoO4Q01rVTczsnFB8x5ooNtmikyFVz5bAfFC/n+G2euGiF0/yF1zevHUhzqw85y63bUK/hvW69k+wn2HHfh2LzRp7Z6zXq5+Ld4bcLb1Pn9a/occklGJM+6crPl3X7+tvvbCens/7bv+buCcW7zd4NUwrmwvdSzk3c69cUlbJBfNdjgUcd89VWFln/V92nGqmEMYirUacK/WaR9aXQOWZGacdgz3ORUni2GeXvN56aOhWf7TSPiXukEy8UOJczlfw+iELnh6aSzjvsatZtVLjvjGLd0qmDYa3vdpvbLMMn/f52Fc9j8ni3k+dzytj6Tgj3fda7R5Vr+sSHPs6BKl2fjbEER04ntF4npc3d7uWdOX+hDbIp8XotWMWeE2Z5tU016zZKe2NKrpOi2qh9IT/pCu0fpZwLGr05m+chFuHaZiXcrpP9tcG5x3P398/42McKXc+nA685bVS63lZsn3T5zYyE+bSvLQAZ7LFk/l6i7if2M6MjfSvV0x61BE39xYwqobzhBczhA7ZaBqI/0md5NGI6osbjG7Wvu1P7+i9n5/NIZzzS89T83bnyWg/NaGjTSYX3dmr33k6d32F2M/ZIZ3RrHrS8iOGw5REi87GSHZaBlw9Hso8MmHe2dm0q8NKgwYX+9uiExsbtLzB4vk/+X0BVAveyzt7Z2d3dqclVET1vDhHgmq5prXqmLI+AKaGxvRFpc7Ovk9D0EAtdV3Zmt+F0xPbiproN5r+5L4ubPpNzN7cEBw/bX3C1I1r40Zmmteo52BvQ8A9Gw5d9tMX43XJlH7+SNB3R1oPmY0ihZoWV3Z7eZjRkeRwi02NWknEyYj7aUmqvPvNxvvjOa2os8iUWRk+A++w3cNITzQHKtw5aX7YSVUzGY9PW44hvofu0RlGNWMoudth6B1mqXJk4bQfzbvW9ysx36mApP2rhdz8oivH4ur1evm7ryWnntL5Gjyfb9ktENTbtUR9sQlq/Wdq117ldiA2aQc8iHxvN/icmcDUAACAASURBVIT5qM2J5Rop+mVcbtvUef2DPS7lKLA/pY8r682hHepWuW9fz/1uOpIZmqG0QJf5GNfsqOpGy3tLrTE0RU5bNmqpTU1r1eN6LPCuY+6KqP/pfdQ8j6q5f6VkeYQ0OT7osp85LLPidarc+uJwjmlkvuxjcMFzkVJ41hPv42LJ7ZUpOR7J7guh+7TGstyo5Vwu73zNbO8yL/lIRPV8n/sLX/OXOaOx8UQJ5x0FpIdf6zqs83nXO9YXuJp1XuYjxJ6/Xd3zGDuv+mAOJ9X3um1fHbG2+eXus27pPc+BKl+fJfM65Pignu9baXu8XpLr+Qtt0EJS7DlhDq96HmpWWCd15PBJ+zVokftH8eeClmDmPCrYZrleJ3u3wXUrPI41hfLhto85XM87tVHpNJXYJ11/M2NGQ5siWnMov10I5lhiDPFQ7JOr5XCP/SQ01tUrHerU7u4BrbHM55ouEdVQzosStxbzEnUXZQ8v0Nw9quGunaptMD5nIu+JqDp2GN2gaySptduYz+xV5pjOFO0r0M05oMcciloPc6Ptbx8w7wiZXZUbIkaPH7f1CIV14NA11Zpdz/PuGjd1aqZ/jxobWozPOY8617S+oPi6qDo2tajWktdMmbpp6qzesAySdLzXsv3cu7oHwq2spyNq7JOGT5jB8O4BrWnYqQ6N6kCr2zZq1O7ZAWOc3PTvtA8U3Z2+udvSY/ve5Tpv2Z7h/lEdaJKkpzSsndlHRNrDzmNr+tW+0XhL5VTub+Vq1O4TnTn1rNRtZg7BsCm9/4Y1eSgsjZa0Bhk9m6XnG1rMEzAjb+kxYNtGBjTXYD9eOB8rQqq7lN1fje3dmJnWNvJCeRlNy93/QmF1tRuPhhj7eaFHGLarp6FXteZJQLg9bHkM3vJ4rjXvrco/jmTWyyuwmK7f2bLrOTSgnoPWHtaVKhPn7fB0v9SY3h8VVo/fMbGc+N4PipM+9mf32QFNtkcdeuU6r29N6wuakXX71Wv4RFg1TW71wS79+IvtETNLe2I7BpUjFNYB2wo2ZreXWefyNbpuU6f1D/a4lLci+ftTTi/e5u4JTQ62OG9fr/0usDY4fx9s3t4pbdqp2j6zPDwXYbZzO9KPZtZr+JAxDpshXdbOxwKvOua1Dv7rf87xu6lTk+ljp6Rw/4CGN/S6jiFejTpVen1p1im3c8wAj8G5xwFrm+Pv/Nq7nngeF0tur8w83290Rtil9O+bj8aGzMcrLdPsPXsbtftQOLsPbOjUZH+9oldcfqwpf5k9hyYkqbjzjrz23zwuPxlW9OBlDe/NrXz1Gl5xRrUNvek10eRsuny8znmqex6Ty6s+pI8r6f07f7uUu8+6pfc+Bwq6Pucdu0PKBNJ3tVuerkxzO3+hDSqiDaq84s4Jc3nVcyPobDwmHSoiXW4eiz0XtA+FMt9s+W1yv072aoPzzgt8tgGO+5jj9bxDG2UurxL7pGO7aBEb7DX2vR3WITrM895AjiUJzU2FtT7QRxM9uMR+YoM7LUNENmr3oZWqzfQAdon9hO6TbDHI4GJYt6VSqZT1izffOqcnHn+k/CVX2VJZj1sZ27B0yfE9xl2pBXIyAlTD/O4H2cfoK3VzEAhMevgKp2BX5lG+csbyxZLnWU84LjoquA8aj8zWVbqjQtV414fYoPFCr+q+QNlJJepz4WUu+fP4Jd8GLZVj31I/JiEIQRyvlkrcx2k9yhteAAAAmI89px9PBxYy4zHVsONQOcaj2dnhjoBCvOsJx0UnQQ11s7h41ocAH+WshErUZ9vwEbeMpd8GLZ1jn9FLcNemYN7gjiVoOmL0wl6qN4gCUvbwAgAA3GrSg8pnlfKSKWA+pF+sk2V/9Dr9cg3LDAvosU0sFN71hOOit9hgi7YeDG6om4XMsz5MR1RrG/d/HoYjK0JF63PmTezW4SOWqqXfBi3pY19Tp+Kz1c4EFizqhy8ML4AFi20IAAAAAACwNC2VuA/DCwAAAAAAAADAPCDoCgAAAAAAAAABIugKAAAAAAAAAAEi6AoAAAAAAAAAASLoCgAAAAAAAAABIugKAAAAAAAAAAEi6AoAAAAAAAAAASLoCgAAAAAAAAABui2VSqWsX7z51rlq5QUAAAAAAAAAFpUnHn8k77vb/c642Lz51rklsR63MrYhAAAAAADA0rRU4j5OHVgZXgAAAAAAAAAAAkTQFQAAAAAAAAACRNAVAAAAAAAAAAJE0BUAAAAAAAAAAkTQFQAAAAAAAAACRNAVAAAAAAAAAAJE0BUAAAAAAAAAAkTQFQAAAAAAAAACRNAVAAAAAAAAAAJE0BUAAAAAAAAAAkTQFQAAAAAAAAACdHv5i0horGundk0Zn8L9ozrQGioznX2aNnRqZiSsmvIzW2J+ykg3HVHtjqj5IazJ2U41W1Inx/eose+i8aHgeuaURVF58yN/+WofULy7MaDlzyOPsi4t3YyGGnq1Pz010LIvj3fdKSWdfX17Dk1od1PxvxsbbNHWS/Ox3y42Z6RX1mU/PpGS6v2mjUv//YvSHyxfNXwkrauVLv5YerPXPvvy09LX10o3jkjj37JP+/yr0n962v7dr26TVhSTn4XMux6Xky422KJTT/pdJhwlourYFFHm6Fvs8dUrfbnLh6SbOv2rs/r9p8anO+q+orbmZT7SXdXxsUv62Px09+o/0+aHLZPff1tHLnxifrhLj7Q9ptXBZRoLRqn1xyMd9ecWRX1a+qqzjROxkzox9yczca02fX2NsmcL7u1Z5dKWWhZVMB1R7Q5lrqFLuka1XY+bzJhEbLBFWw/aJxnn6AXiGJZ0WX7ny81HblzAX7zIz3Vw5a6V5zc2Fxts0VZVKXZUgdiPre6qmGtID6kcJ8+8l/uVq3de3JYKvXjO/HQu9dLqbamXzpaZ7uzLtmXY5/VnQaxHfDL17dU/SB2NGx8TYz9Ihb4zmUqkE599ORVa/XLqnYLLSqfflvr2WNzyi/HU0RctyyjbudRLljwuJEVtQ6+yLildPHX0O9by918vKs6r7pSULmd9c8omM79XuZr11lf531I+SqWOKJX6zUfGx+SrqVSkLZVK+kiafDWViljSppcXfdX4958GUqkjr7qkHfBedkSp1D/5WY+Fzrsel5wuXbcXynFgMbOUpfXPd7l6pS93+UilUqnU7BvHU6++ccX8dCV17Ojx1LGLXqn+JfWb6PHU0Xf+xfiYmEkdPfrr1G/SDULO5/g7v069Gp1JLcDTEJSptPrjkY76c8uiPi19VdnGF3+bevXob1OzBZfl0Z5VLG3pZTH/cmIJ5VyjOlw7vvNibjwkzTh3t5/bGd9Z8+B7Po94gq94UXwy9e3vvJx66Tsu1x5+5inR/MfmCpVt8YqN3VUs9vOic6zOD6f1KHN4gRmdOliv4e3pyHajnu6v1/43ZspL19Rpiyg3b+9U+OAZxcrLbOn5KTFd8vRJRdu3q828SVDTul09Uyd1KmF8jr0RVbj/qUxk3b6eMxraFNGaQxM5dydCauv2ebdo0Cv/aStVt8g7/3iVdWnpEpqbqld4XbpwGrW+XTr/gcdC54F73SkxXSKm6FRYXen6Fgqrq/2ioqfN9U1ENXIwrEmPO3KxwxGtaQ+XumpL141/lP4wYPRMlaR7npaWj0n/K+6R8IzRU/WJVDatJKlW+vrTjqn85emINH5Uav1I+nx5i1owvOpxqekSUXVsOqnwiVENb6hc9m8VscNmD9T2AcVnJzTTb3Sx3j8aVTKA9OUuH5J0VddvfkYPfOlB8/ODeqTuM/r4o6vuyZLXFf/0Lj2c7pFTs0YPL/uT4nM3JUmJuZv6dFmd1pkNSai5Tnd/elOX2TBLTIn1xyMd9edWRX1a+qqzjS989InuqFuV6fm6+ku1uuPmDV2QPNuziqUtuSzmX3L8sPZbrqVLvUYNTkhtIxOabI9qZNzt3D9/Pve4gL94UfL0SWnzU3p6s7TrcOFYjJ95SlON2FxI6zf7+Y1gVSb2kxNna1qrHl3WXAChn/KCrtNntH/DRq23BOxq1m00N8KMhhpaNDSdnpLQWFeLEQh0TVfA9WuKbliuurIyW+p6GN2mrQHM5Pge1TZEFHNNl9Cp4xfV86S1q3Wj1mcu4o3KnQ3oSQo1K7whqlPT6Tx16ulKP76a+FDnK/wTledR1omoOhr2aCyzwxh1s2P8gsc2Mv7PHgwLbLOqcK87yfE9qu2yBBamI6pt2KOxhEe60ycVbV9r65bf/GRY0eMxJWU2EJZGtKDpiLZe6tTTTwa1rkvI/zoqLf/39u9WDEgf/KMR/Hzlz6Ub6QlnpFduk07HpYv/aAwHUInH/u95Wnr2qHRPBZZdJe712Lld8qr/CoV1YPaFTCONciQ0d8n4L338rVm3UWFJmrqmufR2aWjJHssSUXU0GN8NTXund58OX96/oY/vWKaVlrtsobpl5kXhVR0f+wcdfz895aZO/+ofdOTXV80L3Htsj26u/uJd+jR5XQnd1OXkn3T3Fx+0TH1Q91ouRLFElFh/3NNRf25Z1Kelz3VbSRd+bW5TUyJ2UkfG3taFsraxEdysrbM8tl9zr2rv+ETX35dHe1a5tF5lsXDkXoO7X2s6xlQqkDPbObyv+TziCb7iVwmdOi6F14VcYlt+5ilRlWJzga+HJ/dt5RwL8YrP2eXeUChHBV+k1ajdJzp1foe5I02/rl3q1EzR4z0kNDYaVXhzc9XGhmzuHtXwpV6zks7oSJ80fMLnmBElSn5wWVp13zytc1RbG3IucJeSUFgHDq3Urr3Guhk70IAOtN7tmbS5e0KT6jXKpuGw6k4s/KBLTesLmlwV0fPjCaX3n55D5ed77spFrbk/oaF0XbEduCVpRkM7Lmt4L+O4Fu2ep6UnmqT/ccT4fPpFY0zWdbXSzWnprgfd00vSH75lBGrTfxe9k9x6gmqXUJ6E5qYkqV519xaaHlLbyIB6JGkqoiPT2Z6r4f5R7W7ySu81HeV7UJvX1+qPF942LgDfv6Tfq1abvubjWAVQfxAo6tOtYPXXvqIH/vWSGVy/qnNz0gPrGX+3uoynQv2ea81rTOXe5Qr7udHudz4/EjFFZQYvrZ3pip2nIioYmwvdpzUB9QgNQlmxEEsnj+fVHdhYtQG8SMtFKKyu9haNjC/Xmr7LGj7RWWQwxhy0d9WA4lV9+UVIbTvDqh2Nqm5VROf7R7U7JOl6FbNUkP0lMFJUteag046DAIfCOjCbfRQ8Ntiixi4tvRcgNT2lYe3UkXHpfN9KTc42SvI6Mhj1b27nhOLd6c8t6ti88F/G0ry9U9r0usZ02dh/AuoxvX/HGU3OTigumY9b79GYGYiODfYu4H1jEajvkN79onRa0myT9Oza4tIXejlWRq/0iuVFW+kXcN2KHNqlJXezadFr1O5DYe3fEdX+HS3GVxs6ta81JO9jN+ZFzRo9vOwf9H7svK7P/ZseWP+Y2DrwzaH+ACWhPt0Clmndyrt05PJ5nf4orj/WfUWbayT972rn61ZXzDCFDjGVtKmIGhsimY/W+EW0b6dq+9JTinhp0jyKHY5Im0fNGIrx2H3jGzPa3dRY1DwVU7HYXEh1Gy5q7rq0UA68JcdCLLExoyf2ykDqWmWCrpbuxs3dA1rT0Ju/U3mkS791eM2hicACRkWz5qepU5OrzLfMdXusiJnO6Y7JmvvdLkuMu0U1Wikd/1BJNRaxMzRq9+yEdktGN+o31hYdnW/uHlBPw2GdSoQXfI9OP4yylqSQ2vZ2ZuqU146z5v6QNB0x7gBl6p+xjOjemJKtCzEobbnTGAprX/8eNWYCzD7SfeAw2exxPSfZxugxDtwRjZxOaL0G/e0byJfpxVor/d+vZsdvTVvWJH1wVVKRQVibAenZvy4j/RJgeXKgqHZp3p44uBV5nKA1PaXhDdHM21J7duYed71O8BbWCeCSccdnlX5OZPXXVun62KXsxa+bz92pkKTLDpPv/PwCfSszglVq/THTfeIwmfpzi6I+LX2WbayHH9MjH/2Dzv1rrTZ9zWMb+drGTlM/ozu/IOkPDpPN9qxiaZ0CydayWFQs16huMZUNnY4dv8L9RXZ6Mh+B31fEfO6xGweZeNGMTh2UorIGhyXpsMa2p3tZ+pmnApZKbM6HzLYqKhZSeBvXtL6gySstGhl/quwOd+UNL1CgO3by9ElFLRepyfHDOt8elvpez47z4JUuEVXHpmvqmnXonRk0H+uhRFQjl8LqkfGoo3e6kOpW5b50yRjnxDjoWO4IZH4jpuiUebeoaa2vwYArY7G9WMurrA3pFzxlX6TiL93C41F3JBmPbKxUj20Qcfd0NfevlC59aOvxF3sjqvAKY6F1K5wGFf1Yp45fNO9OmkMP7Iian61j6d7iljVJn+QMgH+lV/o/LY+/vfMtafmA9O6R7Hf1/176w1HLeK9w41WPpcLtkp90CIrxUkJJmYH3sy++soyrO/16JuAqSfvTj0R5pve5fLj7wmd1x6f/po8tXyXmbupTywVjIjanPy67S5q7lBlnLvT5z0r/+kfbreULH32iO+68S9Iy3fU56Y9/sI6XaIxtd+cXKrkymHcl1h/3dNSfWxb1aenzsY2VPK/3//Uu3a24zr3vJ53XNr5Ld97xJ/3RGuRMXlf808/qrhqv9qxyaX2VxYJhfazcxzVqoZhK4MxHyvNu1rvN5xEX8IoXme/jmZmdUNzyN2kdL9TPPOWoamxuPuMnfmI4DrGQKsV+ygu6hsLqao9q62D2RUNH+iyD005H1Hh8o/Z1d2pf/+XsfB7pYocj3i/sCZLXemhGQ5tOKry3U7v3WsbC8EjXvL1T6hvMBJ2S44ctgxQb3euzF5HmRWHmgrBRT/dLuzbljpuZ0NhggOOuTkdtQbHYYK/2L8KLUveyNrqHb9WAdnd3Wsb48EjXtFY9U9YGIaGxvRGpiuMLG7zqTkJjXb3SoU7t7h7Qmsz6eaRrekrDypaNElGNWAZDr1m30VZW2emr1TZibzzih8LG3UpePJRV3yHpW8bLsSTj5VnX2qT/y3zM//SfSzotff2vpbss82mt1CBpPHec1rj0qyNCDo967NgueaVDoJqfNIe1OWiMmb01PRROut1NRNWxIyqpXsMnRjW8QZKyJ05e6T2XD281a/Twsk90LvPikqs6N2d5Icn7b+tEcpn+3dce07+r+7fsfA+v0gOK6zcx8yI3eV7vW14YsvpLtdLceZ02T2QSsbm8F4ZgCSi1/niko/7coqhPS5/XNtZVHT91U7XNj2lzs2UM37K2sTFkwcfpZUm68D/j2RdgubZnFUzrWRYLRW6Q1esa1SGmEqgZDTUYj8C7d97Ln881LuAVv3qj8DuIrC/08jNPWaoVm8vr/FV57rEfp1iIR7pEVEPjlsDYdERbA7oWvC2VSqWsX7z51jk98fgjRSzCHNsh/fhfeuwNSxdkoyJbxoDobnROJ2Nc0fQFkpXjuKQFBLYeefk2AnhGV+VONbushyTjMf8dUeP/Al3mjWWZkZT2gfzhAMxyjFq+KqYcPFnz55SHKil6GzqV9XREtTsua/hEtmv/kNmt/kBryGMb5YyTu4DKx6nuxAbNRzYc1t+9zlnXt95SZiZbfSwwPW06otrR5UtvbOCynZFeWWf+3ya1HpXukXTxx9Kb09nP6fmsY6/eOGIMPWD1REqqT6fvtU9Lj/F644g0ftVjeIG49N+/KH3ZXN6i51CPPdslj/qvbJq5nfP0JMZSltP+ZNs2y3ZIH6Msx57MfI7pvZYP/27q9K/O6vefGp/uXv1n2vywpOR5jZ2K68705/R8n1ulp7/2oKSrOj52yeyl8xk9sH6j1lkbg/ff1pEL5mOdd9Rq09fXLMDeOyhfqfXHIV0a9ecWRX1a+py2Ve42lRKxkzox91k90vaYVpe5jY1l/cn4sCz7Gwb39qxyaT3WaYFIju9R45XttuvJwteaHjEVl2vH2GCLRlYUGl7AHocxFDp/9zufPOICbnGvkwoXvG4wzmk11Knzuz3mCeQ8tQqxuRKHtbQqPnYnx23lFQtx3sa570dyiXUUuR4BBF0XpqWyHrcytiEAAAAAAAvRjIYaDquuyOAUlopgOqMslbiP03qUN7wAAAAAAAAAbjGN2n1opXZtqsRQAVjoYoN+hnLA7dXOAAAAAAAAABaZpk7FZ6udCVRDc/eE4t6z3fLo6QoAAAAAAAAAASLoCgAAAAAAAAABIugKAAAAAAAAAAEi6AoAAAAAAAAAASLoCgAAAAAAAAABIugKAAAAAAAAAAEi6AoAAAAAAAAAASLoCgAAAAAAAAABIugKAAAAAAAAAAG6LZVKpaxfvPnWuWrlBQAAAAAAAAAWlScefyTvu9v9zrjYvPnWuSWxHrcytiEAAAAAAMDStFTiPk4dWBleAAAAAAAAAAACRNAVAAAAAAAAAAJE0BUAAAAAAAAAAkTQFQAAAAAAAAACRNAVAAAAAAAAAAJE0BUAAAAAAAAAAkTQFQAAAAAAAAACRNAVAAAAAAAAAAJE0BUAAAAAAAAAAkTQFQAAAAAAAAACRNAVAAAAAAAAAAJ0e/mLSGisa6d2TRmfwv2jOtAaKjOdfZo2dGpmJKya8jNbYn78mNFQwxmtn+1Uc4GpyfE9el7dRS4TRZmOqHZH1PwQ1qTDtigu3YyGGnq1Pz3Vq164Lsu7jiXH96ix76LxwaneT0dUu+Oyhk+8oDa36nTjiDT+LcsXbVLrUekeSRd/LL3Za59/+Wnp62vdp2WckV75R+nZv3bJgHxuE/d9JyMRVcemiDJLyy0/r+m53n9bRy58Yn64S4+0PabVmYk3dfpXZ/X7T41Pd9R9RW3Ny+YhrZSIndSJuT+ZiWu16etrlF2Lqzo+dkkfm5/uXv1n2vxw9dNWsjysYoMt2nrQ/l3PoQntbsppMyRJ9cY+Inu9sKezfGGrqznLyKlG7vup/ZiR9zuSMseCVQOKdzc6rK37PK55yFmXwnkAAAAAgEXIJc5gu07SArgWSuU4eea93K9cvfPitlToxXPmp3Opl1ZvS710tsx0Z1+2LcM+rz/ztR6pVCqVGPtBKrR6Wyq0+uXUO3lTjWWFVm9LfXssXlSebnVFbcP4ZOrbq3+QOmoWcWLsB6nQdyZTibLSxVNHv2Pdbh71wiMPXnXsnRe3+cizkaeQ5XcK+k1bKhVpS6WSlu+Sr6ZSv/nI+P+fBlKpI68WTus2LbNspVKRAdec+tkm7vtO7rK2mfNm/zLl5zU9V2ImdfTor1O/MTMTf+fXqVejM6l0kc6+cTz16htXzE9XUseOHk8du1j5tKmLv029evS3qdmCy/qX1G+ix1NH3/mXgsuqWtpKlkeOd150Oo4a+0XB7R2fTH07t36l64u1XTn7cv7+d/bl/GP32Zdt9dW+X+ccM3L2AdsyXnw59ZJbvXebxysPL1rWwykPAAAAAFBlxcbuPGM41muhnOumSnJajzKHF5jRqYP1Gt6e7oXTqKf767X/jZny0jV12iLRzds7FT54RrHyMlt6flwkx/eo8fhGzZzoVLjAcocaeqVDE5psDzjLsEmePqlo+/ZMj7Sa1u3qmTqpU4ly0iU0N1Wv8Lp0N7dGrW+Xzn9QeKHuy/KoY4moRg6GNenVo3v6de1aFVaP2zwXfyzNNknPmr1a0+55WlpX65bS2+k/lz74c6n1Vc9ZvbaJ+75jFzts9lRsH1B8dkIz/fWSpP2jUSV9TM+VmLupT5fVaZ1Z2KHmOt396U1dTkrSVV2/+Rk98KUHzbkf1CN1n9HHH12tcFrpwkef6I66VZmenqu/VKs7bt7QBUlKXlf807v0cLqXaM0aPbzsT4rP3axq2kqWR8WEwjowO6Ceg4c15naMaOpU/ESn1Pd6pv2JvRFVuP+pzJ1UW/uUiCk6FVZXuod1KKyu9ouKnrb/SOyNqHqe7NT69qhGxgtnwG0e1zwopLZuy3HEIQ8AAAAAsNi4xxlyroWa1qpHlzVXxUuh8oKu02e0f8NGrbc8elmzbqN58TejoYYWDU2npyQ01tWi2sEZj3QFXL+m6Iblqisrs6Wuh/FIa+1gNgCbHN+j2oaIYpJqWl9Q3DFQ1qjdszzWWXkJnTp+UT1PWh/BbdT6dKAhEVVHwx5LcMWomx3jF9zTmf/vOjyTSXfqoDUIW0QePOpY8vRJyRJEKWxGQzsua3j7Wte5dKVXauhwn6dU645K/+lpHzN6lIe89h37suYuGf+ll1ezbqMRqJ26pjnP6blu6nLyT7r7iw9avntQ96YDie/f0Md3LNNKS8ZCdcvMIGQF05oByto6y6P3Nfeq9o5PdP39dIDyHtuj96u/eJc+TV5XomppK1kelWavj45CzQpviOrUtFTwGGCZbpwArLXtx81PhhU9HrME/2d06mBY65sKTfMzj3se8hn7x5r7GdoGAAAAwGLmHWewSo4f1n5LgLYaKvgirUbtPtGp8zuM4KSmX9cudWrGcfw6JwmNjUYV3txc4TFdnTV3j2r4Uq8ZQJ7RkT5p+ITP8UJRfaGwDhxaqV17jV6Pxo43oAOtd3smbe6e0KR6VdvQotqGw6rzGke1RHNXLmrN/QkNNbSYv2W9YWGIDfbqfH+3x+/HpU8kLfPRo/UP35JeuS37d9E7SXUkNDclSfWqu7eU6UBhdSvqFb3iddszpLpVzj3cizZ9RvvTgdmmtYV75PuZx/fvva5dU0YAFwAAAACWtERUHWZM5Xl1u7xDY35UMOgq87HGqEbGo0YPvb3Fvgwr+yKR6r6AKqS2nWHtH41qzFfgCwtO01MaVkRHxqN6vm+lJn3teEbv7FNPTig+O6H4bLe0t0UdDo8Dl2v/jjNaP2v+1olOnd9h6Z07HdHWS53aF+R+8PlXpWdT2b96y7RFE5DFrSbatzNzYyL9xEHa/h3Zmxa1XYWHlqgu4yZi9s5sobuyfubxKfPSPW4SAgAAZu0XJgAABglJREFUALgFhMI6YMZV9mkw75pxvt1ekaVahgJo7h7QmoZene8f1W6veJF1CAHzTeRrDk0oXq0eOtb8NHVqclWLtl7q1Ew3EdfFIvtIbUhtezszdcorALHm/pA0HTF6Z2fqn7GM6N6Ykq3+byC4PtZr1rE5yTZGo3HDIqKR0wm1rYupwwyceP9mrXSXpJtx4/9Sff5Vn8MIFK/0x5wvau66JMfkXtO93fn5Zc4T7/is7pbRkbgyaZ2mfkZ3fkHSHxwmf+5Ol1WufNrLDpMrVZbh/lHHm3DFvply7spFhVd4VRjz8fwnQ5KcAp9mL+sPHCavus/YdxMxRaek6FSL9ttmeF2xVjMw6mcetzyYYoNmezXr57gBAAAAAItXoThDTesLmrzSopHxp6rWkbO8nq73Llc4Z8zE5OmTiqYvMGU8yn2+PWx7EYlnukRUHZuuqWu+xkP1sR5KRDVyKaweRXSk4Lh5qJ5Cj/8a4x7aghCHI1rTHra8XMlfukDy4FHH6lbUy0ny9ElFdVG7NqV78fVqv/m5YK/bFQPSB/9Y7AoELMiyNV5gJinz4rHsi7PWqtlzeq5luutz0h//YB031BjX9M4vSPrCZ3XHp/+mjy1TE3M39enn7lSokml1l+6840/64/+2TE5eV/zTz+quGin0+c9K//pHW9jvwkef6I4776pi2kqWR4WZL6/r8mp8zaFxnm6SpJDqNpjB/cxyYopOrVRdSKq5f6V06UNbD9vYG9FMYNcY83XA7Dmf/hvVsGU8Vu953PMgGQHXkRWjPsdMBgAAAIDFIMg4w/woL+hqDh+wdTD7oqEjfZZBbacjajy+Ufu6O7Wv/3J2Po90scMRHy8VCpDXemhGQ5tOKry3U7v3WsapxYLRvL1T6hvMPI6fHD9se3FVcnyPtmpAu7s7NbkqoufNYKVruqa16pmyBtkTGtsbkRzGF3Zdlkcdq1m30ZbWCAgZL8upaX0hJwAzoB7Va/jEROG7NfUdkr4lvfJj+/c3jkin48UUa1m8tklRy3oybPxz0Bhfd+tB42O6/Lym51r9pVpp7rxOm9GxRGwu+8KnmjV6eNknOvfrq+bcV3VuLvvCp4ql1TKtW3mXPr7wti6YqS/8z3j2JVYPr9IDius3MTNImTyv9zMvwKpW2kqWRwVNR1S7KaI1h9wfu0+O7zEez88MjWMONWNpA2KHI9mXZ5nDmKSPL9b9uPCg78Yy12+uN28Y+JnHIw9+g8kAAAAAsMi4xhkSUQ1ZO6ZNR7TV8WXo8+O2VCqVsn7x5lvn9MTjjxSxCHPc1SnjU+bxTsvwAEZv1ez4rMZAtg7pZD4WeTD/l4p5dDSw9cjLt3Eh3ti3UpOzlgv2TO/cwhfx6Z5H1R2bdnEpehtOR1S7I2r8v6FTM+leXplxDdMvwZrRkDnkxYHWkHM6ZefNPObbPuA+ELPrspzrvDHZ2GeM1PWW/Oaa0ZCfl3qd/nNpdszyxYD07F8b/178sfRmr33+9JACF38svfug+/ACN45I41ezy3PiWh4mj32n4LJUoPy8pud6/20duWA+4H5HrTZ9fY3lUfubOv2rs/r9p8anu1f/mTY/PB9ppUTspE7M/cn4sGyVnv7ag5apV3V87JLZc/QzemD9Rq2rqX7aSpaHlfNx1Ni35nYW2Oa2/cpUqC7m1B9Jjvu70QZcdJjHesyw7MfTEdXukL3dsOXxpML/30rt+n895jGX55iHQuvrtM4AAAAAUEXFx+7kEmfIid+4xlWC5bQeAQRdF6alsh63MrYhAAAAAADA0rRU4j5O61He8AIAAAAAAAAAABuCrgAAAAAAAAAQIIKuAAAAAAAAABAggq4AAAAAAAAAECCCrgAAAAAAAAAQIIKuAAAAAAAAABAggq4AAAAAAAAAECCCrgAAAAAAAAAQIIKuAAAAAAAAABAggq4AAAAAAAAAECCCrgAAAAAAAAAQoNtSqVTK+sWbb52rVl4AAAAAAAAAYFF54vFH8r7LC7oCAAAAAAAAAErH8AIAAAAAAAAAECCCrgAAAAAAAAAQIIKuAAAAAAAAABCg/x/1qUgWi6crbQAAAABJRU5ErkJggg==;rotation=15;" vertex="1" parent="1">
          <mxGeometry x="572.6999999999999" y="190.3" width="291.28" height="36.7" as="geometry" />
        </mxCell>
        <mxCell id="oT10BM8QOoswX7G8rz1d-2" value="" style="shape=image;verticalLabelPosition=bottom;labelBackgroundColor=default;verticalAlign=top;aspect=fixed;imageAspect=0;image=data:image/png,iVBORw0KGgoAAAANSUhEUgAAAkUAAACMCAYAAAByBt2UAAAgAElEQVR4nO3d/28Ud57n8WdO+fU00p3itjaG7MQoi4TxgNebBIQnQkjx6hqswEaZuSygcSzj2JOMHCyQs7IjNvZMrAjHaJMYjGV5RBh2Bg125LhO40g+xJgxCRgDxqPxzGJmYmC2uyOddLo/oO6Hququqq7+6m7bwOshtaC7vvTn86lPfepdn8+n2k+YpmkiIiIi8pj7L6udABEREZG1QEGRiIiICAqKRERERAA7KJrpraO0Iug1wMxqp9ARNWhYS+lZo2Z662gYja52MkRERB46TwJUt40RaQOIMtLcyFLjGK1Vq5uw5YiNHqXy7n4ibZWrnRQRERF5SGj4TERERISMQVGUkeY6TowaNFTUUdpsEAOYHfAMs/mHa7zDca4hL892RxlJO8ozxwnXd5yY9i1OkYaZ3joqOxdguMPabtZaPTZ61LO+83nw9x5lZNTef+9cYHrcefbu28mvXXaz1r+pvtefrqT99s55ytNf1p7tmw2W/Mchnn4RERFJy/SImBfe3GP2Xfe+D705bkZda107fsq85ry5fsoMbUq8v3Z8jxk6fiu+bnRk3FrmW8+8fippvwm3zL5NAenwfE/qNERHjnjSYJoR88LxxHdFR45k/G7v9v703DL7Nh0xL0RM04yMm2948nXL/r+TZns901k38T46csRbJr7vsZa7vvf6Kc/+kvJx/ZQZ2rTHfGMkYpeRPx8iIiKSSlbDZ+2NYUpc76vbmqh23lRto51FlqJA1ODkcJhx11yekr1hqoGZiwbhrldc271CP5e4HNRbNHuFnpomXo/Pawqx71gT4WzSECjEvrZEHkq2v0R46r6nV8VrI/37XfORktJTyetdYEw7X+j67qrKRLqA9jMfsi/kJCNMc/2CvV2Uy18u0H7GlQ8qeb1rIz0XXb079d2J+V1Vr9Bfs8DSAxLbu49NVRPj9YlNrblimlclIiKSjSfz2ipq0LBrACP+wUb6AR7cx6gp44PkDVi6A8ZwI6Wd3iXtD4CQ97PYN4uwYZsnEMs6DanMDlB60HB9EKY53fr+9EwZVFYMeBfUR2FvmKFJaNhVRwvQfib9JPX1z250MsDS1EbWH/MuL3mmHL68R4xMwUzw9iIiIpKf3IOiqEHDrvs0z48xBFhzbc5ay54ui/fAeAOaEOs3QHuWT7W5A4P4fh7cxwArkEmXhiCzA5QOljE3P2btz94+WyXPlEN9mqfZQmGG5sM4845OpAmMlu4uwLMAIdY7vT6+oJAN6ygBa/5WSkHbW8GntX8RERHJRe5Pn9m9Qeud97NX6HH+H6omXGOw2zW5NzZqMANU7wzTczDL3xl6uozw1ADn4pOSo4wMunp50qUhgNXztC4eYMWmL2GkWT9J1TbahzuCJ2fPDrg+D7G+xru4Z9BIBDezA+weDtO8NwSE2PHyRl+ZzHHioEH7zmyGvKxA07v/z2mZSqyhidYiIiLZy72nqOoV+mlMDCXVh2mPLwyx7+QgNDdSWmF/VNPE3F6gqom5rqNUVtQl9lXTxNzJcPIwWSgxJFUKwEb6zzQRnrqfRRqgZO9+2is6KB22h7Nc7wHC9WHP/KTMKmmdbHKlx07T5Ifse7qM267Pw12DDLl6idpfhncr6uwgzNrGmUNUsvdD5vCWSabhN7fqtjHGe+tc5dDNeL3ByZzyJiIiIgBPmKZprnYiHk2Pxg9hioiIPC70440iIiIiKCgSERERATR8JiIiIgKop0hEREQEUFAkIiIiAigoEhEREQEUFImIiIgACopEREREAAVFIiIiIoCCIhERERFAQZGIiIgIoKBIREREBFBQJCIiIgIoKBIREREB4EmA3351a7XTISIiIrKivv/i9zzvn3T+8/eVf7fiiSm063N/fCTyIWub6pmIPM4elTbw+twfkz7T8JmIiIgICopEREREAAVFIiIiIoCCIhERERFAQZGIiIgIoKBIREREBFBQJCIiIgIoKBIREREBFBSJiIiIAAqKRERERAAFRSIiIiJA3kFRjLHW1yh/3nl1MBYDYhO0PO/+PPFq+SLGt190UP78EDeC9vXx/PJzk6MbH1vpWn1WGXx6c7XTIYXnP1deo7x1gm8LsM+i1ZfYBC1J56mISH5ufJwcE3x6E7g5FBgvWMtTxAZ2nFGs9u/JzKv4zfPp8+/D6fMsnrA/ik0w9ldgSy39V2utz24OUf7zMr46UctT8W1/Qt/kWwx+sYf+PSX2el/wDg189XbFsjLyUIlN0LL7Po1XG9i62mmRFXH49Hl+vMX6/42PX+PFVnznhojIo6u285PEdT+ugcWrDQB8+0UHL/7lhyy6Y4F/aeA3u3/J2A+6qbM3vfGrIej8JN6eFlruPUWxB/yeWra7E1RSS11WCSyh7l8aoOvfrJ4l5vn00ASHf6SLgzw+tr79Hoen73N/tRMiIrKWldTyr53wzs/s3vWbQ7z6WS2NScFV4eQeFJU8zSYmmM6366qklsYDf+KdX83z7Re/5KMD7xUt4lueeT71Df9ZnKEL93J7+DDOO2RirWuvc3OI8t1DTDDBq8/7uwbT7VMeGbEH/N75v6/7OF7Pbg4lD7PdHAoYfg7ej7de+Yfw/Pvw1vVPvy5URkVEluepPT/k8PQQ52/GGPv5BIdPF3eEJY85RRX8eLyB3x8Kalyzs/Xt9zj82fu82PVdfr0mh81cQ4RXz7N49T02xXu3LB8d+prtV63lvz7wp0QkS4yx1rf4za5P7G3Ps33qfT5yNtzSwOJ4A7XU8uur5z1dhan3KY+SG78aYuLAC2wFbkxh1YOr51k8XctE1xfWObXlBQ5PT3HFVeduTE1Q27knuUG4OUT5oT/TN+7U10/oW3w/EWDFbnAvXh8/oW/7BIPxIN9f1z9h3eQQE8UuBBF5rEx0vZXmxiydCn58upaPDr3FO+XF70TJb6J1SS39V8+zeJqA3o5c/Jl7a7E35ObXfLS9gdfihV/Ba53wm68TiXVHq1t/0ECtMxwSu8Fvpr3de1vffo/DWXxtyn3KQ++jQ4memFd5Lx4Mb33bddez5QUOx88Jq8698yvn3Jpn+rPn+McXkruNrWDpJ/Exdyih7ke1TEzesILqklp+HK+PJWzb9RwTf3F6pPx13Rriri1k5kXksVfbmegoWMx3Pu3ig6J3FOQx0dplSwOLV/cw1voWLV8ETaIKduPj9/l95yd8xb/x4q/mqVtjvUXf3vszTE/w4vND3gUHYkCGPP71PhPby/jXoqVOHkbuidYesQladrt7Zp6jz/7fUy/UUNv1NTfermDrza/56MAPWUyqfjHuLcKmGt+CvymLB9VPYU3ufvUz1/ID1j/f3vszlL+gOX0iskbN8+mhP9M3/gn87C3O36wtam/R8oIiwLnzfOcvWQQMEJ8o9eurJTzFDzn8/Pt8WpPigrFKnlr3XTjgmwUfl0XXlutiZG1izSFZV7AUyiMh/hTiefoBayjrl4nlJVv5x+1DTN9sgKkJDtc0BOykhHXl8Jt7MdjiO/+2l1GGFRAN/u0nLF61lltPeVirPLXuuzD5gG+pSNTXv95nAmgsYFZFRPJx4+P3+ejAeyyWlMCPaik/NMT2Ij65ncfTZxN86vltnxhXJv9E7d9m00tkP20WHyZyxgrX2G+ibHmBw5+9n9/vIGx5gcO452zYc0gKlzp5VNi9imXO+5tfJ+aeAc4w2Ec/72Bw0T3E5bW1ppYJz5y3GGM/G4JdW3nK6UlaVxJfdmXyT4mN/6aM2ukhzt90bftz1VYRWQOcThSng2JLA78+MMGrRfxdw9x7ikqehq63KO9KfBT8+wN+McZa7YjP3bhv2UPf9rd49eMXUvTMFNdEYF6syeQtu1+jPL7kOfrGu13zNlJxtk3s9/Dp9zj8mbsHoJbGA6/x6vMTcOA9Ft8u3uOFsoZt2UMfbyWGaQ/UJs892/ICh6cn+H3nT1IPcW1pYPH0EOW7X+Md+yP3OVn3o1rKD71mB1zPcfjAc4ltS2rpH8dV15+j77Q1n01EpFCCr7Vprn2xCVoOTXD49HlPr9DWHzRQu7t4I0xPmKZp/varW/x95d8Vfu8r7PrcH9dmPvRjjY+Ula1n1pDauqwCchGR4luz19ocXZ/7I99/8Xuez/S3z4rOGspwHsEWyYU1nv5DBUQiIiugABOtxcv6naJ3pl0fHXhvVYYG5SF2c4jyQxOwvYGvTqjuiIisBAVFBVdC3Ynz1K12MuThtiXxN4FERGRlaPhMREREBAVFIiIiIoCCIhERERFAQZGIiIgIoKBIREREBFBQJCIiIgIoKBIREREBFBSJiIiIAK6/fSYiIiLyOPH/7bMnUy14GP32q1uPRD5kbVM9E5HH2aPSBgZ1CGn4TERERAQFRSIiIiKAgiIRERERQEGRiIiICKCgSERERARQUCQiIiICKCgSERERARQUiYiIiAAKikREREQABUUiIiIigIIiERERESDvoCjKSHMdpRXWq2E0WoDtvMtKmw1i+SUuB8XIBzA7kMhHxQAzvq1jo0dT5nOm11UGFUcZyTZJyxQbPbriZR4vt9mBwHJyzPTmcmyyTYZBw4qVb75127ed5+UqL099q6O0d65oOVnb5jhRUceJ2dRrFKUurYg5TqxgeyBSWMW41lrne6FjhryCopneRlo2dBOZHyMy383mzsa0DVFW281+zlLjmL1sjPENA1QWuXEvSj6iBg0HF+mftPIx17XIbvfBmh2gsrOc8cB8znGZ7ngZzHVBy7GVCFSgZO+HRE6GKSny98RGe+NlN7Q3BMxx4uAi/ZNNVBdg/1lf9EJhhs6Ur0D5RhlpbqRlyvXRVAHr9uwApQcN72fDHSscGK2VC3YlrfNjtFatdjpWWdSgIc1NhshKK07McAXOODHDIP0M8G4BbnjyCIrmuDy8kf79lfb7Sl7v2kjPxUyNcIbtqpo8jVn1/ibCw1eKeGIXJx+x6UsY9fvZF7KWluzdT/vUJS7bx2rmokG465V4AODNZyWtbZXxbyrZ/hLhqfssZZGbmd70d8hrxdLdBcLPhuLvY6Nn6XGV14qq2uY5NkUx+7kdEIWtQHiyiTDA8NksgogQ+04mbhSsQHkjAO1nrCAy9s0iAOGuQWudM2Fr0zv3ihfsRQ0aVqRXsfhmetdCMBdlpHkV0xE1aHhsexel+FYiZgix4+WNGHdXIyiavUJPzUvscF3ESra/ZF/Y/d3XdtdX71yG7QI8uI9RU8b6nBNYiHzYw1iuhsIa8hpgJu12US5/uUD7zkRgA5XsqF/AmI7iHOTwdtfGoWrCNQaXAwKambMD4AqgCsPb5egZwrIvdJ7hvYAhGe9y3x1pyqEcqy7sHgajs9EeGgwqr+ThRW9Q6B9Scr4/aP/p1gfvsSkOJ2ihfpt1HEPVhGsAFlh64EqbE2REDRrstCYFuVGDdzsXoKaJ1+3GoOSZcoDkxmDDuiL0+tnp3XWfZqdXMWrQUNFBDwu07Krz1qFew86fcywydHf76k4i/ynqbIr0ucstfV2C6rY2OLZSw/XJrPQ1stT4oe/GwD9scM+3ZYqynB2gdNcABga73eefr2w9ZRgKM7TzSnCdE1muFYkZ5jjXiSuAyl+BJ1pX0jrZxO2D9oVn9nNaaGKuLdeERhkZNAi/XF304ZxUqtsG6b/TYR8su8ALNMSTlqvxurzTGWIqnJneDm47vQrzgzQ/k7xOyd4PE70Tk02ECTNuH8PY6FEqv3yJuXnX8KC74XUNHUbmrTK0GmCr12O83unV+JB9oShLUxtZ/3Tiu/37jzTep2XYlbjoDEsvJ9LfX2NwMuX+061vWf9sYe4uUlm6uwDg6R1LCLHvZDftAFMDnJu1AmEDKw/+YSBnWXuja5izqsnqPRrusOrNQQPqu4nkfM6ll7h4jxGZd50HoTBD8920s9E67u4h2OFLcGwscSw83d3dtNt5Buy6Q3xYOTLZZN8QzXGiosOz3ebO3qx6VTLWJSsDVm/cMXh3Jedj2cFv5d39RJKG/KwhVyNeb8dovjtAj3uVVGVZ1ZQ4Z+fH4vVg5qKrbM+EMTo/915YqpqIzI+x4+LKzmWUx93yYobEHNwr7Jj331jkp/BPn4XCNNcbnBw1rLkix3Kdp2LPwdjQXfCAIDch9jWG6Rk0GOnt4HZX28oM8diNU7yBSncH6wqgdg9Dz8HUk7vdEkFAiOqqdJmKMnJsgM1nnIug3bPjuiiX7N1Pu9O7dtEg7CknqwyNL2fS3IWXsz6+fvL+qWpivN61eihMa7xeZNFlmmH9kmfKizvUlFElrfaQV89B6zhS08QH/rofNTg5DBBmR5X383c7F7zrDncUbjJx2ot3Bv5hUU93dyU76uH2N1Gcm6D2M95ga18V9t1iomfM6kIni969LOqSWyjM0PwYc8+eLXKPiau3zRW0eFeZwZgK0+yqA9VtdvDsSFmWwarbXGVbtY12FlkKWL26bYzI/H6Wdq1e75k8ZpYRM1j1dYzI/DYu5zSBO7Unl70Hh2uoq7qtm80VVo9Ea6ZAwj1EFjVo2DXA5jNjRFZrsqQ7PVVNjG+oY/edJubaMmTE3i7V/J/Nz4SAVAfM21viqG4bpL+5kXOz4eCLUVUTkfkmwIqYL+/MfNGqbhtjvLeO0gqgpom5NJOrZ3qtu9Wh+D6jLE1Bz1Sd966VjfRHo3AHNu/0ldPTZfF5UZkrut1zdCz9WjO9dvDgSHWhy3P9YrACsRR1qOoV+muM+GRsz4XcFpu+hAGJYTjACVoNoP2Mc+ytnpWezs+Z2VuAns1QmKH5dZyo6KB0OMz4/HL2mTzpPNxlfZ7quMe+WYQpg8qKAe+C+jTlSfp9pk+b1eNVvBsgq2dqfW8duysM13FzsacOfJBVehOfWGWZanWrbU1Myd9If9B6zsT9IvQ2ingUImaIs3qcGnYtv93LvafIdZFzxKYvYbjmMMRGz3K7PgzuLtpM20UNGuy7pxV5eiSLfBA1OHknTDuubv6024VYv8F/x2bNI7KCnhDraxZYeuBaHJ3BmHL3lhSfE13PvXyJylR3g7MD7L7j77EIsb5mo2t4zHl9yL5QUN5taeeGue9YA8qHKEt3Eu9meus4+WxiWMGZeJxKVusXZf6NpXqnPfHZGQd3TbyO9/jEP7P0HPT39Fm9HoBv/pUVpIKr3KP3uA2QoicgP9ZTXZHJMk5m0RMZzLqIe54wjQenQcfdUvJMuXWBnvfVuYwX7Mx1KZGuOkorer1DfUVmnYODrB8MmD8W0MYkjquT5lRlGcDVtsaH2/zrOL3OF7dlWb4iWSpWzFAkuQdFdlfXbtdj5Oc6XZNlZweo/PIlPmhr4gP3fJMM2xVnUvEy8sEcJ3ZdInysidZjrjHPDNtV728C15yH2OhZ12Qxe0jOddGbOTuA4dz9zw74Jon20jLlGy5ZligjvYkgyJmkm7ya/bMCSd2YIXa8nPpnAqp3hjE88z2sngxSzg3zX7iswKpn0P0TBu6AwbqoWb1u1nsnWEiV30zrz1w0Usz3KZCqbfYFyJ746jw+7xzzqEHDQQPYSP/kIP011rrueU9W4AxJQ2f2sAk4k8vr7Em2gG+CYkHYQ0yRyTJO5jy04p8/NsfleO+dNazpCQajBiOzWOU33JHHcFamumSZ6XWCi5UJhvxptJ4uHGT9oGseT2gdm311wJlPZklXlgH8D63MXvH29EYNGgbLrLlXCoak0IoVM/S6b87sXnNPT3qeTNM0L125aeYmYl54c48Z2mS9+q47H4+bb7jfO+sdv5V+O9M0rx1PfO5+udfJpGD5SEq3aUZHjpihTafMaxnyYZqmaV4/lcjDm+Nm1LfY2pe93PUdTvkl8u98X+F4y9m1/+un7LR68xaUj6Rj5c6DO++b9phvjESSvt/9WXTkiHd7//6P3/Ju49n/EbPv+JEUZXjEvBDJtH7EvPCmvV4Ocq9nt8y+wPJyfe585qoD8Xrl5CGgLpmmrz6lWa+Y4mmwvzvouHrTecrsC6oLrmMVPy5J50WqY2bV3ZTtir8urWneOtN3/ZbZ58p3prKM5/v4LdPfXoWOn/LsSyRXayFmSGr3fO1Nvvl4wjRN87df3eL7L35vufHVqntU8vF4meNExVnWT67CnfrsAKWDZWnnVQVRPRORx9mj0gYG5UN/+0xWWSWtZ8pp2bXCv8CbcohQREQeV4V7+kwkX1VNROZX+DtDYYbmwyv8pSIispapp0hEREQEBUUiIiIigIIiEREREUBBkYiIiAigoEhEREQEUFAkIiIiAigoEhEREQEUFImIiIgACopEREREAIj/7TMRERGRx4n/b589mWrBw+hR+SN1srapnonI4+xRaQODOoQ0fCYiIiKCgiIRERERQEGRiIiICKCgSERERARQUCQiIiICKCgSERERARQUiYiIiAAKikREREQABUUiIiIigIIiEREREUBBkYiIiAiQd1AUZaS5jtIK69UwGi3Adt5lpc0GsfwSl4Ni5AOYHUjko2KAGd/WsdGjKfM50+sqg4qjjGSbpDzERo8G5Hl5eQv6jhOzmddZqTyvjnzrtm87z8tV9p5jUkdp71zRcpLRwk/h9BP266e5bfvtOde2T8Dpf4Jvg/Zrv/7XlczL4q7knp4iS9cO5L/dHCdcdcFz7vnriX951KDBtzxTm5hXHjKlI+V6iTrvbSfTtEV2njK1QZY0ZZeNqEFDyjKwz+WgczPb8kg6Pg9TW1mMa633eBUsZjBN07x05aaZi2vH95ih47fsd7fMvk17zL7ry9zu+inPPrzrZmdN5CMybr6x6Yh5IWK9jY4cMUNvjptRZ+Prp8zQplPmtVT7cuU5aduCsdIc2rTHfGMkUri8uTn5vH7K7Lt+y+xzbZeUFvdx9pXPWpRbPYuYF960ytrzyqpup9h2055EGV0/Fbw8x3OnIGK/MM2BfaYZs9//bp9pnvtFdtv+bp93W2d/v/tP6/9/6E69r3TL4vvGNAe6s0vLSkjbDuS7nVVf4ue073w1r59K2xZZ6/vfpzpvl5mHdOlw9uVvB1zXiGvHvW1Xqu++dnyP2Xf8VBbpylB2GVjp3ZO+PTx+yuwLatuyKI/oyBEz5E9PZNzsG8kygQW2Jq61npjBd/yyFJSPPIKi5AtcdORIFpUux+38J2gW1kI+kvfhXd9/MqfNZw5lcO14dpXMXbGS0rLMvKX6rtyCHKtyZ5eX1ZFTPYsHLXYZRMbNNzbtSW7gsmQ1jonycd7Hj6PzfUUJpjP43T7TNKZdH0wnBzpB/tCdOWDJNyhyArPYL9ZUUJRTO5DtdgH78Kzvv/j6z9+k7dOfi/nmIVM6srkZTPrupH06+z1lXsvYTgWnPbl9TJ2W0PFbKdKQWCe4zQ1Kuy+9a/BGcS1ca/2y26dXUD5yHz6bvUJPzUvsCCU+Ktn+EuHhK8zY3VmJrj9Xl2Ha7QI8uI9RU8b6nBNYiHzY3bOurk6rm3iAmbTbRbn85QLtOytdX1TJjvoFjOkoMMfl4Y2Et7s2DlUTrjG4HNBdOnN2ALpeobpQebbT0zo/RmtVwKJl5S1A9B63a8K01yyylHU3b5SlqY2sfzrb9de22DeL1n/qt1nHMVRNuAZggaUHrq5hp+vX1UWe1IUeNXi3cwFqmnjdPn4lz5QDYNz1FfCGdZQUK1OBIvDNCDy7zfXZNigbgf+IwPQ/wb+fSyxa+GlieOxuB1Q0FCdZ2y/A/3y9OPvOW/p2IGXbk2G72PQlDKee2ap3hjG+nAkcVoiNnqWnfj/7QgELAWY/p4VEXStMHjKlw25nGsM51N8oI4NG8jazV+ip30Z1pnaKDGUXNWjwDFVZ1zlnKKe6bYxIW6V/ly5zXB4Os6Mq/fGIp8V3XGYuGoQLfh1YQSsSM8xxrhP696c7Dtkp8ETrSlonm7h90K789kk1l7bCBLEqefjl6hVu2BOq2wbpv9NhHyy7wCebil8xXePLl3eOMbQ3VYu19s2cvUT4WBOtjeW0nM1unkts9GzSifAwW7q7AED42aAMhdh3spt2gKkBzs1agbABhLsGkwJXZ5mn8a9qYq5rIwx3WPXmoAH13Rka6VWw/QJ8559hOgJE4EYHfP8CPBWB/wv8t9LM+/h//+ydN7RQ7ESvjqK2PVMDVNrtS2VnOeNJ9cRgtzNH4+Ai/cdyCU4SMuYhZTqyvykyOhvttrKRlg3dyefLRSN+E5dNMJJSKMzQmXJajlk3LlbQ0p192xwPzoCqbbRPXeKyPz5LVx53YPMzj0iDmGR5MUNibtkVdsx/mDrAz0Hhnz4LhWmuNzg5anAir5MqykizVclXNyAIsa8xTM+gwUhvB7e72gpS4BlVNRGZHyMyP8aOixkmj7kCqN3D0HMw+wnQK6G6za6kVU1ZXaRjo0etBuFkfg3xw6mS1jNhwDp+u4eBmiY+8Nf9qMHJYQDrjtP9+budvuhguCOHiYwr6B9+AfNDMP1j+M40bMxx+//6CzhkJl7u7R+pgKmIbU9NE3N2+xKZLONk0mTdMOPO8vn9LO3KY8IxkDEPGdORWbhrMN5Wzj171ttWRg1ODrvOlVTBSLaqXqGfAc6NGrwbGEymYvdixXvYU/RaFaA8HlrLiBmq25y6uo3LOU3gTq1wQZFrqKu6rZvNnQPZnczuIbKoQUNFI0uNmboji8idnqomxjcM0HIn4CKVbrsA6SP94Duj6rZB60RM1Si5Aqjxemg/41SQAvdoLStv2bC6TCvv7i982teIpOEtt6pX6K9JvA0aOohNX8KAxDAcAFFGjtm9R/Fjb/U8GZ2fr4nAGEj0Aj31OlTMwnwV/A9nmK0UvgP8n8jyviNdwPTQcLUDubQ9KdqPuFRDqaEwH3SRZljJCth7LubyNGMeefCkI8T6mgWWHuTwlUDJ3jb6SQQ91vni6vWq6KCHhax7rOPiZRdi37EmbncOsPlMDm1UdAZjyn3Dat34pD0//eWxAW5/88mJ264AAANeSURBVAhGSIWIGeKsHicK0O7lHhQ9XUZ46j5Lro9i05cwXCdebPQst+vD3gRm2i5q0LDrPs2p5rsUWhb5IGpw8k6Ydndgkna7oApsjb1bDUXACR+dwZgqZ/1a6B1dVt7yZfUMrmogXETVO61eIJxx8NnPaZkCT49P/DNLz0F/T581zwLwzemKsmRvFz8u0XvcBiCXeVyFEBTcXIH7++C/u97PV0FZhz2MZnu2G7753yuX1FWXRTsQ1PZk2K7kmXK4c8/7Ex8XjRRDtxZneDeV+Jy4guUhUzpC7Hh5Y46BGLjPhfi8pPiNgtMD05RyDms2ZTdzdoDN9VbvV9Y/nzB9CaO+25uO+UH6U8wjdbiPy7KG/taCYsUMxZJqBnY6mR6Tc2bS+2eDp9su25n+6RT2MUHXzHffkwlFeyTf97ME1pNFhX76zLtN0R7Jz1aaJzbWqtyfvEjzyLznabTEI/jJT/UEP8UXfxTY/1qNMk37SP5/muY5TPMPppn8VJq9zP90WKEeyY+nbe08fZbxpzlStD0FfSTfvzzpCawMj04vJw/p0uGcM/46nOaRfE9blPIpuHRP06UvO/e1LOW1KqktS/19nmtjxvJw2gVfnlI9ku/ePtf/Z2ltxAzJT0oW4umzvIIi/++neC+ae5J+O8B/0iZtZ6Zu3HO50BcsHwEF7A1QUufDNE3vb8cEXJycx6iTfk8mfvHz/RZNkQSf3MvLW87W0u/sZCn3euYLjHwneXCQ5Gs00pS3pz6tVkDk+EO3/ZtAeAMVw/f+D93Jj+vHf0+I5N8Vcu/Xv/+HMSgyU7UDmdqeNO2HaZreuua70AWca57zO6n9yXyjmlceMqXDlnRNcNXr5OtFdr+XlP5GLkXZXT/lK0trvYyP1qd7lN4diGRZHknneTb7XiNBUTFihqTyyOOaEZSPJ0zTNH/71S2+/+L3itkhtSIelXzI2qZ6JiKPs0elDQzKh/72mYiIiAgKikREREQABUUiIiIigIIiEREREUBBkYiIiAigoEhEREQEUFAkIiIiAigoEhEREQEUFImIiIgACopEREREAAVFIiIiIgDE//aZiIiIyOPE/7fPnjBN01yltIiIiIisGRo+ExEREUFBkYiIiAigoEhEREQEUFAkIiIiAsD/B1f12zCZnhM2AAAAAElFTkSuQmCC;rotation=-10;" vertex="1" parent="1">
          <mxGeometry x="615.87" y="330" width="208" height="50.12" as="geometry" />
        </mxCell>
        <mxCell id="oT10BM8QOoswX7G8rz1d-3" value="done collecting data&amp;nbsp;" style="shape=callout;whiteSpace=wrap;html=1;perimeter=calloutPerimeter;fontSize=8;position2=0;" vertex="1" parent="1">
          <mxGeometry x="889" y="297" width="62" height="51" as="geometry" />
        </mxCell>
        <mxCell id="oT10BM8QOoswX7G8rz1d-4" value="" style="shape=image;verticalLabelPosition=bottom;labelBackgroundColor=default;verticalAlign=top;aspect=fixed;imageAspect=0;image=data:image/png,iVBORw0KGgoAAAANSUhEUgAABWUAAACzCAYAAADhTH6/AAAgAElEQVR4nO3d/28c953n+ZcP/nWwh8OazYNleUbSeQmY6jhcwrEE0YJGBwuYlglTG3gXHlkITdAdMslBMWGBniUDTchbCYYZCZOEdIcgtFAU3YwRkwbDGkTGKYZMjeTYbdqiGIwmIyljWpp0txcLHOYP6Puhqrurqqurqr8Vm9TzAQgQu+pTXz9fqt71qU89lM/n8wIAAAAAAAAAROJ/2egNAAAAAAAAAIAHCUFZAAAAAAAAAIgQQVkAAAAAAAAAiBBBWQAAAAAAAACIkG9QNj3Vq/ZO27+p1QauOqv5IXO5AwtZc10NXf7WlFs4wXECAAAAAAAANrGHvX9e1dnOMZ3un1RmLV78NT2VUlpxdTdgxbmFKQ3vmlRmprD8RWUasFwAAAAAAAAAaGUeQdms5ofGdHNiVpm+mGNK90iyYStev3tLiR2x4BkBAAAAAAAAYAspH74gm5axnNBQX1DAdFVn7UMbdKaUdkw7ofkVQwNl081hCw6fk4zxQbV3ntB81uO1/JVUadlDhtKBr+2XhkMopMl5/W6tr6Cw3tJQDeZ25hZOFNMMLGRrnr98/bbjtJIq7VulISLsx6Ezpatl0+zHHQAAAAAAAECrKw/K3r8no2ebtvsmM4c3uDkxq8zaojJri1qduKPDxUCoJN3S8Kx0am1RmbVZTfcYOjy1KimmIzOLWuqXEhOzyqy9qSPu+O9KSu3HpCVr2ZmT0sz4LZ/tyWp+aFDGc6XtWXqu9Pvwrsni75nzOzV80BXIPDemqwesdP2GDnf26g2NWPMnZIy/V/v82bTWi9tlHocZe9B2OaWZQtrLSSXOjensSoXjcHmbDN/jAAAAAAAAAKDV+X7oq6KV6zrdk9QpW2/atr6jGl2+oqvFeGOHpk8m1CZJiunIYEK6/aUtaFtZ+gNDiYkXSmPXxhI6NdHhsz3vaVjO7enuS6jN6vW7NFIaF1ddL2i6x9DVFVv6/kkd77LSHUhIsvUU7tqjUd3RerbG+WMJHS9uV0z7nuuQcde2MPtxjCU01C/d/CIb7jh0JZVZSzZkjF8AAAAAAAAA0SgPyj66TYnle1r3SZT74o606zEr4FoQ0/aeW1q/X+8mZbV+W9r9ePjxZr23RxV6/ca0fVcp8Fnm0W1KBPYUrm7+0lAHvYqH7ula/XEAAAAAAAAA0PrKg7KxbiXcPUld2h7fWaHXa4e2P9qYDXMHTdfvVg5mVtwenwBzVMHO9FSvZnbYh3nw6fHr4B089jsOAAAAAAAAAFqfx/AF5lADp4+5P1glpaessVi79mh0OaU3HB/AmtKw9mtf3bFO6xV/x7ishmbO+STx2J70gqGcFWA+7PqA2OFzCe3rqnc7w3D3ds3q6vvhg6rbdwQcBz70BQAAAAAAAGw6D3v+2pVUZm2PznYOqn289HNiYlZzkqS4jq9NOqf3JLU6kygfQqAGbX1vaulurw53GsVlL010yLhbKYXH9vRPKqOYjszMSkODau8s7oWWIhuH1Qxwtx/r1WlJUodG+8P2lDWPw6pOKN7Za/4QeBwAAAAAAAAAtLqH8vl8fqM3IozCMABzfYyxCgAAAAAAAGDz8hi+oAWtpHT4XIcSewnIAgAAAAAAANjcvIcv2GgrKbUfM2w/dGj68ps6QkwWAAAAAAAAwCa3aYYvAAAAAAAAAICtYHMMXwAAAAAAAAAAWwRBWQAAAAAAAACIEEFZAAAAAAAAAIgQQVkAAAAAAAAAiBBBWQAAAAAAAACIEEFZAAAAAAAAAIgQQVkAAAAAAAAAiBBBWQAAAAAAAACIEEFZAAAAAAAAAIgQQVkAAAAAAAAAiBBBWQAAAAAAAACI0MPuHz786MZGbAcAAAAAAAAAbHrPPvO1wHnKgrKS9B/j/6HhGxO1T1f/aUvsx4OMcwgAAAAAAPBg2CpxoE9X/ynUfAxfAAAAAAAAAAARIigLAAAAAAAAABEiKAsAAAAAAAAAESIoCwAAAAAAAAARIigLAAAAAAAAABEiKAsAAAAAAAAAESIoCwAAAAAAAAARIigLAAAAAAAAABEiKAsAAAAAAAAAESIoCwAAAAAAAAARIigLAAAAAAAAABF6uP5F5LR4/Lv6/rXC30/ozNKkenVJw4fndMkjxaHxn+iv9Td6ZuLP9MuPB/R197J2/kB3vtdZ/6ZV4bMfv6jZP/2Jpp9vi3S95cxj8OW33tF3ntrgTdlMcuX57dB4vedzTT99+m/12NKkepuQLb761Zie+Zf/EnleBwAAAAAA2PQ+n9POV12Rx5d/oDs9vy3/3fLaz97Ri1+OtURMss6g7Jp++vQPpZ+9oztnrZ9yl7T4r5KeOqTpjw+Zv30+p53/fZs+OntIjxTT/l86c/m7mv3V86XA2ee/0vc1oI8epCBV7pKGD9/ToCMjoDaHbAVqTT99+rsaVisE2gEAAAAAANBwewdc8UZJ6tSdjwckVegQ91RrxCTrG74gd1+/0yHttffobDuk3lA9PNvU+1cD0sTfaDEnSWv66auX9Nq33AcSqEWnvvOzQ7r0L7mN3hAAAAAAAAC0jNaISdYXlG17VE/qkq59Xmv6Qxp8+ff6/t+t6atf/a1+9PIPWvSV/TX99OkXtdP6N/yrQqAvp8XjL+qnn9unj1knVI55CmnNea15Pp/TzsNzuqRL+ubTL2rnj9cqrNO9TITx1Zd/KP3x+VzxHNjP4Wc/tp9PFX9zngvbMn815rkck/Nc73x6Tp/ZEzu2YU7XG7ObAAAAAAAAqEYLxCTr/NBXp76zNKDfveoRgArp69/7gV77+Q/NsRxactgC2xANH7+jOx//QE8WI+mmH736W+392Jz+y5d/r+//t0v6SlJhPIpfH/yJlfYd7V3+oX5USPjUgO4sDeiQDumXH7/j6EpdeZkIZ03vTPxer/WYx/SzZZnH+ON3dOdnh3Rp4lf6TNLXew7p0uXPbMd2Tdd+/oTO/OfyvPjVrwpjjtjzwnf108JDidxn+rJ4rn+iM3svabYQtP18TjtftW3D0jb9euL3TT4GAAAAAAAAW9i1OT3ztL0zZPikGx2TrDMoK6ntkKY/fkd3fiaP3p7V+IO+bMXeoJ//Vj/aO6AXi9HyTr04Lv36t6WNfe1npfFgv/6fB3To2j3dk6TcZ/r1tUMatI1p+vXv/UCvhVhtxWXCh9Xj+OkXtdMKpBeecnz9e7Yxe5/6hl4r5LenntcZzemdQqH9/Lf60d4e7Skbhjan65d/7zgvZl54Qj9atvJ82yF9p3iu27Tn4BPF4RM+W76kQ+PPl9K2HdJfjz/RwH0HAAAAAAB4wOwd0EfFznPv1NjbdWNiknV+6MvmqQHd+fh5LR7/roZ/Ff7jSp/9+If63fhP9JH+Rs/83Zp6W6y37Fdf/kG6dknPPD3nnPByTlLAPv7rPV3au01/3bStg9Mh15fzbHKXNHx4TqVv7z2hM5IKwdPvL6/pO0916rPlS3rtW+94jCGS05fXntBjf+X89ZHH/ky6fF9fqVOPyBz64Js/t83wspX2jvRkDx8cAwAAAAAAaAUbHZNsXFBWUjHA9S8hApaS9PmcvvnzQ/rlx216RP9Frz39Q/20p9aodnM88tifSS+7vtJWFCKMbvVwLQb5cvf1O0mPNWwLESh3ScOH72nw43c0LckckuJvi5Mf+UaPDk38Vp99T7r280Pa+z2vhbTpsb2/15f/qvKsvfPRYkB29k9/ojsfmzOYX/iz0u6Ufv1lTnqqlPjevzB8AQAAAAAAQORaICZZ3/AFuUv6qetDR9cv/16H/jRMj0Dry2bF18E79Z2fHdKPXq1tbNqmeeobeu3nP6xqTApHWtnGFZX02d/Ze2siElaP5W2Fvz//bWlcX8ka3PmSZo//rX5nH2LAwXzg4MyfVh7u6VSxN+xjhbxvloWCbX/6RHEcW3PyJc3ae9QCAAAAAAAgAq0Rk6yvp2zbo9LEd7VzovTTofEwQxfktHj8h/rRyz/QHXsE+qnndWbvd/XNH3+jQs/U5rrkuS/mx8yGD7+oncUpT+jM0qR6A2PPhbSl5b72sx/otZ+XemmaAcEX9c2nL0kv/0B3vscr7g331PM6o++WhqB4+VDZuL5f7zmkSz//g878VeXj/8jzk/pIY3rm6ReLv71WHLe2Tb3fOqSdr75oBXyf0GsvP1E57d4B/XL8CV36lwbsHwAAAAAAwIPo2pxzyNG9A/ro7CGPYSkLWicm+VA+n8/bf/jwoxv6j/H/EMnKm+nT1X9qzf0ovkpfYexTFEV6Dj+f087/vi2g4AIAAAAAAKAZWjaWV6VPV/9Jzz7ztcD56hu+AFXKafG/zenSy98gINtSrG7r3yIgCwAAAAAAgOZr8Ie+4JTT4vHv6vvXbD+9/IMNGZoB3j778Yv65s+toSpa6ANzAAAAAAAA2LoIyjZVm3rPvqPejd4MVPT1772jO9/b6K0AAAAAAADAg4ThCwAAAAAAAAAgQgRlAQAAAAAAACBCBGUBAAAAAAAAIEIEZQEAAAAAAAAgQgRlAQAAAAAAACBCBGUBAAAAAAAAIEIEZQEAAAAAAAAgQgRlAQAAAAAAACBCD+Xz+bz9hw8/urFR2wIAAAAAAAAAm9qzz3wtcJ6Ha03Y6j786MaW2I8HGecQAAAAAADgwbBV4kBhO7wyfAEAAAAAAAAARIigLAAAAAAAAABEiKAsAAAAAAAAAESIoCwAAAAAAAAARIigLAAAAAAAAABEiKAsAAAAAAAAAESIoCwAAAAAAAAARIigLAAAAAAAAABEiKAsAAAAAAAAAESIoCwAAAAAAAAARIigLAAAAAAAAABEqAFB2azmh3rV3mn+G1jINiCdc1r7kKFc/Rtax/bUkW4lVdqPzpTSrtS5hRMB++k6FlVtW5NkDQ1MrfrP49jvXrV3ntB8szc74FjXlm5VZ1vp2DfKSiqiclUvM/+fXdno7dgacgsnAs77qs5GUVZbhaMcmGV9c+Q1ysVGSE9tnjYgPdWr9qB2GpVlDQ3UWRdupvxSUQOOAx4gmz6/PGDXQE0UfL25AYr3eymlA/Nqc68JcwsnmtxGN+86sd5zm57aiDIWXLa3RJvtI7IyuZKqLg7TQMFxterTpaeiiWfVHZRNTw1qeNekMmuLyqxNavf4YKgKwDfdyntaH1y0pi1qaVdK8SbfXDRlP7KGBo7d0fRlcz9WJ+7osP1Er6QUH9+ppUr7mTU00Dko47nZ4rHIrM0qcTe9QY2c1UDdf0y75V955b64I/VP2rb7TR2JNXHTgo51Temymh8a082J2arzBeCQNTSwQQ2UXVvfm8rMJNS2wdvRmuI6vrao410bvR2bCTewGyHMjUP3yKIyI/GItmgLiiU01+zrlg0WKijwAByHpmuR9r9uYfaD/OJrqwR9wuxH611vrups8X4vqe7AvMo1oaesoTfGd2qphnNbCApqx07p/hapFzeRyMpkV9KMp0TdMSAorlZTulVdVSmetTohDZ9sTmC7zqDsqq6e69D00cKFf1wvTXTo9AdBByAgXVfSUQl2H00qce56Ewtuc/Yjd+2KjP6jxQq/re+oRpev6KrVjqU/MJSYeEHdVmrnfq7q7MGUdp9f1FyfvcWI6chIiAK1kmrCEzizgdr3wZhOnxvT1QPubXNK7IjuqizoWNeWLqv15Q4l9hb2I659/dLNL6q7oEpP0aNtc8hqfqhBFwhNKX8bgWOyFTSsV0LW0ECr9XxpVSupBt18ZzU/ROD7wdW4OphrkQcBbTYstEFO2S91Uzu1/QF+YNCIa8H0hZRki11Uo63vTWVOSjPjhoZnpVNrySqWs0XyoV2jymjE1+Zh8lHb3v1Njt2V84+r1ZouruO2Dg5te/crsXxP6w3f+nqDsivXdbpnv/bZKrjSSXB3+7dew59aDUjn4f49GT3btL2uja11P8pfAzS7OKeU9k2X1dX3b2n0gL2nSlz7+m/JuJZVIaBbCvhJinUr0WPo6kphm5J6qdlP6KzXd9P2btu+F2FZrd/u0Gh/h29wcv3urcZvq882+R7rsldUzLw5sPC7gHNk/n/4gu1pifuc+bFek5nZMet4yODoIm9/Suga8sFeURd6tJS60Jvp7Mvymj8X+ryGHaah8DqMfX73sXVV1mWviJ/Q/IqhAce67MvzuqFwDuPhvLF0DfFh309r3fNTtnTZ0rqdy4rpyMweXQ08Vn6s/ZjdptVCJb6SUvvBlAwZOlxctnUcF6xtsY6PM2+U30A7X6GolHd8GsuyYSvcw6986UrQpGMi+ZwHZ160b29zy4HzVa/ydZWXC/dyfXuPVNxflZV9xzb45IeK2+IqQ90jI9LJeoYCsvLJwXsaKjxlzxoa6BzTad3S8EFXHp4yrHxVyIuVz6nf/tdVL9nKmXe5cA8NVF5u3K8zlV2E+ZW7rqROaaquV53M9Q9qfbDQm8fc5sPnJGN8sLRsj3quvBekq85ecfdScdex5XW5b9vlrmfdfPK/O597lWHbgjzKqTu/qQF5yrn/VdcHVeSXiteYkhpSB3tci6SnehUfvyWdG7MdH2ufF1K2MuTOB1XmE696sWK58W4X3RztoOvtM8ewWWVvnjnrRWfe8tp3leXb0n74XHe4j72r/fdqJ0p5oHA8K11jBa17o69j6swPhfuRinVX+TkIyi/+ZT7oGqie/GznUXevefQUtN2vhLp+aeE2qPx6cwPbIM/8a1++V15q8jVhGe98Wqm+KP0Wfpi9+q8F3ffBQfeEHu7fk9Gf0GgVga3yfGjxuW+uumy72+xKecqnzFVqmyq2WXWXUY9rc0kV84S9TJYNM9lbfr/lVdYUMh/ZY1qR8I+rVb7OCojHudTzUCJQ3uXK9c/dP1X26dv52LeX8ln7b5ml/CtPvp3/xP1/+7xB6Rwy+Xe//Xz+lflM+O1q9H5Y23Dm03w+n7+RP/Pk6/l3M0Hp7GlKPnmrsC+25ZQSF9Nk51/Px966EX4fvPYpTPpP387HnrQd38xS/pUny7fbPn9p+73Ol+mTt57Px54s/au4PB/hz2HQsc47zlXp2IZI59gX9/mq5Eb+zJPPl+eNfL48n396o/j/T96y//52PmabLzv/uuM4FrbJsX8e85f2w1WOHHnX3N7ScfDKm3nHcuzr+uSt513LcqX1WFfxbyu/xVxlzb3djmOfWcq/Uvzbe/7ivlj5u7Rv7nN+I/+JV950l4sQzHNS4biV1W/WfjnySCb/7lulv7Pzrzumf/LW844ynZ1fKtWtT7ryjlfeK5tWXrf67kNDj4nPefj0bVdeLM3X3HLg3Cb3usxll/bFfX78j4///jrOX2Yp/+6nVpqK+cFjW7/tmter/i+UtyralrLj4FBe3s35y+uASue08v7XUy9Z9Yxtfmf5sea3HwevvON3fkOXu/I6M1DAeXK3UeX1nDsPuI+le5uC6wLfPOaxftcOVcz/Zn6xHxuPMu84Dl7l1KPNqTtPOafVXR/45pcK15huVdfBPtciea9ja81f9lul9jY4n9RyHCq2X2Xz5/PZT2+U7iscx821rR73GF5lxLHvjmsNc5535zMex8H7WtK5HL+6wn6MC3VXpevBKta9IdcxHuWmmvxQVvf5ldkQ+SVE+ubl53LOurv83NnzZKjrlxZug/zvM6Jug/Ie+TcoLzXzmjCojfaJNTj2Izh/ex6TGq4Fy9ddWkfle8KyBeTf/bY5b3b+9eC6KTAfhq0nay3bHnm6Upnza5u8fi87LtWVUb9rc3c988mnXvc8dv71dq33FGX1RJWqiuUFxNUqX2cFpcsX80Kz41kN+NCXj1hCQ/2GZhYMcxyXk9WOY5HV/JA5Zqvfa/LNF9ORwYROzxqanxrTzYmRFh0vyfZk5JhR7AER1MNKPUmdKhzfWEJDfq/odyWtcxHXcZ/XDrpHSmMCZy4ndfPYBr821/WCppXSxQVrLJxQY+2ZT6CuHijsi/lkyO8ppPk07IK2X170GbfljtYLi+iKl7rLj9iOZ9cejdrnk6T+yWIvl+4DCUkJDRXOW4X5S+XGzMPG+x7jEZf1yo7rpQlZvYW9jZ5POrv5V9WVv6NUF8S6leiR7bWBmPY91yHjrnPdo+dtT0djCQ0Ve0GnZSzbjkOhrNqHHvHocV7K33F1e/VG70oqs7aoobuDwU8wbb2Qqh07eXTQnkecQ5M4XpHIGpo5l3Dk27a+hLpV/tqFmdeDh+4oP3ZS98ikRivN34Rj4nkeHMPXeAwZ0qxy4MW2LnW9oOmeW1q/LxV759vPX1dSS/3+iyvf36zmZw1HeVIsoSNd1rZWyg8O5dvS1ndUo15vnsQSmltb1OqOC8HtgtVDLH73qDLVjqtmGxJGks859dn/uuolcx327eg+kJBuf2medyvvO9qBrhc0XXwyHnx+w5e7mI7MLCpzeZtmAnuv2Xo9rFU5JqzfmzVlxzKmIyeTShRXG1QXhMhjId7s8cr/V9+/5Tz/oYePsnHkt8bmKed6aq8P/PNLyGvMKurgcNciXuxDcrnUkE9qKTfOdtGDrR5s64qrrbhc+3Grsq6X5N53s0eMfZlxHemLhbvu8FO4Hi32vHK/ddeh6ctJ5zEq1E3VrHtDrmPsasgPsYROTXTYtiu4zPrmF7/0EeXnykrlvvAdi7K393yuX2iDqm+DggTWPQ2+Jizyy6ddexzD8ZnD7u0xz3utbVo114JuHm8uh78njOnIjDlvW9+bPrGdcPmw4n1zA8q2ua/OPBVY5jzaJt/fi6oooyGvzUv30TF1d/lX6GnHdUfj7im27yi/n984dcTyrLY0s7aofR/U09Pc38NNWKajwHaPTGp3p/mxpONBO28v6FlDA9aYqpmNGmTbvj1dSS3t6tXh20mtjgTsiJWuUpBq9+MxSZUyaYe2Pyq1aaf0/pfKyavwVmINSi6ZF1gf7GmND33EEjo1cUXxD1Z1vCva7TGPtVS4ACjkqaBu57sfj0krKQ0rqVXXRYRxMq1cn3fD3T2yqNUdJxQ/2CtjYra8wYklNHdZGjjYq2FJo+dtFaqV543izB2arrSBj25TokfVDenx6LbSBZBN7os70rKheGfKOaE/K6nZTx9i2r7Lfp7C2b7Dumi/f0+GDBmdhnOGnm0Vyk5MR2ZmpaFBtY/L/BidZxlZ1dnOMZ1WQktBYx51JZW5vE0DBwfV/n5Sq/UMor6SMh+oFCU0JBWHcDlVliCr9duScc7aH5vR+/I/fRWXWUkjj4nfebAexi2X5k5MVFhPA8tBdczxprefDDt/pf0NWE6l/FC2LdLp5V6ddvzeoems1B1zzmse2w5NX170vyCJJTS39pjOdo6p/VyIc+6r0jmtvP/11kvbd3QoUWk+z7xv1kXGF1mpK+j8VlfucgsnFB+/pcTErDK+D5jNC/PtU7063Gk424c65L64I+3aU7leCqwLAvJY4BZUl//bHi9d/1SveXmqlnUWpwfll1DXmOHr4MBrkVqEyieNKzeeupLKnDcDiGbw8k0diZnL3X3AtYBHtxWDA9W3yRWWKdVw3eFmPnwuXBOnPzA0Orjok86sm9arXvcGXccUhcsPnsfYUm+Z9U3/eCvk5z0aXb6gq9mEjigtQ0md8qvzi9cvtEGmsG1Qs1V7Tejkn8/NQOsb17I60iddfV+aPhkPkc7vPFdxLbghQubDSvfNdbdVFdL4lTnPtsnnd5fQZTTEtXn3yKKWpnrV3impx78+zy2c0GFN2tbZpHuKDWPG1SRVF8uzp7PpHpnV9NCgLq4kGv4RwPqCsh4XPLlrV2TsOqq5wt8LF3SzPyGNv6d0n5VxgtJlDQ1YT0ciqWhD7IeyhmZuJzSqVOlE+Kaz3+AVTrw5bsX2o5IU0/bCE7ZiOUjLWN6poZikmK2hbslMXr3mffgr6Fib0hdS2t1vPiV5aSahtqB092vbmra+N5XpK/RUkRLuG6JYQnNrCRV6Np89v6jjj5by/Jy1HWc7L9S2AZXcvydD5Y1U2+M7pf6jrRHAD2n97i1ph6ygXFKnqrqBMBv7IyqMMWMPCNpvYhaVCb1I65xavU2CGkFPKylzDLe1xdKYnQfvmdMq3lyaeXh0sIYLZ69lZr/UTbmDnM06Jl7nIab5oUGtDy4qM2POlZ7q1UyVu+arQjmonqv+ti7YtKPS/N77W9YOFPjlB9dyt/d0aPqkX+8m54VTJnRVbD3os57MG2Fu7ius2/ucVt7/ptZLPsGawgOi8u2yn99w5c5xkb0Wvv3rHllUZsTqKbKsxtwY33Y95L1/T4ZUCvL71gUBeSxUW1ll/t/1mNqkGnojbESe8lpnlfnF6xqzqLY6OPBapBaBbUb95SZQV1KZtaRVJ56QLr/pcS1nqfl7FF7Xh5aarjuc2vbuV2L8utIj0tVzCe0b8ZvbOoYHwq57A69jygS3kzddx9j+TQr/MhvcA8s3ffbLENdAzc7P5rcrZq5ltU9XpOdG/I938fqFNsihxvu1xqr2mrAkqG1q27tfOplWbq9kaL9OxcKk8yoftV4L2tT8oKt6vvkw63PfHHh/E9RmewlR5jzapmJg1ut31VpGg6/NzWNnLX9I3nV51np7eM2efxp7TxHdR98D4mpSheusEOkiUt/wBdbwBIdtA+VfHLe9erGSUvz9/To1ktSpiTul+QLSNXUQ3Vr2Q6s6e/CKEieTOn4yqZvHrAGPA9J1H01K41O2D0VcsL2iZHWjPlYaPDl9IVV6JcF6MjZ80OOjRlOt/vXrrOYXnB9YeGNc4T+QVQP/Y116EnR8JKmlXSm9YQ1B4Juua49Gl22vmCmr+ZMp6bnuUI1RYQiHobuDjgHC7R+W2t5j/df9MbuV664nVDU4d8H5Aa5jhverOV17NHpurEHDS5iVW+nVGXO99Sq93iVpJaXD56zXUmLdSqh0PoOt6qzttZBij1tJZiNjve5Za6/AwisOg/cUr/IjG2ZPgsecD3gKE61Bxw87Bik3lJKiq+kAACAASURBVJb5Wra9Hgkt9ph2y9CM7dilL9ifOEvNOyaVzoP19Lr4dHJVV8/VslKbsOWgKubr8c58+Z6jJ6hTpf01e0w5zl/W0PxKQH5wiGnfc9LwycrtQnrKCopW+VpqaRXmK0qZy9s0U/VrO37ntPL+N7ZecvEoT4V6ZV/hIm2X//kNLHcrqeLrZbUFwqzX2dZmtX22vi8Om0NfuNqyWVtu6tqjUd+6IDiP+asi/xfKqHUd1fb4Tsn22lxuYcqnnFVYZtPzVL35pcI1prnxddfBntcitQjMJ8H1Ys3tlSW3kCqVhdhj2m1brmG7liu7XrPau+KHO7KG3hj3/yBt+TJXNb+QreG6w0NheLehC7pZdr9j/8CsledlvUYbuO6NvY5xCsoP1nBV4+85yuqMvc2vt8z6pQ+8Bmp+fpas+5D3p/TG+E7H69aSfK9faINaSbXXhC5B+TzWrYSu6OKFK8570CrLR/3Xgo9pt3uIsKarkA/97psDy3Zwm+3Fr8xVapsq/W6us84y6nlt7owTtT2+s0LiVZ09mNLu8+52olH3FOYwCNW+CVu7oLhapeusgHSOuE3hGrRwr9BYdQ9fUOjG295p/l18ipE1NHDM7HLeJkl9I+Z8Vq+0iuksxrhH9/AGvUZR1X4oq/mhMZ3un7SeBCR0auKE4p0p86mE337EEpo7f0/t1qvqZU+du5JanTiheGev+bfrVeq2vjeV2Wto4GCv2m3bWjymfrqSGzfsgyS9P2Y7f5W76zeM37FeSSk+Lk1ftoLlI5Pa3TmoAc1qrs/vHMV1fG3SHKe3sJ7+yYBXf8p1j9h6fD+6TTdt5zMxMau5Lkl6QdMaLL2C0p+oPLZnWP37za8jLrvX5RbX8ctJVz6r9ZxZQzwcLJTfhJbOJ6TZmvagaPQ56Y3OXqtBNbetMAbtkZlJrXc664vKdUVM22+Xyqt5vuPFaUdm3qxvQwvc5S+W0FC/+RqOWc7LD2xb31GNdo6p3bohSfQnbK/Z217/tW97n8rrkeJ+BQUeC/m7dOxGz09q9Jy9h3azjknl8/DShBQvlEclNBp2TK5KQpeD6hTq/lKZndRSv1GhV2/l/W3re1Orsp+/Dk1fTqityy8/OLX1vamlu73OV9hs7YmjDqpHLKE5xw7GS+fLynPl4r7ntNL+N7ZeKtuR8vLk6mlQeP2r4vkNKncNa4PLy2D30aR0cFDt49bxCFyE1c4dK7yO1qHp8+a4b6bCsa5cFwTlsaB9CJ//XfV3V1JLhbpTUmJiUtM9Y75jmG9Enqo9v3Trqt81ZgPrYHc9YG9zwl1fB+eTwHqx5vbK2ubHzc4Kwyqs33plMma9Imqb5uwZHNfx84lSGehJammiQ8Zdn5V1lS9z9PyiJFV33VHW/lv18oGEjHN3NH3Snfk6NL3juto7xwp7oqW1wvEJuubZ2OsYt6D8UKhXCuW7/LzUW2b90gdfAzU6P5fV3TEVA+3D/ba3Mwv8rl9og6pog5qvumtCt6B8bgbK4uM7teToTVld+aj/WrDUs/tI5N/6ceXDLr/75jBlO6DN9uJX5iq1TZV+t5bXkDLquDaPabtStnJibz9K0lNjZlk8Zh+mwLoObsg9RVbrywnta+irjgEqxtUCYnl+8ThX3MZ9r9BID+Xz+bz9hw8/uqFnn/laE1YVra2yHw8yzmHtcgsnzKdvLXKxAmyEaMtB6TX9Zj08BBqmMDxGpWBY8dXA5lx8YosIzCfUixV5lkHzFdztze7IsGGC80N6yvzg2MZ+4LmSZuRn72Vu+ev4Ld8GbdG6b9OfF0ShEfXXVokDhd2P+oYvAAAATX2lBWgs8zXYRMWheMxXv0uvfQFegvMJ9WIljRpKZ3MJzA8rKR0+19HU4c7q0Yz87Bie4oGx9dugLVv3xRLmkJRN+gI9toCVlNmre6s+UGqSuocvAADgQVMYnL+kea+0APUpfPinxPlqd+GjDbYZWui1ULSK4HxCvRgsPdWrw+caN5ROKwvMDysptTu+OxDBcGdVaGp+Ln453vv14q1l67dBD1LdV/iIJOCpK6nM2kZvxObD8AVoWZxDAAAAAACAB8NWiQMxfAEAAAAAAAAAtCCCsgAAAAAAAAAQIYKyAAAAAAAAABAhgrIAAAAAAAAAECGCsgAAAAAAAAAQIYKyAAAAAAAAABAhgrIAAAAAAAAAECGCsgAAAAAAAAAQoYfy+Xze/sOHH93YqG0BAAAAAAAAgE3t2We+FjjPw7UmbHUffnRjS+zHg4xzCAAAAAAA8GDYKnGgsB1eGb4AAAAAAAAAACJEUBYAAAAAAAAAIkRQFgAAAAAAAAAiRFAWAAAAAAAAACJEUBYAAAAAAAAAIkRQFgAAAAAAAAAiRFAWAAAAAAAAACJEUBYAAAAAAAAAIkRQFgAAAAAAAAAiRFAWAAAAAAAAACJEUBYAAAAAAAAAItSAoGxW80O9au80/w0sZBuQzjmtfchQrv4NrWN76ki3kirtR2dKaVfq3MKJgP10HYuqtq367W/v7FX71GoDlx+hgGNdW7pVnW3asa9PcN6pJZ1zf8+u1Lbe9FRU5XazuS797KHSv1vVpM1I/89DzvTXMuWz/b3Hcv/elc697q8u1rA9EWhKmS5JT3nncVQpa2ignnrScb4qnJPiPCc03zrV8CZS53VV0DmuNw9gc6HMo4nSU721tf2SwtV1tnk26z3PVlJvfVJv+9Ts6RZ7vi6r81x1oueywswTObMslbYh+D6y0jKc+2XV+65j6yjTnsfDo70IO1+dMR1zEeb2+u53mHlq1Yz7pkrtddbQQIu1z82IjTjboybub97lyvXP3T/5+uSt5/Oxt25Yf93In3ny+fyZT+tM9+nbjmU45w2nJfYjs5R/5cnX8+9mzD+z86/nY99eymcLiT99Ox978u38J57LKqR/Pv/KfMa2xkz+3bdsy6jbjfwZ2za2kqrOYdCxrildJv/ut+3HP3y+aLqgvFNTOtf+uo5Ncf6g42rl21DH/4Hyx3z+ovL5f/ij+WfuF/l86kg+nwuRNPeLfD5lS1tYnvGL8nlSyuf/0ZXecKf1mG5M5vPGtZD7EoGmlGn7PM/nY61Snjcz27G0/wt9XD99uyxtzF7vlC2/Ndur1mbW7WXHOex1VdA5rjcPYHOhzKOJPnnLo64KfT0ZXNeVLb/K+0s0WL31Sb3tU7OnF5n3kBXznWe9aP4r3peFmSdi2fnXq7qP9Gam8zznmaX8K7b7VodP3y6vG6xj5DgeIeerK6ZjW8aZt972rVfCzFOTZsVC7HEn9zn1OrYNUm0srzmxkRv5M7ZlhD6mNmH3o86esqu6eq5D00fj1t9xvTTRodMfBD11DEjXldTxrtLc3UeTSpy7XuWT0mo0Zz9y167I6D+qIzFzalvfUY0uX9FVK8Ke/sBQYuIFdVupnfu5qrMHU9p9flFzfTHbOmM6MpJQW9AuraSqePq7U9tjwXO1sqBjXVu6rNaXO5TYWzg4ce3rl25+sfGPhPzzTo3psmkZywkNFfJbLKGh/lsyrln7mzU0cy6hpRn//Je+kNLu/kStu7Z1ffUb6d8mpb3t5t+PvCRtm5f+2aO3q8N1aeEvpWfzpbSSpHbpL16yln1RWnhX6vuj9CfVbth16d6k9Bd/Lt17S/qq2vTN0ZwyLfPJ7sErSlye1XRP0zb/gZG+kJIhSf2TyqwtanWiQ5J0ejbME+qs5mcNSVJiYlaZtUUt9UvSLQ1fcLZfif6EqFVqtPKehpclKaGltUVlLifNY3nuQqgn/kHnuL48gM2GMo+myRqaOSdJHZq+vKjM2qRGJWk5pYthepWFrusSGu1v8LajJvW2H/W2T82eXpBbuKDTstVrle7ZepJaXVtUZq10jWrczVY/TyRWdXFcpThI0H1kFLqSylxOSuPv+d8Tl81XX0xHxWUktG9kj0YrXl+Fmac2zblvcsWd3Oe0a0+odUShKbERxXV8JF6ct23vfiWW72m94Vtf7/AFK9d1ume/9tkCem1791s7YnZfL3XNtrqET60GpPNw/56Mnm3aXtfG1rofVrdlW4DT7OKcUto3XVZX37+l0QOlE2kG9QoZ2Sz8pYCfpFi3Ej2Grq4Utimpl2zB6abIfqmbTV5F8wUc67Lu9WbeHFj4XcA5Mv9fulHwOGcbwj/v5BZOOLver6Ss7vYB6a5dkdG/p1gpSVL3gYSM99PKyZwuW6XlaSWlw7eTeulAo/Z1C/nnd6Vtf+78bcek9MVvrOED/pMtIHq9NDzBrd9If/ILqcNn2Y+8JL36rvRIDdt16zfWdu0JGSSOQrPKtKRYQnNrbxYvPlCPrNZvm/8rHPO2vfvNG47le1q3vXZWeA2s9IpQSmlltb4sSaV6qfuAFYa5/aVZh8USmltb1NzRbRHu19aS++KO+Z9C/R7rVqJHkm5p/b7tdb1Cu2E7b2dXAs5xUB6IZhcRGco8muj+PTPAVby3MjtDSGaHiNJrpKlSBxZbfvOv68xJ3SOLyqwltS/C3UIlwe1Lc9unZk8v7efV983xwXYfeMHKk9b9fgjOa9ra52k4VxzE9z6y4nV7E6J59nhK2PnqiulYVq7rdP8edXtNq2aemvhvY+XYQMh9s61n/ba0+/FYiHmj5B/jqBjLC4rHuaQvpIJjITVq4oe+4jp+Oambx6yGc+U9DSup1ZFqKw3zqXriue7g3qFN0j0yq+nbY1aA2XoqdDnZlBNSkPvijrTrsYj22dDhWseZ2wxiCc2d36nhk+a+5RYu6HT/pOb6/n1g0u6RRS1pzLoIvKDtl1s/mNPW96aWdqX0xkJWhfIzer7+7V6/e0u7H8/6jBW0qrPH7mj6ZIie3HB65CXp2S7p/71o/n3tLWnbNbNn7P9ckf7dnzVv3XfHpB17zP8XgsStro4yjUYqBVi2P+oxOZbQ3Hkz4GKMv6e0VnVx/JbMXlBJdRcfCm7+tzVa2fpd82YwscPrIMd0ZMbZG63Q8ycxMavjXQHnOCgPYIuhzKN5ikHVCvc/3SOFnoGGZhayxd6H6p/UXF8soK5D6wlqP5rdPjV7emG2tAyrB/e+rpj2PWf1pvV6I3c5pXhnr9o7BzW8bPYYP+7uoBVmnghUFauoeN3ejLIa0/ZdYd5sDTtfOOkPjGJw096pqdp5mqFhsYGV9zS8nNA+W37bvqNjg3pqh1dXLM82pu7VA+432BuniUFZWV2cDc0sGDUGa7KaHxrU8K5mFdqwYjoymNDpWUPzU2O6OTHSooE52+Daxwzp3FiF4JmN1SMhY/1b2pVSfCsGZrte0LRSurhg6I3xnVoK9XDAfEJ79UDh+IxIJzd6QPVwuo+ar2TML0xpeNdkwxrr08eua18hv1xO6uax0lPPdEuXjU2gY0DSX0rXLkprXdJf7Gns8tf+d9uHvv5v87evLppDFxR64Xb8ufRv77bMEAa+airTiFxX0no92dDhzjHz9T3qiRYT13ErkHb6WK8On5PUk9SpDb3uwqZFmUfTxHTkpDkkgTE+qPj4LUkJ2v8tbfO3T7lrV6whDsxepMXetIGvVt/S8MGgD0KFmad5qnoAEnDdfvpYpQ/02TqPbfiHzSqwhvgrBiu9XusPM08T1R0bWEmp/didsmBm2+M7S2+6tKw6YnldyWKcbN8HzevA2JygrG2oge6RSe0eT4XbefsQBVlDA52DWh9cVGajGlv79nQltbQrpeHbIRqCgKEWSl2+vZhP22rL4HEdLwTMzieK49tk1sI/QesemWyZsUEaoXSszQu5m+Mp7T4f/GRk9+OxYu/u0hAS5jIU0VOt6tme1MYSOjVxR8OhglUBT3htT0HtY67Yx5XJLZzQ4TBlA+WKvWDbpf/zF9LaX0rP/tfS9P+tS/r//lD/ejr/KL2at/5Zy//ndyWN2YK1eyXNS59cr399TVJXmUaTlF4N9dJ9NGkbG9I23ljRHa1vkTanlfn2ZOh6wTHG8uig+yG6/zkOno6thTKPJvK7/4klNGQbDzbh8Sppq/fagltA+9H09qmZ00tDFxQ7Sx20xqH1GsKgOF6sbXzawlvH1czTSor3kf7X7aPnS53EMo7vl1hjRFv/gjvquV+xr2O+kDEdM/BuDx6P6bRrrPQw8zRDcf+qig04j0t6qlfts9u0uumGf7PFOKqJ5VWIjXSPzJoPFprwEKS+oOyj28oGu81duyLDFsTJLVzQzf6Ec8DloHRZQwMH72moimBis/dDWUMztxMatZ8I33ReXeLNcSvMkxzT9h5XJZ5Ny1i2Xuna0IGTN9trZUHH2lT4AFVp8PVw6VpPQN6RZHbN36nRfvMVrzDpvB4EpD8wik9Bt++oNKjp/zAvOIqv01g9tZdTijvGD3rAeQVX745J/6ttaIJP/lLaNil9drH0W9N6r2akL+bND4i9avvX9wvp3kYPYfCglenNqjTeX+E1vNJHL0rjihV/kyQZOlwY18k23p85HpXtI0AbOGTRVlMcs7PQK8f2MZxij43ib6bSDV7QOQ6XB7BVUObRPKXxOK37H9uHv4pj/hV/MxnjU8XrzFB1HVpIyPajae1Ts6fLNnSBt+CPirc2+wOQoPtIyeu6vQnKOlWFmK+umI41Lqs9qFz40GCxN3SYeeoR5v6nQmwgIF16qlczO2ZdgXKXyIbcrCREbMQrlhcqphKN+oKy1vAExYsta+yo4mDBKynF39+vUyNJnZq4Y7so80/XzEF0a9oPrerswStKnEzq+EnbOLkB6cxu4qWLhdzCBdsg0lY3atuTrfSFlG2A7LhempDHKwlZzU81sCJbMRxBs/TUmDUA9ebif6zNAZ0Pa1LHR5K2MVUC0nXt0ajji69ZzZ9MSRt+4xCUd7KaHxqTzid1fGRSu4v7F5DOeq2kcGzMC9/ShXDb3v2OY1Wa/qSOzLgamfMJ60nuZnui1kTF4QmsD2l9dVG6d0T6P9rNv6/9J0nXpL/4r9K/s82nPVKnpIWHpFv2BWakv7+omn31G+nfJss/IPbIn0t/MuZaV/SaUqbRcKWbYLMHyGHrZrnQDuYWThRfN1wt+xJ2aWw1Y3zQGh9NctyAo35de8wx+Qo9NI5Z4bLiTaOhgWOGzHE/nWM2SsHnOGg6thbKPJrGFrQfPmjrUVhsw1d11vpt9PyiNUyGradZUF2HlhPYfjS5fWr29OLQBbbercX7JKl8CANbBxdzeA6V598w80SgLAgbcB9Z6bq9kXILJ8xX7AOGzCybr56YTjYtY9njwY/9g1Fh5qmT//1PpdhA0L6ZQy6Uv+1S4g68b4yg2EiFWF5QupWUIw6XW5gqG1O3YfIuV65/7v4pQCb/7refz8eeNP+d+bTw81L+FfvfhfneuuGfLp/Pf/JW6Xf7P/s8QRq2H2Xbnc9n51/Px558O/9JwH7k8/l8/tO3S/vw7aV81jXZXJY13baO0maZx7HW4xDIvn2VtmGDVH0OKx3rT9/Ox558Pf9upvDDjfyZJ5/PvzKf8U9nm7cVj0+lvPPJW/7775/n7PtrP2YWR370mG5fp0d+x7V8PiXr35F8Pmf9/I+Tzr8L8/3DH0tJc7+wpbX+/aN7+X/M5y96/G64llX4zbjmvZn/cCSfv/iLWnawsZpSpgvMuruh9emDytWOFI+p7ffCb6X6p9CGuuqkSvVKse7xqXfgo1JbZvu98Jutnvc6l4HXOo2+TkHrocyjaZz3VaU23PZ78bdS/VVs/0NetxfvNVvouv6BVbH9iKh9atp0r/xZYZr7ftwr/4aZJ1I38mfK6ucK95G+1+0+1+OZpfwrtrbDwet4eB2LsPPVGNP55K3K5yA7/3o+9u2l/Psh5mnIPbPfNvrdR1W6b/KIQ5XXy81po6uP5VWKcQTF8nxiI2X7XyEvNmA/Hsrn83l7kPbDj27o2We+1oTwb7S2yn48yDiHAAAAAAC0ltzCCcXvHt247/9gY62kzLFm/YY2qNFWiQOF3Y/mfOgLAAAAAAAAW05b34imb49poAlDEaDFZQ0NhBgqAuE8vNEbAAAAAAAAgM0ipiMzizqy0ZuB6MUSmltLbPRWbBn0lAUAAAAAAACACBGUBQAAAAAAAIAIEZQFAAAAAAAAgAgRlAUAAAAAAACACBGUBQAAAAAAAIAIEZQFAAAAAAAAgAgRlAUAAAAAAACACBGUBQAAAAAAAIAIEZQFAAAAAAAAgAg9lM/n8/YfPvzoxkZtCwAAAAAAAABsas8+87XAeR6uNWGr+/CjG1tiPx5knEMAAAAAAIAHw1aJA4Xt8MrwBQAAAAAAAAAQIYKyAAAAAAAAABAhgrIAAAAAAAAAECGCsgAAAAAAAAAQIYKyAAAAAAAAABAhgrIAAAAAAAAAECGCsgAAAAAAAAAQIYKyAAAAAAAAABAhgrIAAAAAAAAAECGCsgAAAAAAAAAQIYKyAAAAAAAAABChBgRls5of6lV7p/lvYCHbgHTOae1DhnL1b2gd2xPGqs52ppSuMDW3cKKGZaIqK6lSnvE5F9WlW9XZziryhe+ygvNYbuFEcL5fSam984Tm/TYl1LHwz7OlzTY0EHQMbPOcXalzefVOD9qeMOnt52pqtfI0z/NU73QpPdXre/6CpkvOvFS+j8587b0tYeZxHxrnsXXM7zfNkV8L/8rzuHO//bYnoKyFKR/W9vrmZ995Wq2NAwAAAICtxy+O4ryHDIijbIC6g7LpqUEN75pUZm1RmbVJ7R4fDA7KBKVbeU/rg4vWtEUt7UopXhYYaaxa90MqZIAxnfacagY24uO3Gri1KJM1NHDsjqYvm3lmdeKODocJdPimy2p+aEw3J2bD5YuAbQjKY+mpXsXf369VK99nZhJqK1+J5meNuo+Ff551LetgSvY1Go7ttgJ3rnlqXl6904O2JzB9odIe1PCy5wI0P+Satmyvn+qdbq7/8Dn7Og1XPvKfXljP1fdLdY7xfjpc0G85pXhQuQmcJ6GltVL97czHPtN6kqW8v7aozPmdGj5YHlBNFMujrX1wNa6+ZS1kXZG+kNLu/oROf1C57fGbp9XaOAAAAADYclZSio/vLN5nOu+tVnVVk8X7rtUJafhka3WIqTMou6qr5zo0fTRu/R3XSxMdvjexodJ1JXW8qzR399GkEueuh+/5WLVa98MMbsXf36/Vy0klPJZ7tnNMOr+opf4GbzIccteuyOg/qiMx8++2vqMaXb6iqwFPQfzTZbW+3KHEXmui4trXL938wnuh/ssKyGNZQzPnElryDMTarLyn4V0JjdZxLPzzrFP6ghXA7J+0KrEOSdLpWVdF1u+/TWGXV+/0oO0JnV4JjXqV2ZX3rICqFVwsHMNzF8ygYL3Ts4ZmzklShxU0nDT3Yzmliyshpru3s3AcKpaFDltw0jwWWr6n9arnaYKupDKXk9L4e751f/eI1bhesDW8PmUtXF2xqqvnEto3skejhXNTxm+eVmvjAAAAAGDrSX9gKDHxgrqtv533VnEdH4kX523bu1+JKO5lq1BfUHbluk737Ne+WOmntr37rQNg9lgr9UCzXtecWg1I5+H+PRk927S9ro2tdT+snnO2XkxmL0Pzlde2vjcr9GiUpLiOry06br7RDGavwNEDcdtvce3rvyXjWtZ6xdjek87MmwMLv/NPZ/3fHewpBWmr2IaAPJa7dkWyVSTeVnX22B1NH91T+7FQUJ51Lmv9tvm/wvLa9u43g4jFiszM45kRv20Ku7x6pwdtT5j0ZpAvs5bUPo8l5L64Y/6nf495rmLdSvRI0i2t369/uu7fM4PGxbxiPgiQrIcBQdMt6Q/MvsCJHS9Y00vnP1Bh2+qdpxFi3Ur0GLoa8NaCo/3wLWvB5UOFZfTvUbfXtDDztFobBwAAAABbjkeMxuceMn0hFSLuEq0mfugrruOXk7p5zBqvb+U9DSup1ZF4UEIX83XtxHPdIYJIzdE9Mqvp22NWgHlVF8el6cvJljqR8BFLaO78zmI39dzCBZ3un9Rc378PTNo9sqgljVnjj1zQ9stvFnvYNdL63Vva/XjWMYane5iE9NSYbk6MNGX93rJaX5akDm1/NIrl1Tu93vUHW79rDgmQ2OF9EuqdXgza7nrMs74Lmm5a1VWrN21ib0zdB8z+0N5DGNzS8EEzv8XHb5lDA5TV0WHmaZaYtu+q3Du9NNtj2q07Wm/Q+EDpD4xi4Lb7QMLz2IWZJ5yNb+MAAAAAYEuyfU/k6oFFzfVFFlAJpYlBWUmxhIb6Dc0sGGYPv5NheufZWeMv7prc4AMX05HBhE7PGpqPPDCGhuh6QdNK6eKCoTfGd2opVFDJ7N199UBh7McR6WQtH4EL5/Sx69pXGCvzclI3j9l6966kdPh2UqdarAJBC1q5bo4VXOip2bUnYAiDEmN80OPDZtXOY+hwxQ+p+U1rEdZQIvsKbzh07Skf3iDMPOFW1iJtHAAAAABsQV3J4piy+z5ovY8sNycoa3sNs3tkUrvHU+ECmfbXN7OGBjoHzY+hRNYry2d7upJa2pXSMIGxTWX344VzFdORk0ndHE9p9/ngXs67H48Ve3e/VBx+wlyGquwRV9oGD7Y8Zh8HxXygYRt+oaaHGlVshy/r1fqGCVpevdPrXX8w465/9K3e6br9pX8e85leGLpAyynFO3ttH3Tzeg2/NF5saXzbMVcv7TDz2Dk/5uUMNvpN82IOORGYd7Nf6qZ2arvfbAHDAxTWkbt2RYYjeDym07IPYxJunsBtaIU2DgAAAAC2HO+3Y7tHZs3OegHD40WpvqDso9vKBsnNXbsiw/ZqbW7hgm72J5wfawlKlzU0cPCehqIajzXEfihraOZ2QqMtdgIheb/ibI4tYi+IxS+lFz/qFC5dQ7YhII9t39FRcclmAKj0CnkxAOTxZfrG7lNpvNLCB4pKH8qqZUzRoOXVO735+1MYCkDF8UtLH+7a11X/9NIYt1avS9uHvRJ7Y4HTS0MXeKv9FfsNkO0bGQAAA7VJREFUUvZgxJtjbCDfshZUPqwxZ8+XAsfFYHRxPNgQ87RaGwcAAAAAW05M23tcna6yaRnLAR12Wkh9QVlreILDU6UPIV0ct31EZSWl+Pv7dWokqVMTd0rzBaSLfPDdoP3Qqs4evKLEyaSOn7SNk4uW0X00KY1PFV/3zy1ccHxoJ7dwQoc1qeMjZo/nN6xgpm+6rj0adXzVPqv5kympwtiPvssKyGNte/c70prBNisQ1/emM/izNqlRq/eiV0/DoGNR1XEtBhHNcXUPWwE/54eSGre8eqc3fX8KQwEUekkes3qlFoK69U63ffhr+GCv2g+mnB/2CppeGLrA1SO12MO17BV7W7C/sCzZXssPPU/j5RZOqD2wh7g5xIhjaI+AsuZbPrJpGcse+2YfLD7MPK3WxgEAAADAlmMNNWqL0aUvpGQU7q9XUo43PHMLUxr2upfbQA/Xu4DukVlNDw2qvdP8e/S81fMna2jgmKHR84vmDXXfiDnf1KQyI/HK6SzG+KDax53rcs/TSJW3J6v5oTGd7p9UJiZJCZ2aOKF4Z0pLa3zsq2XEEpo7f0/tB3s1LEk9Sa3OWMGclZTi49L0ZSsoMzKp3Z2DGtCs5vp80imu42uT5se3Cuvpn1Sm0ivXftsgvzxmpb0sDRTSqkPTtX5ULGA7qtKVVOa8SsFD93Y3enn1Tm/6/ph5QsUhAWTmieLr5/VOj+nIzKw0NGj1oJXr/PlNNz8YZS7T1fM31q1ET0rGsvmK/ZGRSvuXCFGvhZmnBsspxTtTpb/7J5VZKw+Wu9uG0fOLyrjOX2BZq1A+zAZ8UnNla41p33Mdis8aenJX8DwvzSRaro0DAAAAgC2nK6nViROKd/aaf9vvrx/dppsHbfGcZt3L1uGhfD6ft//w4Uc39OwzX9uo7WmYrbIfDzLOIQAAAAAAwINhq8SBwu5Hcz70BQAAAAAAAADwRFAWAAAAAAAAACJEUBYAAAAAAAAAIkRQFgAAAAAAAAAiRFAWAAAAAAAAACJEUBYAAAAAAAAAIkRQFgAAAAAAAAAiRFAWAAAAAAAAACJEUBYAAAAAAAAAIkRQFgAAAAAAAAAiRFAWAAAAAAAAACL0UD6fz9t/+PCjGxu1LQAAAAAAAACwqT37zNcC5ykLygIAAAAAAAAAmofhCwAAAAAAAAAgQgRlAQAAAAAAACBCBGUBAAAAAAAAIEIEZQEAAAAAAAAgQgRlAQAAAAAAACBCBGUBAAAAAAAAIEIEZQEAAAAAAAAgQv8/Pxmd5m5TsS4AAAAASUVORK5CYII=;rotation=15;" vertex="1" parent="1">
          <mxGeometry x="1039" y="186.17" width="315" height="40.83" as="geometry" />
        </mxCell>
        <mxCell id="oT10BM8QOoswX7G8rz1d-6" value="" style="shape=image;verticalLabelPosition=bottom;labelBackgroundColor=default;verticalAlign=top;aspect=fixed;imageAspect=0;image=data:image/png,iVBORw0KGgoAAAANSUhEUgAAAkgAAACNCAYAAABMpIWBAAAgAElEQVR4nO3d/08cZ54n8HdO+fV0p9Wlm1tjsmOsLJIxY7MoiS0zltcns9rCKOaizCiyrSGIdGCSETGyhVeQZQK3RpEJaJKA2wgxIo5vxorBItRqsMRYDh6c2G1st4mWmTHOBOOZro500un+gLof6ks/9XRVV3XTDdh+vyRk01VP1fM89VTVp57nqeYZXdd1EBEREZHtP613BoiIiIg2GgZIRERERBIGSEREREQSO0CK9dWhqNztJ4rYeuZQpKlo3Ej52aBifXVonNBWt5H5KIqaVSTzk6U8iGOgvA4D8+udj/WRnDiBor648YumorH8BMY9D3Fh6yrWV5fKCxHRE+pZ6z9VbZNItAGAhvHmJiw3TaK1cv0ytlrJiROoeHAYibaK9c4K+YpjoPwcSmY+QH3Ya50KtC5MrmWmNq6wgpEFJfW7pqJx/wqaFyKoAlDouqpqm0SiYFsPJtZXh6Etwxg55NlgiIhWhUNsRERERJIAAZKG8eY6DEyoaCyvSw27zEcdQ3HykI5zyE4YFnOkyzRMAFhDBdb6A3PSYo88xPrqUNG5CIx2GOnMoYbkxAnH+t5DEHEMlJ/A+IS5fXs4wZkfsczObVvlNetu3vjXa79yvtK22xd31Kdc1470zSqWvYolD5ulDdWY5RY2vyxuWx5W8TyW5nbmzTaTaahWU9FY3oFeLKJlf6p9GeVWzXo7gXHNqkuP/TeriInDUHY+hPzNy0O0zuMipk3fv3uVBmvnct0FqB9H+iiuOfYqHKf5KIr2R6FCRa29n/S6ytTGrHYRy3SsIW1LWO6oA69h2bR9CPnPqn0ZZasdBdTOJvtzDvsRUd7paRL6xbcO6v23nL+H35rSNWGtm6fP6DetX26d0cPbUr/fPH1QD5++a6+rjU8Zy6T19Ftn0rabclfv3+aSD8d+vPOgjR935EHXE/rF06l9aePHffftTC/n567ev+24fjGh63piSn/DUa675v+tPJvr6da6qd+18ePOOpH2YywX9nvrjGN7aeW4dUYPbzuovzGe0NMJeRa2ba+bmNLfsLYlbycxpb+Rlg+vY2nWn/27WQ+O+vTOVypv4mdSu5T3b+YvtQ+/9mP8nqon5/bT958ucztPz3tqXz71E6hscpsS25BbWbzbmO+xljjOLekc1m7ddT+npH1Ybc/ejnRe+F0rbp52tnH5WBARrVbgIbb2JgUh4feqNmu+A4DKXWjHEpY1AJqKoVEFU8Lcn9AhBVUAYldUKN2vCOlewSCu4prb0/n8dfRWR/C6PQ8qjPquCISZF955cBVGfVuqDKHde6HMrnj3tqAMg4eF+Utp+anA692AOmftUNh3ZUUqXwDax4S5NWEFzQ2LZjoN1y4von1MKAcq8Hp3GXqvCE/DDT2p+WCVr2CwehHLj5BKLx6bygimGrzKVIE9DVZaYPkBMNitQH1gZDw5dxU4UJXaVnUEp6w5HmEFzQ3Ave/MXjrfY1mGwS4rX2HUNynA/YfZTfpuOOw5Jylt/2EFp7rLUiv4tR8tBnVWQbM9h8XIo7Pevffv387bhLTGttXLMaH83vXjW7asBGxjGY61L+E8ClVWOK4TDsI+Qrv3QhHPsXAVlOpU28zqWgFrDiXnGxJR/jzrv4oHTUXj/ihU+4MyDALAoxWo1cU4lZ4Ay/cBdbQJRZ3OJe2PAEg3ouR3S8DWXd4X20x58DIfRdFRVfhAQXOm9eX8zKqoKI86FzRowCEFIzNA4/46tABoH8s8wb1ki3Wz07A8W4aSLufy0POlwOWHSMLvgu+ePpOSLcaNsbUSuHZ/L15v24z28uuItYWxfBlQuoJMes3uWOafsf/t+7x35Nt+Hq1AhQq1XHV+Xl0coN7h287T8rap2A7IM7bpAGXLjn8by5wfH5URJMaMoTCgDIMZJ9oLwpuxHaUocV13vdsXEVGuAZL91swkRgBYbyEByHAjCKNkK9Ae8O041wv4oxWogBHUZMqDm/koioaLEV+YNLZnpg8q9Hwp0JDhrTj7zSLzFesMQdLyg0VgCwCEUWI9NcsX/a2bEQJ8elzc0hs3F2P7LuXYvRdK53XE9gH3DryCEMLY09CBa/O7gNlS7Al088nuWBbKve80oDKV4eUHi84V7mdoP5uKoVRHcGpIcQ0QfHu6fNq5KuUNAFBdjBK/7XqkTytbYP5tbNUqI0gsRMxz6gQQNEjytDHaFxE93XJ7i818erYv9vPX0Wv9P1wFpVpFrWPCq4oYgKp9CnqPBvweo03FUGajOG9PNNUwPiw87WfKgwujRyF1Q0jOXYWaYf00lbvQPtrhPrF7Pip8HkZJtXNx77AwcXU+itpRa2gnjD0HyqQ6iWPgqIr2fUGGC4wbiXP7l9AymylJFZTqJQwNL0HZbdzFqvYpuDd8Dr0NuxxDg5lkdSzzzqg3tfNSav+aiqHR1BrGEGqG9hOugoIoTub6fVE+7Vzt7BMmdmsY74o6hy8zKNmSuWxZZnSVbSyz5EQ0Vc7wZmxf9RYN2bYvTtImonzLrQep8hUMoik13NSgoN1eGEb90DDQ3ISicvOj6gjihwBURhDvPoGK8rrUtqojiLs9xYdTw1ZFAIAyDI5FoMyuBMgDEDp0GO3lHSgaNYe8hN8BQGlQHPOZ/FWgdSYi5MfM08wHqN9UjHvC50r3MEaEJ9/2A8DJ8jozIDPSWIFI6NAHiMNZJ35DdKKqtklM9dUJ9dCDqQYVQ54pwthzAGi5vBenrKf8TcXArIr2pixumNkcS1/GfK6K/XVoMbfhJ3ToA0w9qEOtNURWHcFUdxnUB+YKYQUjYysoOlpnBs5S+0EY9UM9WC53DuMEr/vM7TwxFkWROeQKmG0i4Hf2pLUJuWxpWVHQ3GDWRUMPEm3O/ay2jWXM6/NAi1DO9rHJVfYemXzaV9XhCLC/CUWdxvnk3zNHRJSdZ3Rd19c7E0+uJ+NLNx8Xvl8eaA2z5hTEERHR04RfFElPhvkoakfL7GHDdMawkhJwmIuIiJ5uub/FRrSe0t5IlN+gimOgvMMxLy2bYS4iInq6cYiNiIiISMIhNiIiIiIJAyQiIiIiCQMkIiIiIgkDJCIiIiIJAyQiIiIiCQMkIiIiIgkDJCIiIiIJAyQiIiIiCQMkIiIiIgkDJCIiIiIJAyQiIiIiif3Har/86u565oOIiIhoTf3o5R96LntW/OUfKv6+4JkptFvxPzwR5aCNje2MiJ5WT8r171b8DxmXc4iNiIiISMIAiYiIiEjCAImIiIhIwgCJiIiISMIAiYiIiEjCAImIiIhIwgCJiIiISMIAiYiIiEjCAImIiIhIwgCJiIiISMIAiYiIiEiyigApicnW11D6ovXTgckkgOQ0Wl4UP0/9tHyRxPdfdKD0xRHcdtvWRwurK00Obn9k5Gv9GXXwyZ31zgfln3yuvIbS1ml8n4dtFqy9JKfRknaeEhFly+X692IHJpNun4vXxwV88qLL/fnOSCreKLBn/Vdxs4BPXnwfOHsBSwPmR8lpTP4FwI4aDN6oMT67M4LSXxXjq4EaPGen/Tn6Z97G8BcHMXgwZK73Bd5FI756pzzngjx2ktNoqV1B041G7FzvvNCaOHb2An62w/j/7Y9ew8utkM4NIqInk3j9sw1cQB0AI6b4NTZP9aAulFr8s7M1KH3zC9w+aN0nk5j81TSOnb3gWK9QcutBSj7CN6jBbrGwoRrUyYV3FULdvzQC3b80I8AFfPLmNI79lDcKenrsfOc9HJtbwcp6Z4SIaKPa0YjPj0zjVXN06fsvfol30YjXAsUaq5dbgBTahG2Yxlyu3fuhGjQd+SPe/c0Cvv/i1/jwyHvpkeWGYHTxiUOEBmt4Q1wud/k5uw+Ndc117oygtHYE05jGqy/KQ4uZtklPjOQjfGP9/85I2lC0/bk8FHdnxGWI2n07znYld2fL23C29U++zldBiYhyt/PHjaj59NeYTC7gQjfQ/y9r15mS4xykcvxsqhHfvOl2oQ1m5zvv4din7+Pl7h/g8w05tCYMI964gKUb72Gb3etl+PDNr7H7hrH88yN/xLv/Zt3MkphsfRu/3f+xmfYCds++jw+thDsasTTViBrU4PMbF7AklN97m/Qkuf2bEUwfeQk7AdyehdEOblzA0tkaTHd/YZxTO17CsblZXBfa3O3ZadR0Hkwflr0zgtI3v0X/lNVeP0b/0vupYCt5Gw/t9vgx+ndPY9gO+OW2/jE2z4xgutCVQERPjQ/fzHEOZqgGv+gE3q19H990/nxNhtYsuU/SDtVg8MYFLJ2FSy9INr7Fw43YS3Lna3y4W+zKK8drncBvv05l9tjZ1PyhnT9uRI01ZJK8jd/O1aDpYOpI7nznPRwLsFvPbdJjT7xAvIr37MB45zvCPLQdL+GYfU4Ybe7d31jn1gLmPn0B//RS+hXCCJzEi0cIdT+twfTMbeNCFKrBz+z2GMKu/S9g+s9WT5Xc1o1h8Jp8Fp6InmrH7AewC1jKce6lfc1aIzlO0hbsaMTSjYOYbH0bLV98nJp47eP2R+/jm86P8RV+iZd/s4C6DdaL9P3Db4G5abz84ohzwZEkAJ8y/mUF07uL8YuC5Y4eR66TFAFzwr7YY/MC+s3/PfdSNWq6v8btd8qx887X+PDIT7CU1vySeLgEbKuWFvxtsR1gPwdjYvirnwrLjxj/fP/wW6D0Jc4BJKKNJzmNf+3+AT6/8RPMvfhrTP64Z816kVYfIAGwnkjf/XOA4AEA7ozg1U9r8PmNEJ7DT3DsxffxSbXHzWOdPLf5B8CRnziGv1ICRLHCjclIYsw52Zy3HNITwX6b8QIGAVhvc9hCO/FPu0cwd6cRmJ3GsepGl42EsLkU+O3DJLBDOv92F6MYRnA0/HcfY+mGsfz7Lzrw8p+NVZ7b/ANg5hG+R3mqvf5lBdMAmvJYVCKi7CQx+W8jQOfH2IkQijuBl/9tGrvW6O3fHN9im8Ynju8mSOL6zB9R83dBwjrzrTV7KKkcPztbgw/f3GDfubLjJRz79P3cvmdmx0s4BnGOhznnJH+5oyeF2dtYbP1+5+vUXDUA1lDZh7/qwPCS99sbO6trMO2YI2deWPbvxHNWD9PmkL3s+swfU4n/thg1cyO4cEdI+yu2ViJaX9Zba78wR6aeO/hz9GME/7pG312YWw9SaBPQ/TZKu1Mf1XQGGV5LYrL1fXx45D0siRf6HQfRv/ttvPrRSx49NoU17VoWYyJ6S+1rKLWXvID+qSDde1ba1HaPnX0Pxz4VewZq0HTkNbz64jRw5D0svbOGM89o49hxEP14OzWUe6Qmfa7ajpdwbG4a33T+3PupaUcjls6OoLT2NbxrfiSek3U/rUHpm6+ZwdcLOHbkhVTaUA0GpyC09RfQf9aY/0ZElA8f2tcfg+eUA8udEbzcDfRPib1FxgPju2/+EpMvFX6o7Rld13UA+PKru/iHir8v7N7WwK34HzZmOfjFkE+UtW1n7l+iRkS0HjbsfTZLt+J/wI9e/qHncv4ttjVhDHdYr3UTZeP2R+/jwyM/YXBERLSG8jRJm5yM70F6d0746Mh76zJ8SI+xOyMofXMa2N2IrwbYdoiI1hIDpIIIoc7+GzNEOdrRiKUbbm+tERFRoXGIjYiIiEjCAImIiIhIwgCJiIiISMIAiYiIiEjCAImIiIhIwgCJiIiISMIAiYiIiEjCAImIiIhI4vhbbERERERPi0x/i83xTdqZVnxcfPnV3SeiHLSxsZ0R0dPqSbn++XUMcYiNiIiISMIAiYiIiEjCAImIiIhIwgCJiIiISMIAiYiIiEjCAImIiIhIwgCJiIiISMIAiYiIiEjCAImIiIhIwgCJiIiISMIAiYiIiEiyigBJw3hzHYrKjZ/GCS0P6ZzLippVJHPPYB7ys4p089FUOcqjiEmpkxMnPMsZ6xPqoPwExoNmaZWSEyfWvM7tepuPutaTJdaXzbEJmg0VjWtWv7m2bSmd40eoL0d7q0NRX7xgJdnY4hgor8PAvPcaBWlLBRHHwBqe/0SFY5yX1vUp0/kZOJ2morHA17ycA6RYXxNatvYgsTCJxEIPtnc2BSp0xnTzl7DcNGkum8TU1igqCnyhL0g5NBWNR5cwOGOUI969hFrxhjgfRUVnKaZcyxnHNfTYdRDvBlq61iJoAUKHPkBiSEGowPtJTvTZdTdyKAwgjoGjSxiciaAqD9sPfAMMKxgZK12D+tUw3tyEllnho9k8tu35KIqOqs7PRjvWOEjaKDfzCrQuTKK1cr3zsdY2Sv0TyTSMN3fgXvewcV+bieDe0SBtNXO65NwKlJlJ+x7cPtqRReAVTI4BUhzXRssweLjC/L0Cr3eXofeK3wXZJ11lxHFhqzocgTJ63bNXYfUKU47k3FWoDYdRHzaWhg4dRvvsVVwzD2zsigql+xU7GHCWswKtbRX2nkK790KZXcFygNLE+rKJzNfP8oNFKFvC9u/JiXPoFeprTVXuchybgpi/ZAZHihEUz0SgAMDouQAXiTDqh1IPDUbQXAYAaB8zAsrkd0sAAMW6kIwpRtL7DwsX+GkqGtekt7HwYn3rE1is7/mqYbzZu8eWKG+0GNRZBc2HzAt8WEFzwyLUOZ+Tzidd6FBEuGdUYE8DcO+7/J7IuQVI89fRW70Xe4QbWmj3XvMmL3dxm0MEfXGfdC4erUCtLkZJTplcbTnMoS7hKdwYFosiljGdhmuXF9G+LxXkGAfPOrBGcKXsFhKHq6BUq7jmcrGMnYsCQjCVH85uS8cwl3nTcwwBunRhOpdLF1rP4R6jLdSOAmpnkzl86FZf6UOQzgBRHnay9u+2/UzrA85jUxhWAIOGXcZxDFdBqQaARSw/EvJmBRxC13HaDVRTcbJzEaiO4HXzYSL0fCkAQH0glWHr5gL0Bpr53b+CZqu3UVPRWN6BXiyiZX+dsw31qWb5rGPhbHtpQ41S20mV36PNeuRPrLfMbQmoamsDutZqSB92GYe2DEs9XfKw/UMpoUfdedR/5roOo35oF6491cOxtBaMDoNdjntY1T4F6uUYkmnTHIw22zihZU4n70RTMTQqBFN5UoBJ2hVonYng3lHzJjR/CS2IIN5W4ZdQomF8WIVyoKrgQz5eqtqGMXjf6raL43wn8jYMlJFwk7i2zxqGyp9Yn9BtuTCM5ufT1wkd+iDVazETgQIFU+YxTE6cQMXlvYgvCEOI1kV2PooiYXgxsWDUoXFDM3pDphqs3o4PUB/WsDxbhpJNqX3L2080raBlVMicFsPygVT+B6tVDHluP9P6hpItZenBRR4tP1gEAEevWUoY9UM9aAeA2SjOzxtBsQqjDPJQkbWsvUkYCq2MGL1Kox1GuzmqAg09SGR9zmVmBBpN5jC4cB6EFYws9KAdZcZxF4dpR68CXZOpYzF/HRgTusXNMgMw2w7soefETMR8OIpjoLzDkW57Z1+gXh/ftmQUwOil6wJOFjRgMAOW4WLEF+Tz2hiGVe12OonmB1H0ism96s6r/jPVNQBrODKx73qW8y+J8kSa5mCMJvQEvOcJDxRdwKmF/N+bC/MWW1hBc4OKoQnVmFvSle28FnPOxtagFVUoYdQ3KegdVjHe14F73W1rMwxUGbEvknuu+DzZCsFU7SjQe9R7YrgoFRCEUVWZqVAaxrui2D5mNT6zx0e4QYcOHUa71et2RYXiqCejDl2jflspSuz107ePygimGoTVwwpa7XYRxp4DPgGOz/qh50sLOxzlqwKt5rBY71HjOKI6glNy29dUDI0CgII9lc7PT3YuOtcd7cjfDc/s0ap4cBiJbOf3yEOnjmF0sVvceCBqH3MGXvWVMHt6Uz1mxpA2AvT6BWhLorCCkYVJxLecy3IiqT/jxYtzKJEDSDur0nACgKo2M3AW8u5edx6Crm9eb5ofiL2uRGuk8hUMIorzEypOdpbaD+L+hOkH5sNNvoesn83r1oThsKq2HmwvN3oqWv2CCnEYTVPRuD+K7WOTSKzXREsxP5URTG2tQ+39COJtPgUx03nNF9r+fBiA19XH2YtiqWobxmBzE87PK+43psoIEgsRAMZF+No+/xtYVdskpvrqUFQOoDqCeIaJ2bE+46l2xN6mhuVZoHe2zvl0izIMahpwH9i+T6qnTcX2PCr/QNnsUerKvFaszwwkLF43vRzXLwQjKPNoQ5WvYLBatSdyO27qpuTcVahAaqgOgBXAqgDax6xjb/S49HZeQuxQHp6qwgpGFjZjoLwDRaMKplb1pJY+YV3pNj73Ou7J75aAWRUV5VHngoYM9YnM28ycN6MnJp8PQ1Vtk4hvOYGK/XVQu4fTH/zM6QSnAuUv9YlRd6td32wvWO2xJcqCPQUgjPquiH3f921/blMHwgpGxlZQNKzi9Ty+aJRbD5Jww7Mk565CFTKenDiHew0K0Hkp1ZPhl05T0bh/Bc1r9RZKgHJAUzF0X0E7hO7pjOnCKNkqP6kZ846MACiMkupFLD8SFmsxqLNiL0rhVbWZw2MHrqLCq4dqPora+3JPRhgl1WXCEJr18wHqw25lN2WcS7aEZTuJS/1Aw/L91G+xPmP+hjxp2Uug9QsyX8dQtc+cNG3NtRMmbds9QfZnht6jcg+g0RsCQJqvZQSsgFDv2kPcA+Cs19Uyh2NmijEUoIfSnXHDdrypageqbsfdEHq+1BgyXJDanO+Tpn9bSuWrDkXlfc7hwDyzhq2NnhppSMvlmpI6jlYeverOTZD1rTlK17FnQRo2JcoTtx762BXVMeUgdi6K7Q3GaE0yi3SFlluAZA6h1Qqvpp/vFCbazkdRcXkvTrVFcEqcn+KTrjATkldRDsQxsP8qlK4IWruEeVU+6aoORwBhjkRy4pwwqdscthNugLFz0dRktPmoNMG0Dy2z0pDKqmgY75Maoetq5lcVpA2PhrHngPdXD1TtU6A65ocYPRzwnEsm38SMIEs8UZzBg3GDM3rjjN+twMGrvH7rF/ykq9xlDpWoqLXmCAGpniBNReNRFUAZBmeGMVhtrCvOkzKCaCBteM0cOgGsiel1KNpv9ChBepEgL8xhqMRMMYayntQszzeL45rdq2cMfToCQ03F+DyM+svpFV6/tmSI9VmBRGECI5n1cNL8QPhqkPBmbJeOuTXfzJCp7tz4ra9hvNkc8mNgRIVkDqGdtNq2pmJIeFEpOXECtehBa1sEU1uF9TKmc97HjK+KKcCcZd109fodPTsJ/eJbB/XwNuOn/5b18ZT+hvi7td7pu5nT6bp+83Tqc/FHXMdP3sqRlm9d18aP6+FtZ/SbPuXQdV3Xb51JleGtKV2TFhvbMpcL+7DqL1V+a3/546xnYfu3zph5dZbNrRxpx0osg1j2bQf1N8YTafsXP9PGjzvTy9s/fdeZxrH943r/6eMedXhcv5jwWz+hX3zLXC8L2bezu3q/a30Jn1ufCW3AbldWGVzakq5L7SnDeoVk58Hct9txdebzjN7v1haEY2Ufl7TzwuuYGW3X87oit6UNxdlG+m/d1fuFcgauO7H+M6xPlKvVXf+Ec/fWGelcNtZLtVOPdHr6PSiXtu1Xjmd0XdcB4Muv7uJHL/8wn7HXunhSyvF0iWOg/BxKZtbmCd5hPmq8VZTluDXbGRE9rZ6U659fOfi32GgDqEDrWCla9q/xF9d5DiMSEdHTLr9vsRHlqjKCxMIa7zOsYGRBWeOdEhHR44A9SEREREQSBkhEREREEgZIRERERBIGSEREREQSBkhEREREEgZIRERERBIGSEREREQSBkhEREREEgZIRERERBLH32IjIiIielpk+ltsjj818jT88TmifGA7I6Kn1ZNy/fPrGOIQGxEREZGEARIRERGRhAESERERkYQBEhEREZGEARIRERGRhAESERERkYQBEhEREZGEARIRERGRhAESERERkYQBEhEREZGEARIRERGRZBUBkobx5joUlRs/jRNaHtI5lxU1q0jmnsE85GcV6eajqXKURxGTUicnTniWM9Yn1EH5CYwHzVIOkhMnXMq8urK57WNg3n+dtSrz+si1bUvpHD9C3TuOSR2K+uIFKwlwHTj7TOpnMZu0CeB/P+NMP5dIX23uf6Z//u9SOnnf35/PIT/rIMvzJ6t0morG8jr3801uI/J6fsvTd1aYa6cp1udxnphlFPOZ9TbcrNNxcV7vvbeRtl5Bz/F8i2MgcLsKmE5uB4WoD9109fodPRs3Tx/Uw6fvmr/d1fu3HdT7b60y3a0zjm041w1mQ5QjMaW/se24fjFh/KqNH9fDb03pmpX41hk9vO2MftNrW0KZ09LmjZHn8LaD+hvjifyVTWSV89YZvf/WXb1fSJeWF/E4S/WzEWXXzhL6xbeMunb8BGrbHmm3HUzV0a0z7suzPHeC+auun4eu//6vxq/Jz3Q9Wq/ryQBJk5/pelRIa21P/Uz4fc5YJ209XddVl8/k5WqPrqtzAcuyDrI5f3JId/P0Qb3/9Bn3Y3/rTMbrkO9yl33l/doplvetM3r/Wy7XjMSU/oaYL6luAm1Dto7H5eZp5zU4/b5nXqultDdPr981Mpfrn11Gr+OVZTpt/IywjeDtT+RXjhwDpPSbnTZ+PMAFOct08okQwEYoR/o2nOvLJ0TGcmZRBzdPB20gqcaUlpdVls1rX9kFPMaJkW1jX0tZtTM7gDHrIDGlv7HtoB4OdJFIp40f18PCxcD63T6O1v4KEVgnP9P1aI/zM7/ARdd1O/D5j4DruG0z437mzHzNBQ/Y1kH250826e7q/dvO6De9tikHQPJ6fssdCnsP0MaP62+MJ9y3mXZNdL9eZNyGnr7ueh2XtGuw4zhIQcIGkdX1z+Ueln7fWX26QNuU+JUjtyG2+evord6LPeHUR6Hde6GMXkfM7BJLdYWZ3al9cZ90Lh6tQK0uRklOmVxtOcwuTaHbzhgGiiKWMZ2Ga5cX0b6vQthRBfY0LEKd0wDEcW20DMpuIXG4CvlcM0QAAAhuSURBVEq1imtu3a/nokD3K6jKV5nN/LQuTKK10mXRqsrmQnuIe9UK2quXsBx42EzD8mwZSjYFXX9jS363ZPynYZdxHMNVUKoBYBHLj4ThBmsoQOg6TuuK1lSc7FwEqiN43Tx+oedLAQDqA6mCt25GKN+F+dNFoPgfnZ9t6QG++x3soTd7iMscTvv368Di74D//BlQlmnju4A3dZ91PCz+zszXLqB4HPiTy7DduvM5fzQVjY7hZeNa2jjxTbDzbv46eht2ocrvnDQlJ86ht+Ew6sM5LC/oPUDDtcuAsjuc+f5g5+USWpA6H7LfRubjkpw44Rymm4+a0wACXg+zOi4axodVtDcpxrmrxaDOKmg+5HGQHgPJuatQrWufqWqfAvVyDEnPNq9lTifvRFMxNJr/eirAJO0KtM5EcO+oOY5qNt54W4VfQonRUJQDVfm/yAdU1TaMwfsd5okex/lOYHAmkudgxYUwpn1t3yRGHuOTI3buKpSuCFqbStFyLtgYcXLiXNpF9HG2/MCIGJQtbgUKo36oB+0AMBvF+XkjKFYBKN3DaUGstcy+gAJAZQTx7jJgtMNoN0dVoKEHiazPudXaBRz6DPjyfxm/Lo4A+Az4513A/5kH/ssPCrfrBx3All3G/+2A7TETVjAyVoqWLuNmbAQoPRg59N8CJY9dUe2bteeNZDaKCvPaUtFZiim5jfgtD2SV9wAtBhXm+e/58Kii1pp7cnQJg12K8z4RaBvBhA59gKmtUZyc0GAHMGMfeAaWsiDHRe1sMq/5TWjZ2pM67wvdSbDePNt8kMoVHi67gFML+b83F+YttrCC5gYVQxMqBtwary8N481GQ1nf4CCM+iYFvcMqxvs6cK+7LfBJsSqVESQWJpFYmMSeKz6TDIVgqnYU6D2awyTDAqpqMy8klZFAN+zkxAnjwjyUbZt5nFWgdUwBYBy/2lEA1RGcktu+pmJoFAAU7Kl0fn6yU5qZPNqRxaTZPHrudaC4A5g7D3w5D/yP1/O7/YX/LkzSNgOx788DKz2pnqeyfwT+30Xg+/zuek1UvoJBRHF+QsXJbAIU8wnabheVu9A+exXX5CZQHUHcvLYkZooxJL8Q4bc8qFXcA2LnooD9YBzGngNl6L0iP1wpmLLyuXAYy/udva3BthFc1eEI0HkJ4xN9zgDGT8DjonQP29f8+JZza/SC0gaRa5tHGPVDZhvoAk5mNfk7mGfzujUh0q1q68H28g7c6x5Gq19QIUbImorG/VFsH5tEImgjzDcxP5URTG2tQ+39COJtPgUx0y17LN7+fBiA19XGfUipqm0Yg81NOD+vuJ+UlREkFiIAjCHBa/s8hs5WK1DZViMVFCcW1rrnY20YQ2Ae9VT5CgarVbTMGr86eohMybmrUIHUUB0AQMN4l9mrNGYd+zgGyjvQ23kJsUNr0OMJOHuH/nkOOLsbKP8r8Jz52d9UAt99C2DX6vZT/ldgd5Hzsz9dBDAOnO1wfn7zutF79RhInT9h1HdF7Gug37Gz0hltYxFquepc4Vwc9V43nLCCU91XcXJOQ73bg6jfcjervgfEcW0UUNGEok5HQTB+2KvXxnjAKLoSR2tlRY7bcGcfl7CCU93mw1uA69NqjkvoUBsGL/fhmqagflMxlNkVLANP3gOjPQUguzbvOnUgrGBkbAVFwypez+PDdW49SMJBsyTnrkIVMp6cOId7DQrQeSnVk+GXTlPRuH8FzV7zY/ItQDmgqRi6r6AdxvCHf7owSrYC974TAyFj3pERAIVRUr2I5UfCYi0GdbYUJRthSGlVZcuVERwtN02uw7BQ4VXtM3qHYM2DmL9kBkLCk6X9maH3qNwDaMx3ACDNedCwbKazj4v2EPcAANnM+wrobyqB//ut87MHHcB/FQKkudNAcQ+wMJL6rGC9Ogngu3HgR7oxf8n6OfQZsLLRhtmCnT+xc1FsbzB6rpOB0plzYcYm7V4Iowco4jt/xxr+zXp5oe4B89fRK/ZimT9TPnN37Hl+OW0jyHGJ43xnKdobVAzZPbOFOi6pc3q1w4MbQej5UuD+Q+dX2VxRHVMO0tt8sHQFF3Q2t9uM8Uyv61uz8OVZ/pnS5TILXZbf1/yFtw6kGfUFe81f+qoD4w2lfL/F5kxTsNf8g0p7e2bjy/5tyQyv4Tveaku91p/+pqP724A3T3t8DUBB6tTnNf//6NH18+Zr+7+vd75y//t6lzfZ5Nf8TUHfYnN7q07MZ8a35taBz/kjXi8d52amdJ5vukpvd8nnmfy6td9yyZreA8S8pZU3h23IMh4XsR6lN9HycFzk/LrfL9yu0+73BbF+vf7vuAfl8LUq+XzN37PNZ0yX0C+elt+4zP9bbDkHSPL3szhvoOKN2lzPPiE80uneF/psbvp5K0davuVgxbscuq47v5vG5aS0Xs1O+74a+0YofddNgbhfTFZXtqyt6ff45Ef27UwKkqQbhHvAJN1wMtS3oz0VLDiyCN9VJAZH1vcc2UGJGaSIQZK1jvjjFsQEDZBUeH/v0e/rU8HaRuJ1/tw6I331g3TR90iX6fviHDdbl/PMcW77LU+T53tAxoBMCILSrpFBv2PH57tyMtVvpuO0yuOSft9zu+anP2Rlet19YwVIcv7lusvQ5r3S6en1lkvnil85ntF1XQeAL7+6ix+9/MO167oqkCelHLSxsZ0R0dPqSbn++ZWDf4uNiIiISMIAiYiIiEjCAImIiIhIwgCJiIiISMIAiYiIiEjCAImIiIhIwgCJiIiISMIAiYiIiEjCAImIiIhIwgCJiIiISMIAiYiIiEji+FtsRERERE+LTH+LzQ6QiIiIiMjAITYiIiIiCQMkIiIiIgkDJCIiIiIJAyQiIiIiCQMkIiIiIsn/B/0RKQaj4X5JAAAAAElFTkSuQmCC;rotation=-10;" vertex="1" parent="1">
          <mxGeometry x="1090.33" y="334" width="212.35" height="51.27" as="geometry" />
        </mxCell>
      </root>
    </mxGraphModel>
  </diagram>
</mxfile>
